<svg width="1405" height="430" viewBox="0 0 1405 430" fill="none" xmlns="http://www.w3.org/2000/svg">
<mask id="mask0" mask-type="alpha" maskUnits="userSpaceOnUse" x="1" y="0" width="1403" height="430">
<path d="M1.24787 38.4573C0.566986 24.8397 11.3533 13.3909 24.9873 13.2599L1379.2 0.247903C1393.14 0.113987 1404.26 11.8404 1403.38 25.7508L1379.45 406.891C1378.64 419.786 1367.77 429.725 1354.85 429.378L41.2159 394.097C28.6799 393.76 18.5164 383.829 17.8902 371.304L1.24787 38.4573Z" fill="#C1C1E0"/>
</mask>
<g mask="url(#mask0)">
<rect x="-26" y="-30" width="1480" height="497" fill="#E2E2F4"/>
<g clip-path="url(#clip0)">
<path d="M909.392 283H787.602C785.615 283 784 281.38 784 279.386V107.614C784 105.62 785.615 104 787.602 104H909.398C911.385 104 913 105.62 913 107.614V279.386C912.994 281.38 911.379 283 909.392 283ZM787.602 104.158C785.703 104.158 784.158 105.709 784.158 107.614V279.386C784.158 281.291 785.703 282.842 787.602 282.842H909.398C911.297 282.842 912.842 281.291 912.842 279.386V107.614C912.842 105.709 911.297 104.158 909.398 104.158H787.602Z" fill="#212647"/>
<path d="M1310.59 253H1161.41C1158.98 253 1157 251.027 1157 248.599V39.4008C1157 36.9731 1158.98 35 1161.41 35H1310.59C1313.02 35 1315 36.9731 1315 39.4008V248.599C1315 251.027 1313.02 253 1310.59 253ZM1161.41 35.1927C1159.09 35.1927 1157.19 37.081 1157.19 39.4008V248.599C1157.19 250.919 1159.09 252.807 1161.41 252.807H1310.59C1312.91 252.807 1314.81 250.919 1314.81 248.599V39.4008C1314.81 37.081 1312.91 35.1927 1310.59 35.1927H1161.41Z" fill="#212647"/>
<path d="M877.195 463.464H805.005C801.788 463.464 799.055 461.099 798.585 457.926L780.516 334.421C779.943 330.513 782.969 327.002 786.935 327.002H859.111C862.328 327.002 865.061 329.367 865.531 332.54L883.6 456.045C884.173 459.953 881.147 463.464 877.195 463.464Z" fill="#7979A5"/>
<path d="M813.599 463.464H779.561C776.343 463.464 773.611 461.099 773.141 457.926L755.071 334.421C754.498 330.513 757.525 327.002 761.491 327.002H795.529C798.747 327.002 801.479 329.367 801.949 332.54L820.019 456.045C820.577 459.953 817.551 463.464 813.599 463.464Z" fill="#A3A3CE"/>
<path d="M1244.39 295.681H893.575C884.673 295.681 876.828 302.366 876.064 310.607L867.235 405.965C866.471 414.206 873.082 420.89 881.984 420.89H1232.8C1241.7 420.89 1249.55 414.206 1250.31 405.965L1259.14 310.607C1259.9 302.366 1253.31 295.681 1244.39 295.681Z" fill="#7979A5"/>
<path d="M1220.58 295.681H869.761C860.859 295.681 853.014 302.366 852.25 310.607L843.421 405.965C842.657 414.206 849.268 420.89 858.17 420.89H1208.98C1217.89 420.89 1225.73 414.206 1226.5 405.965L1235.32 310.607C1236.09 302.366 1229.49 295.681 1220.58 295.681Z" fill="#8F8FBC"/>
<path d="M825.469 452.887V418.936C825.469 413.104 830.2 408.374 836.032 408.374H968.16C973.992 408.374 978.723 413.104 978.723 418.936V452.887C978.723 458.719 973.992 463.449 968.16 463.449H836.032C830.2 463.464 825.469 458.719 825.469 452.887Z" fill="#A3A3CE"/>
<path d="M1016.54 453.783V418.04C1016.54 412.693 1020.87 408.374 1026.2 408.374H1180.41C1185.76 408.374 1190.08 412.708 1190.08 418.04V453.783C1190.08 459.13 1185.74 463.449 1180.41 463.449H1026.2C1020.86 463.464 1016.54 459.13 1016.54 453.783Z" fill="#7979A5"/>
<path d="M978.737 453.783V418.04C978.737 412.693 983.071 408.374 988.404 408.374H1142.61C1147.96 408.374 1152.28 412.708 1152.28 418.04V453.783C1152.28 459.13 1147.94 463.449 1142.61 463.449H988.418C983.071 463.464 978.737 459.13 978.737 453.783Z" fill="#A3A3CE"/>
<path d="M1243.43 463.464H1189.74C1185.79 463.464 1183.2 459.953 1184.27 456.045L1218.09 332.54C1218.96 329.353 1222 327.002 1225.22 327.002H1278.91C1282.86 327.002 1285.45 330.513 1284.38 334.421L1250.56 457.926C1249.68 461.099 1246.65 463.464 1243.43 463.464Z" fill="#8F8FBC"/>
<path d="M1198.32 463.464H1164.28C1160.33 463.464 1157.74 459.953 1158.82 456.045L1192.63 332.54C1193.5 329.353 1196.54 327.002 1199.76 327.002H1233.8C1237.75 327.002 1240.33 330.513 1239.26 334.421L1205.44 457.926C1204.56 461.099 1201.54 463.464 1198.32 463.464Z" fill="#A3A3CE"/>
<path d="M1245.14 62H853.396V201.723H1245.14V62Z" fill="#7979A5"/>
<path d="M1241.54 62H849.797V201.723H1241.54V62Z" fill="#A3A3CE"/>
<path d="M1229.79 189.977V73.7587L861.557 73.7587V189.977L1229.79 189.977Z" fill="#B0B0D6"/>
<path d="M1045.68 166.715C1064.93 166.715 1080.53 151.114 1080.53 131.869C1080.53 112.624 1064.93 97.0226 1045.68 97.0226C1026.44 97.0226 1010.84 112.624 1010.84 131.869C1010.84 151.114 1026.44 166.715 1045.68 166.715Z" fill="#A3A3CE"/>
<path d="M921.341 189.985L945.742 73.7526H999.613L975.197 189.985H921.341Z" fill="#C1C1E0"/>
<path d="M997.923 189.985L1022.34 73.7526H1049.27L1024.87 189.985H997.923Z" fill="#C1C1E0"/>
<path d="M1162.37 189.985L1186.79 73.7526H1213.71L1189.31 189.985H1162.37Z" fill="#C1C1E0"/>
<path d="M1331.74 305.128C1322.6 344.734 1344.96 385.647 1335.82 425.268C1332.81 425.136 1329.79 425.018 1326.78 424.886C1323.76 424.754 1320.74 424.636 1317.73 424.504C1332.89 385.148 1316.57 344.484 1331.74 305.128Z" fill="#A3A3CE"/>
<path d="M1308.31 322.301C1315.8 360.174 1291.77 398.032 1299.24 435.904C1302.27 435.904 1305.28 435.904 1308.31 435.904C1311.34 435.904 1314.35 435.904 1317.37 435.904C1303.84 398.046 1321.84 360.174 1308.31 322.301Z" fill="#A3A3CE"/>
<path d="M1325.04 290.819C1313.05 331.204 1335.34 374.791 1323.35 415.176C1320.08 414.867 1316.78 414.559 1313.51 414.25C1310.23 413.942 1306.94 413.633 1303.67 413.325C1322.21 373.557 1306.49 330.587 1325.04 290.819Z" fill="#8F8FBC"/>
<path d="M1342.68 348.965C1346.55 370.81 1325 387.968 1328.86 409.813C1331.3 410.254 1333.72 410.71 1336.16 411.15C1338.6 411.591 1341.02 412.046 1343.46 412.487C1334.74 389.775 1351.41 371.706 1342.68 348.965Z" fill="#8F8FBC"/>
<path d="M1321.07 508.065C1348.38 508.065 1370.51 483.282 1370.51 452.71C1370.51 422.139 1348.38 397.356 1321.07 397.356C1293.77 397.356 1271.64 422.139 1271.64 452.71C1271.64 483.282 1293.77 508.065 1321.07 508.065Z" fill="#A3A3CE"/>
<path d="M1265.04 323.83H914.368C910.587 323.83 907.666 320.731 907.877 316.95L919.69 101.973C919.901 98.1926 923.163 95.0932 926.944 95.0932H1277.61C1281.39 95.0932 1284.31 98.1926 1284.1 101.973L1272.29 316.95C1272.08 320.747 1268.82 323.83 1265.04 323.83Z" fill="#9E5200"/>
<path d="M1117.51 131.669H1083.62C1072.31 131.669 1063.58 122.436 1064.19 111.142L1064.53 104.878C1065.13 93.9411 1074.58 85 1085.53 85H1119.41C1130.72 85 1139.47 94.2494 1138.85 105.544L1138.51 111.791C1137.93 122.712 1128.47 131.669 1117.51 131.669Z" fill="#263238"/>
<path d="M1148.38 546.904H1137.52L1107.62 89.7708H1118.47L1148.38 546.904Z" fill="#263238"/>
<path d="M1066.85 546.904H1077.73L1107.62 89.7708H1096.76L1066.85 546.904Z" fill="#263238"/>
<path d="M1263.17 323.83H912.502C908.721 323.83 905.8 320.731 906.011 316.95L917.824 101.973C918.035 98.1926 921.297 95.0932 925.078 95.0932H1275.75C1279.53 95.0932 1282.45 98.1926 1282.24 101.973L1270.42 316.95C1270.21 320.747 1266.95 323.83 1263.17 323.83Z" fill="#FF8B00"/>
<path d="M918.068 317.242C915.033 317.242 912.713 314.776 912.875 311.757L924.121 107.182C924.283 104.148 926.879 101.698 929.914 101.698H1270.16C1273.2 101.698 1275.52 104.164 1275.36 107.182L1264.11 311.757C1263.95 314.792 1261.35 317.242 1258.32 317.242H918.068Z" fill="#FFBA6E"/>
<path d="M1260.43 208.813H1158C1155.42 208.813 1153.46 206.719 1153.59 204.156L1158.7 111.028C1158.72 110.671 1158.44 110.363 1158.08 110.363C1157.73 110.363 1157.4 110.655 1157.38 111.028L1152.27 204.156C1152.13 206.736 1149.94 208.813 1147.36 208.813H1040.94C1038.36 208.813 1036.4 206.719 1036.53 204.156L1041.64 111.028C1041.65 110.671 1041.38 110.363 1041.02 110.363C1040.66 110.363 1040.34 110.655 1040.32 111.028L1035.21 204.156C1035.07 206.736 1032.87 208.813 1030.29 208.813H927.869C927.512 208.813 927.187 209.105 927.171 209.478C927.155 209.835 927.431 210.143 927.788 210.143H1030.21C1032.79 210.143 1034.76 212.237 1034.63 214.8L1029.52 307.928C1029.5 308.285 1029.78 308.593 1030.13 308.593C1030.49 308.593 1030.81 308.301 1030.83 307.928L1035.94 214.8C1036.09 212.22 1038.28 210.143 1040.86 210.143H1147.29C1149.87 210.143 1151.84 212.237 1151.71 214.8L1146.59 307.928C1146.58 308.285 1146.85 308.593 1147.21 308.593C1147.57 308.593 1147.89 308.301 1147.91 307.928L1153.02 214.8C1153.17 212.22 1155.36 210.143 1157.94 210.143H1260.36C1260.72 210.143 1261.04 209.851 1261.06 209.478C1261.08 209.105 1260.8 208.813 1260.43 208.813Z" fill="#FF8B00"/>
<path opacity="0.4" d="M1093.43 127.239H1052.3L1050.01 169.089L1091.08 170.176L1093.43 127.239Z" fill="#263238"/>
<path d="M1088.99 168.391C1075.23 167.726 1061.47 167.044 1047.69 166.379C1049.98 152.164 1051.41 137.9 1051.99 123.685C1065.83 124.351 1079.67 125.032 1093.52 125.698C1092.87 139.913 1091.34 154.16 1088.99 168.391Z" fill="white"/>
<path opacity="0.4" d="M1143.04 155.198L1101.84 158.33L1102.75 200.05L1143.96 198.006L1143.04 155.198Z" fill="#263238"/>
<path d="M1141.73 196.383C1127.9 196.772 1114.06 197.146 1100.23 197.535C1101.43 183.239 1101.77 168.975 1101.27 154.809C1115.19 154.42 1129.1 154.03 1143.01 153.641C1143.43 167.807 1142.99 182.087 1141.73 196.383Z" fill="#407BFF"/>
<path opacity="0.4" d="M1022.73 231.287L946.79 228.383L939.975 295.952L1015.74 300.626L1022.73 231.287Z" fill="#263238"/>
<path d="M1011.96 297.559C986.595 295.498 961.232 293.453 935.853 291.392C940.948 268.528 944.47 245.567 946.401 222.59C971.926 224.65 997.435 226.711 1022.94 228.772C1020.88 251.75 1017.2 274.711 1011.96 297.559Z" fill="white"/>
<g opacity="0.3">
<path opacity="0.3" d="M944.567 136.7C942.214 136.7 940.396 134.769 940.526 132.416C940.656 130.063 942.684 128.132 945.037 128.132C947.39 128.132 949.208 130.063 949.078 132.416C948.948 134.769 946.92 136.7 944.567 136.7Z" fill="#263238"/>
<path opacity="0.8" d="M1011.67 136.7H958.977C956.624 136.7 954.806 134.769 954.936 132.416C955.066 130.063 957.094 128.132 959.447 128.132H1012.14C1014.49 128.132 1016.31 130.063 1016.18 132.416C1016.06 134.769 1014.02 136.7 1011.67 136.7Z" fill="#263238"/>
<path opacity="0.3" d="M943.544 155.361C941.191 155.361 939.374 153.43 939.504 151.077C939.633 148.724 941.662 146.793 944.015 146.793C946.368 146.793 948.185 148.724 948.055 151.077C947.925 153.446 945.897 155.361 943.544 155.361Z" fill="#263238"/>
<path opacity="0.8" d="M1019.97 155.361H957.938C955.585 155.361 953.768 153.43 953.898 151.077C954.027 148.724 956.056 146.793 958.409 146.793H1020.44C1022.8 146.793 1024.62 148.724 1024.49 151.077C1024.37 153.446 1022.33 155.361 1019.97 155.361Z" fill="#263238"/>
<path opacity="0.3" d="M942.506 174.038C940.153 174.038 938.336 172.107 938.466 169.754C938.595 167.401 940.624 165.47 942.977 165.47C945.33 165.47 947.147 167.401 947.017 169.754C946.904 172.107 944.859 174.038 942.506 174.038Z" fill="#263238"/>
<path opacity="0.8" d="M987.114 174.038H956.931C954.578 174.038 952.761 172.107 952.891 169.754C953.021 167.401 955.049 165.47 957.402 165.47H987.601C989.953 165.47 991.771 167.401 991.641 169.754C991.495 172.107 989.467 174.038 987.114 174.038Z" fill="#263238"/>
<path opacity="0.8" d="M1015.07 192.716H984.875C982.522 192.716 980.705 190.785 980.835 188.432C980.964 186.079 982.993 184.148 985.346 184.148H1015.54C1017.9 184.148 1019.71 186.079 1019.58 188.432C1019.46 190.785 1017.43 192.716 1015.07 192.716Z" fill="#263238"/>
<path opacity="0.3" d="M941.484 192.716C939.131 192.716 937.313 190.785 937.443 188.432C937.573 186.079 939.601 184.148 941.954 184.148C944.307 184.148 946.125 186.079 945.995 188.432C945.865 190.785 943.837 192.716 941.484 192.716Z" fill="#263238"/>
<path opacity="0.8" d="M969.832 192.716H955.893C953.54 192.716 951.722 190.785 951.852 188.432C951.982 186.079 954.01 184.148 956.363 184.148H970.302C972.655 184.148 974.473 186.079 974.343 188.432C974.229 190.785 972.201 192.716 969.832 192.716Z" fill="#263238"/>
</g>
<path d="M1072.48 248.277H1052.05L1049.25 299.409H1069.68L1072.48 248.277Z" fill="#407BFF"/>
<path d="M1103.5 258.809H1083.05L1080.83 299.409H1101.26L1103.5 258.809Z" fill="#407BFF"/>
<path d="M1136.55 231.579H1116.12L1112.4 299.409H1132.83L1136.55 231.579Z" fill="#407BFF"/>
<path d="M1056.61 277.129C1054.59 277.129 1052.56 277.08 1050.48 276.967C1046.91 276.788 1042.29 276.334 1038.12 274.468C1037.45 274.176 1037.16 273.397 1037.45 272.731C1037.74 272.066 1038.52 271.774 1039.19 272.066C1042.95 273.754 1047.27 274.176 1050.61 274.338C1075.13 275.604 1096.6 269.21 1118.21 254.249C1123.36 250.679 1131.06 244.074 1135.79 237.21C1136.19 236.61 1137.02 236.464 1137.62 236.869C1138.22 237.275 1138.37 238.103 1137.96 238.703C1133.04 245.843 1125.32 252.529 1119.72 256.407C1099.42 270.46 1079.22 277.129 1056.61 277.129Z" fill="white"/>
<path d="M1141 247.304C1140.83 247.304 1140.66 247.271 1140.49 247.206C1139.83 246.93 1139.5 246.151 1139.78 245.486C1141.64 240.975 1142.03 235.896 1140.91 231.287C1135.77 234.744 1130.3 237.648 1124.59 239.953C1123.91 240.228 1123.15 239.904 1122.87 239.222C1122.59 238.541 1122.92 237.778 1123.6 237.502C1129.69 235.052 1135.51 231.888 1140.91 228.091C1141.26 227.847 1141.69 227.782 1142.08 227.912C1142.47 228.042 1142.8 228.35 1142.93 228.74C1144.83 234.354 1144.57 240.813 1142.23 246.476C1142 246.995 1141.52 247.304 1141 247.304Z" fill="white"/>
<path d="M1248.6 196.902H1172.59C1171.31 196.902 1170.11 196.399 1169.25 195.49C1168.37 194.565 1167.93 193.365 1168.01 192.066L1171.55 127.807C1171.7 125.178 1173.95 123.036 1176.58 123.036H1252.59C1253.87 123.036 1255.07 123.539 1255.93 124.448C1256.81 125.373 1257.25 126.574 1257.17 127.872L1253.63 192.131C1253.48 194.76 1251.23 196.902 1248.6 196.902ZM1176.57 124.335C1174.62 124.335 1172.95 125.925 1172.85 127.856L1169.31 192.115C1169.26 193.04 1169.57 193.916 1170.19 194.565C1170.8 195.214 1171.65 195.571 1172.57 195.571H1248.58C1250.53 195.571 1252.2 193.981 1252.3 192.05L1255.83 127.791C1255.88 126.866 1255.57 125.99 1254.96 125.341C1254.34 124.692 1253.5 124.335 1252.57 124.335H1176.57Z" fill="#407BFF"/>
<path d="M1255.79 141.454H1171.47C1171.11 141.454 1170.8 141.162 1170.8 140.789C1170.8 140.432 1171.1 140.123 1171.47 140.123H1255.79C1256.14 140.123 1256.45 140.416 1256.45 140.789C1256.45 141.162 1256.16 141.454 1255.79 141.454Z" fill="#407BFF"/>
<path d="M1188.35 196.902C1188.33 196.902 1188.31 196.902 1188.31 196.902C1187.96 196.886 1187.66 196.578 1187.7 196.204L1190.75 140.756C1190.76 140.399 1191.07 140.107 1191.45 140.14C1191.8 140.156 1192.09 140.464 1192.06 140.838L1189.01 196.285C1188.98 196.626 1188.69 196.902 1188.35 196.902Z" fill="#407BFF"/>
<path d="M1246.13 148.042H1200.35C1200 148.042 1199.69 147.75 1199.69 147.377C1199.69 147.02 1199.98 146.712 1200.35 146.712H1246.13C1246.49 146.712 1246.8 147.004 1246.8 147.377C1246.8 147.75 1246.5 148.042 1246.13 148.042Z" fill="#407BFF"/>
<path d="M1239.23 156.123H1199.92C1199.56 156.123 1199.25 155.831 1199.25 155.458C1199.25 155.101 1199.54 154.793 1199.92 154.793H1239.23C1239.59 154.793 1239.9 155.085 1239.9 155.458C1239.9 155.831 1239.61 156.123 1239.23 156.123Z" fill="#407BFF"/>
<path d="M1222.34 164.464H1199.45C1199.09 164.464 1198.78 164.172 1198.78 163.799C1198.78 163.426 1199.07 163.133 1199.45 163.133H1222.34C1222.7 163.133 1223.01 163.426 1223.01 163.799C1223.01 164.172 1222.72 164.464 1222.34 164.464Z" fill="#407BFF"/>
<path d="M1226.5 180.74H1198.55C1198.2 180.74 1197.89 180.448 1197.89 180.075C1197.89 179.701 1198.18 179.409 1198.55 179.409H1226.5C1226.85 179.409 1227.16 179.701 1227.16 180.075C1227.16 180.448 1226.87 180.74 1226.5 180.74Z" fill="#407BFF"/>
<path d="M1220.99 189.097H1198.1C1197.74 189.097 1197.43 188.805 1197.43 188.432C1197.43 188.075 1197.73 187.766 1198.1 187.766H1220.99C1221.35 187.766 1221.66 188.058 1221.66 188.432C1221.64 188.789 1221.35 189.097 1220.99 189.097Z" fill="#407BFF"/>
<path d="M1234.4 189.097H1227.06C1226.71 189.097 1226.4 188.805 1226.4 188.432C1226.4 188.075 1226.69 187.766 1227.06 187.766H1234.4C1234.76 187.766 1235.06 188.058 1235.06 188.432C1235.05 188.789 1234.76 189.097 1234.4 189.097Z" fill="#407BFF"/>
<path d="M1241.88 172.545H1199.02C1198.67 172.545 1198.36 172.253 1198.36 171.88C1198.36 171.523 1198.65 171.215 1199.02 171.215H1241.88C1242.24 171.215 1242.54 171.507 1242.54 171.88C1242.53 172.253 1242.24 172.545 1241.88 172.545Z" fill="#407BFF"/>
<path d="M1201.91 290.386C1191.98 290.386 1183.85 287.449 1178.79 281.997C1173.4 276.172 1171.16 267.003 1172.65 256.845C1173.56 250.63 1175.61 245.405 1178.69 241.332C1181.79 237.243 1186.29 233.884 1192.05 231.32C1204.74 225.673 1219.44 225.868 1231.36 231.855C1236.7 234.533 1240.05 237.924 1241.31 241.932C1241.52 242.63 1241.15 243.36 1240.45 243.588C1239.75 243.798 1239.02 243.425 1238.8 242.727C1237.76 239.433 1234.85 236.561 1230.18 234.224C1218.95 228.594 1205.11 228.415 1193.12 233.754C1187.78 236.123 1183.62 239.222 1180.8 242.955C1177.98 246.671 1176.11 251.474 1175.27 257.251C1173.89 266.614 1175.88 274.987 1180.74 280.228C1187.49 287.514 1198.63 288.034 1204.69 287.693C1215.95 287.076 1225.62 283.133 1231.95 276.626C1239.35 268.999 1241.43 257.608 1236.77 250.111C1235.86 248.667 1233.93 246.184 1231.09 245.892C1230.36 245.827 1229.84 245.178 1229.9 244.448C1229.97 243.717 1230.62 243.198 1231.35 243.263C1234.29 243.555 1237.01 245.486 1239.01 248.715C1244.28 257.202 1242.06 269.989 1233.83 278.46C1227.05 285.453 1216.74 289.656 1204.82 290.322C1203.84 290.354 1202.87 290.386 1201.91 290.386Z" fill="white"/>
<path d="M858.669 208.679L854.438 216.069L850.28 223.605C847.548 228.644 844.933 233.727 842.553 238.825C841.363 241.381 840.232 243.937 839.204 246.493L839.013 246.963C838.998 247.007 838.969 247.037 838.954 247.066C838.88 247.14 838.866 247.213 838.822 247.272C838.748 247.404 838.689 247.522 838.616 247.698C838.513 248.036 838.542 248.594 838.792 249.343C839.262 250.871 840.643 252.854 842.333 254.705C843.993 256.571 846.138 258.466 848.062 260.141L844.624 267.471C842.876 266.972 841.422 266.472 839.879 265.797C838.351 265.15 836.868 264.372 835.399 263.49C832.475 261.683 829.552 259.465 827.113 255.807C825.938 253.985 824.924 251.723 824.528 249.108C824.351 247.801 824.278 246.449 824.454 245.112C824.528 244.451 824.63 243.775 824.792 243.158L825.027 242.203L825.203 241.631C826.144 238.634 827.128 235.651 828.274 232.787C830.507 227.013 833.019 221.446 835.766 216.025C837.132 213.307 838.557 210.633 840.056 207.989C841.569 205.33 843.023 202.759 844.757 200.071L858.669 208.679Z" fill="#FFC3BD"/>
<path d="M844.39 259.303L852.102 257.291L852.543 269.748C852.543 269.748 846.505 270.645 842.803 266.957L844.39 259.303Z" fill="#FFC3BD"/>
<path d="M863.047 255.205L861.298 266.149L852.543 269.763L852.102 257.305L863.047 255.205Z" fill="#FFC3BD"/>
<path d="M894.97 149.946C895.146 150.798 895.734 151.4 896.292 151.283C896.85 151.165 897.159 150.387 896.982 149.534C896.806 148.682 896.218 148.08 895.66 148.198C895.117 148.315 894.808 149.094 894.97 149.946Z" fill="#263238"/>
<path d="M895.66 151.415C895.66 151.415 898.598 155.94 901.213 157.879C899.994 159.598 897.291 159.465 897.291 159.465L895.66 151.415Z" fill="#ED847E"/>
<path d="M890.886 145.847C890.768 145.847 890.636 145.803 890.533 145.715C890.327 145.524 890.313 145.201 890.504 144.995C892.428 142.924 894.749 143.291 894.852 143.306C895.131 143.35 895.322 143.614 895.263 143.893C895.219 144.172 894.955 144.363 894.676 144.319C894.602 144.305 892.781 144.04 891.253 145.7C891.165 145.788 891.033 145.847 890.886 145.847Z" fill="#263238"/>
<path d="M870.671 161.948C872.214 169.837 873.771 184.307 868.247 189.581C868.247 189.581 870.407 197.588 885.083 197.588C901.213 197.588 892.795 189.581 892.795 189.581C883.996 187.481 884.216 180.943 885.758 174.817L870.671 161.948Z" fill="#FFC3BD"/>
<path d="M865.059 191.05C863.884 188.862 862.576 186.349 865.265 185.556C868.218 184.689 887.213 183.088 892.781 184.704C891.062 187.76 893.971 191.506 893.971 191.506L865.059 191.05Z" fill="#263238"/>
<path d="M848.914 192.02C838.793 194.341 830.463 220.167 830.463 220.167L850.78 235.651C850.78 235.651 858.228 228.629 861.548 215.701C865.03 202.171 859.257 189.655 848.914 192.02Z" fill="#407BFF"/>
<path opacity="0.2" d="M848.914 192.02C838.793 194.341 830.463 220.167 830.463 220.167L850.78 235.651C850.78 235.651 858.228 228.629 861.548 215.701C865.03 202.171 859.257 189.655 848.914 192.02Z" fill="#FAFAFA"/>
<path opacity="0.2" d="M857.582 211.015C852.087 216.451 850.295 226.352 849.869 234.961L850.765 235.651C850.765 235.651 858.228 228.615 861.548 215.701C861.754 214.893 861.93 214.085 862.077 213.292L857.582 211.015Z" fill="black"/>
<path d="M909.381 192.578C909.381 192.578 920.869 205.55 910.013 285.864C892.619 285.864 860.755 285.864 852.293 285.864C851.896 277.006 857.464 233.771 848.914 192.02C848.914 192.02 858.816 190.037 868.232 189.581C875.607 189.229 886.287 188.994 892.766 189.581C901.331 190.36 909.381 192.578 909.381 192.578Z" fill="#407BFF"/>
<path opacity="0.2" d="M909.381 192.578C909.381 192.578 920.869 205.55 910.013 285.864C892.619 285.864 860.755 285.864 852.293 285.864C851.896 277.006 857.464 233.771 848.914 192.02C848.914 192.02 858.816 190.037 868.232 189.581C875.607 189.229 886.287 188.994 892.766 189.581C901.331 190.36 909.381 192.578 909.381 192.578Z" fill="#FAFAFA"/>
<path opacity="0.2" d="M914.42 217.126L914.2 216.935L901.081 220.079C900.332 228.952 909.455 239.559 914.156 244.407C914.802 233.08 914.787 224.149 914.42 217.126Z" fill="black"/>
<path d="M866.162 153.927C868.938 164.269 870.025 170.469 876.416 174.773C886.023 181.237 897.982 173.818 898.349 162.859C898.687 152.987 894.089 137.723 882.997 135.637C872.053 133.58 863.385 143.585 866.162 153.927Z" fill="#FFC3BD"/>
<path d="M870.906 170.792C875.299 173.304 891.341 164.901 888.05 152.149C888.05 152.149 894.161 144.804 893.471 136.695C892.781 128.586 887.213 125.501 881.292 127.234C876.077 128.762 876.224 131.627 876.224 131.627C876.224 131.627 851.558 134.535 856.832 144.554C846.784 155.499 865.412 167.663 870.906 170.792Z" fill="#263238"/>
<path d="M857.523 145.392C857.523 145.392 854.585 140.309 850.295 143.159C852.308 143.188 855.613 143.526 857.523 145.392Z" fill="#263238"/>
<path d="M892.678 142.042C892.678 142.042 898.055 129.908 889.667 126C892.502 129.937 894.044 136.283 892.678 142.042Z" fill="#263238"/>
<path d="M883.76 154.368C884.466 157.086 886.243 159.421 888.109 160.802C890.915 162.888 893.016 160.832 892.81 157.658C892.634 154.794 890.959 150.269 887.859 149.417C884.818 148.58 882.952 151.253 883.76 154.368Z" fill="#FFC3BD"/>
<path d="M889.549 285.864C889.549 285.864 877.297 368.338 870.583 399.247C863.223 433.08 823.734 545.037 823.734 545.037L804.416 540.851C804.416 540.851 832.02 449.621 838.205 402.317C842.95 365.987 852.308 285.879 852.308 285.879H889.549V285.864Z" fill="#263238"/>
<path opacity="0.3" d="M881.807 315.246C867.645 318.022 869.143 370.835 870.848 397.998C874.932 378.798 880.911 341.85 884.995 315.628C884.055 315.157 882.997 315.011 881.807 315.246Z" fill="black"/>
<path d="M910.013 285.864C910.013 285.864 911.497 366.56 910.322 399.467C909.102 433.697 897.144 545.787 897.144 545.787H878.854C878.854 545.787 878.178 435.695 877.37 402.082C876.489 365.429 872.052 285.864 872.052 285.864H910.013Z" fill="#263238"/>
<path opacity="0.4" d="M1011.51 228.967H974.27L972.184 266.854L1009.38 267.839L1011.51 228.967Z" fill="#263238"/>
<path d="M991.943 253.339C979.515 251.811 967.072 250.269 954.644 248.741C957.655 236.107 959.903 223.385 961.372 210.648C973.874 212.19 986.39 213.733 998.892 215.261C997.349 227.998 995.028 240.72 991.943 253.339Z" fill="#407BFF"/>
<path d="M914.699 202.421C916.359 205.007 918.254 207.901 920.135 210.589C922.059 213.292 923.984 215.995 926.011 218.595C930.022 223.796 934.282 228.805 938.865 232.948C939.997 233.991 941.157 234.976 942.332 235.872L943.214 236.533C943.14 236.489 942.861 236.386 942.7 236.357C942.318 236.283 942.127 236.342 942.23 236.401C942.45 236.518 943.522 236.327 944.654 235.842C945.799 235.358 947.092 234.696 948.37 233.918C953.541 230.715 958.874 226.235 963.884 221.886L970.186 226.984C966.278 233.286 961.974 238.986 956.054 244.216C954.555 245.509 952.939 246.787 951 247.933C949.046 249.049 946.842 250.21 943.581 250.68C941.965 250.886 939.997 250.856 937.969 250.21C936.985 249.916 935.927 249.387 935.119 248.888L933.841 248.08C932.166 246.993 930.565 245.847 929.037 244.642C922.955 239.824 917.887 234.403 913.215 228.761C910.909 225.911 908.676 223.032 906.619 220.035C904.519 217.009 902.565 214.115 900.611 210.751L914.699 202.421Z" fill="#FFC3BD"/>
<path d="M893.501 208.9C890.048 223.37 916.227 237.532 916.227 237.532L933.239 217.611C933.239 217.611 925.497 205.873 915.86 196.633C903.975 185.218 896.13 197.882 893.501 208.9Z" fill="#407BFF"/>
<path opacity="0.2" d="M893.501 208.9C890.048 223.37 916.227 237.532 916.227 237.532L933.239 217.611C933.239 217.611 925.497 205.873 915.86 196.633C903.975 185.218 896.13 197.882 893.501 208.9Z" fill="#FAFAFA"/>
<path d="M962.18 224.898L966.19 212.014L976.753 217.273C976.753 217.273 975.21 226.675 967.527 228.306L962.18 224.898Z" fill="#FFC3BD"/>
<path d="M970.436 208.444L979.956 211.059L976.768 217.273L966.205 212.014L970.436 208.444Z" fill="#FFC3BD"/>
</g>
</g>
<defs>
<clipPath id="clip0">
<rect x="682" y="16" width="734.535" height="547.39" fill="white"/>
</clipPath>
</defs>
</svg>
