<svg width="1382" height="406" viewBox="0 0 1382 406" fill="none" xmlns="http://www.w3.org/2000/svg">
<path d="M-82.6776 1C-210.178 88 -93.1776 359.5 191.322 359.5C412.235 359.5 437.82 282.689 577.822 291.5C720.822 300.5 809.322 130.5 738.322 130.5C667.322 130.5 714.822 256.5 837.322 212.5C959.822 168.5 1114.82 -6 1380.32 140" stroke="#DDDDF5" stroke-width="2" stroke-linecap="round" stroke-linejoin="round" stroke-dasharray="20 20"/>
<path d="M227.854 328.369L252.687 357.672L245.683 395.943L293.942 350.458C293.942 350.458 295.268 348.59 294.727 346.837C294.185 345.076 292.6 343.961 291.766 343.676L227.854 328.369Z" fill="#0363AC"/>
<path fill-rule="evenodd" clip-rule="evenodd" d="M294.766 346.976L252.642 357.918L252.687 357.672L227.854 328.369L291.766 343.676C292.6 343.961 294.185 345.076 294.727 346.837C294.742 346.883 294.755 346.93 294.766 346.976Z" fill="#10ADE2"/>
<path fill-rule="evenodd" clip-rule="evenodd" d="M247.862 358.916L243.919 380.885L294.765 346.979L294.765 346.979L294.765 346.979L294.765 346.979L294.765 346.979L234.165 342.692L247.862 358.916Z" fill="#0065B0"/>
<path d="M249.07 377.52L252.635 357.761L294.765 346.978L249.07 377.52Z" fill="#FF9000"/>
<path d="M240.353 343.188L252.635 357.761L294.765 346.978L240.353 343.188Z" fill="#0C94D0"/>
<path d="M987.426 95.8578L1017.3 120.006L1017.56 158.911L1056.48 105.212C1056.48 105.212 1057.43 103.129 1056.57 101.507C1055.71 99.8793 1053.94 99.08 1053.07 98.9561L987.426 95.8578Z" fill="#0363AC"/>
<path fill-rule="evenodd" clip-rule="evenodd" d="M1056.64 101.637L1017.3 120.256L1017.3 120.006L987.426 95.8578L1053.07 98.9561C1053.94 99.08 1055.71 99.8793 1056.57 101.507C1056.59 101.55 1056.62 101.594 1056.64 101.637Z" fill="#10ADE2"/>
<path fill-rule="evenodd" clip-rule="evenodd" d="M1012.79 122.129L1013.02 144.448L1056.64 101.64L1056.64 101.64L1056.64 101.64L1056.64 101.64L1056.64 101.64L996.301 108.75L1012.79 122.129Z" fill="#0065B0"/>
<path d="M1017.45 140.181L1017.26 120.104L1056.64 101.64L1017.45 140.181Z" fill="#FF9000"/>
<path d="M1002.47 108.082L1017.26 120.104L1056.64 101.64L1002.47 108.082Z" fill="#0C94D0"/>
<path fill-rule="evenodd" clip-rule="evenodd" d="M92 342.5C92 349.956 85.9558 356 78.5 356C71.0442 356 65 349.956 65 342.5C65 335.044 71.0442 329 78.5 329C85.9558 329 92 335.044 92 342.5ZM95 342.5C95 351.613 87.6127 359 78.5 359C69.3873 359 62 351.613 62 342.5C62 333.387 69.3873 326 78.5 326C87.6127 326 95 333.387 95 342.5ZM78.5 351C83.1944 351 87 347.194 87 342.5C87 337.806 83.1944 334 78.5 334C73.8056 334 70 337.806 70 342.5C70 347.194 73.8056 351 78.5 351Z" fill="#DDDDF5"/>
<path fill-rule="evenodd" clip-rule="evenodd" d="M1110 325.5C1110 332.956 1103.96 339 1096.5 339C1089.04 339 1083 332.956 1083 325.5C1083 318.044 1089.04 312 1096.5 312C1103.96 312 1110 318.044 1110 325.5ZM1113 325.5C1113 334.613 1105.61 342 1096.5 342C1087.39 342 1080 334.613 1080 325.5C1080 316.387 1087.39 309 1096.5 309C1105.61 309 1113 316.387 1113 325.5ZM1096.5 334C1101.19 334 1105 330.194 1105 325.5C1105 320.806 1101.19 317 1096.5 317C1091.81 317 1088 320.806 1088 325.5C1088 330.194 1091.81 334 1096.5 334Z" fill="#DDDDF5"/>
</svg>
