<svg width="414" height="797" viewBox="0 0 414 797" fill="none" xmlns="http://www.w3.org/2000/svg">
<g clip-path="url(#clip0)">
<g clip-path="url(#clip1)">
<path d="M430.136 697.378H-27V697.607H430.136V697.378Z" fill="#212647"/>
<path d="M92.1939 706.083H20.9629V706.311H92.1939V706.083Z" fill="#212647"/>
<path d="M384.332 713.04H349.681V713.269H384.332V713.04Z" fill="#212647"/>
<path d="M110.653 714.576H93.1079V714.805H110.653V714.576Z" fill="#212647"/>
<path d="M197.326 703.605H157.839V703.834H197.326V703.605Z" fill="#212647"/>
<path d="M211.25 703.605H205.463V703.834H211.25V703.605Z" fill="#212647"/>
<path d="M312.095 709.173H272.58V709.401H312.095V709.173Z" fill="#212647"/>
<path d="M114.517 564.167H38.7209C37.4844 564.167 36.4795 563.159 36.4795 561.918V455.015C36.4795 453.775 37.4844 452.767 38.7209 452.767H114.521C115.757 452.767 116.762 453.775 116.762 455.015V561.918C116.758 563.159 115.754 564.167 114.517 564.167ZM38.7209 452.865C37.5394 452.865 36.5776 453.83 36.5776 455.015V561.918C36.5776 563.104 37.5394 564.068 38.7209 564.068H114.521C115.703 564.068 116.664 563.104 116.664 561.918V455.015C116.664 453.83 115.703 452.865 114.521 452.865H38.7209Z" fill="#212647"/>
<path d="M364.201 545.497H271.361C269.846 545.497 268.615 544.269 268.615 542.758V412.564C268.615 411.053 269.846 409.825 271.361 409.825H364.201C365.715 409.825 366.946 411.053 366.946 412.564V542.758C366.946 544.269 365.715 545.497 364.201 545.497ZM271.361 409.945C269.913 409.945 268.735 411.12 268.735 412.564V542.758C268.735 544.202 269.913 545.377 271.361 545.377H364.201C365.648 545.377 366.826 544.202 366.826 542.758V412.564C366.826 411.12 365.648 409.945 364.201 409.945H271.361Z" fill="#212647"/>
<path d="M94.4798 676.478H49.5524C47.5502 676.478 45.8496 675.006 45.5571 673.031L34.3115 596.168C33.9549 593.736 35.8383 591.551 38.3069 591.551H83.2251C85.2273 591.551 86.9279 593.023 87.2205 594.998L98.466 671.861C98.8226 674.293 96.9392 676.478 94.4798 676.478Z" fill="#7979A5"/>
<path d="M54.9007 676.478H33.717C31.7147 676.478 30.0142 675.006 29.7216 673.031L18.4761 596.168C18.1195 593.736 20.0029 591.551 22.4714 591.551H43.6551C45.6574 591.551 47.3579 593.023 47.6505 594.998L58.896 671.861C59.2435 674.293 57.3601 676.478 54.9007 676.478Z" fill="#A3A3CE"/>
<path d="M323.002 572.059H104.673C99.133 572.059 94.2508 576.219 93.7753 581.348L88.2806 640.694C87.8051 645.823 91.9194 649.983 97.4599 649.983H315.788C321.329 649.983 326.211 645.823 326.686 640.694L332.181 581.348C332.657 576.219 328.551 572.059 323.002 572.059Z" fill="#7979A5"/>
<path d="M308.182 572.059H89.8536C84.3131 572.059 79.4309 576.219 78.9555 581.348L73.4607 640.694C72.9853 645.823 77.0995 649.983 82.64 649.983H300.968C306.509 649.983 311.391 645.823 311.866 640.694L317.361 581.348C317.837 576.219 313.732 572.059 308.182 572.059Z" fill="#8F8FBC"/>
<path d="M62.2881 669.895V648.767C62.2881 645.137 65.232 642.193 68.8617 642.193H151.091C154.721 642.193 157.665 645.137 157.665 648.767V669.895C157.665 673.525 154.721 676.469 151.091 676.469H68.8617C65.232 676.478 62.2881 673.525 62.2881 669.895Z" fill="#A3A3CE"/>
<path d="M181.198 670.453V648.209C181.198 644.881 183.895 642.193 187.214 642.193H283.185C286.513 642.193 289.201 644.89 289.201 648.209V670.453C289.201 673.781 286.504 676.469 283.185 676.469H187.214C183.886 676.478 181.198 673.781 181.198 670.453Z" fill="#7979A5"/>
<path d="M157.674 670.453V648.209C157.674 644.881 160.371 642.193 163.69 642.193H259.661C262.989 642.193 265.677 644.89 265.677 648.209V670.453C265.677 673.781 262.98 676.469 259.661 676.469H163.699C160.371 676.478 157.674 673.781 157.674 670.453Z" fill="#A3A3CE"/>
<path d="M322.408 676.478H288.991C286.532 676.478 284.923 674.293 285.59 671.861L306.637 594.998C307.176 593.014 309.069 591.551 311.071 591.551H344.487C346.947 591.551 348.556 593.736 347.889 596.168L326.842 673.031C326.293 675.006 324.41 676.478 322.408 676.478Z" fill="#8F8FBC"/>
<path d="M294.33 676.478H273.146C270.687 676.478 269.078 674.293 269.745 671.861L290.792 594.998C291.331 593.014 293.224 591.551 295.226 591.551H316.41C318.869 591.551 320.478 593.736 319.811 596.168L298.764 673.031C298.216 675.006 296.332 676.478 294.33 676.478Z" fill="#A3A3CE"/>
<path d="M276.612 697.379H273.393L265.695 676.479H273.649L276.612 697.379Z" fill="#A3A3CE"/>
<path d="M317.407 697.379H314.189L306.481 676.479H314.445L317.407 697.379Z" fill="#A3A3CE"/>
<path d="M85.52 697.379H88.7383L96.4364 676.479H88.4731L85.52 697.379Z" fill="#A3A3CE"/>
<path d="M44.7251 697.379H47.9433L55.6415 676.479H47.6873L44.7251 697.379Z" fill="#A3A3CE"/>
<path d="M323.468 426.628H79.6685V513.584H323.468V426.628Z" fill="#7979A5"/>
<path d="M321.228 426.628H77.4282V513.584H321.228V426.628Z" fill="#A3A3CE"/>
<path d="M313.919 506.274V433.946L84.7473 433.946V506.274L313.919 506.274Z" fill="#B0B0D6"/>
<path d="M199.337 491.797C211.314 491.797 221.024 482.088 221.024 470.111C221.024 458.134 211.314 448.424 199.337 448.424C187.36 448.424 177.65 458.134 177.65 470.111C177.65 482.088 187.36 491.797 199.337 491.797Z" fill="#A3A3CE"/>
<path d="M121.953 506.28L137.139 433.942H170.666L155.47 506.28H121.953Z" fill="#C1C1E0"/>
<path d="M169.614 506.28L184.809 433.942H201.568L186.382 506.28H169.614Z" fill="#C1C1E0"/>
<path d="M271.958 506.28L287.153 433.942H303.912L288.726 506.28H271.958Z" fill="#C1C1E0"/>
<path d="M377.365 577.938C371.678 602.587 385.593 628.05 379.906 652.708C378.032 652.625 376.149 652.552 374.274 652.47C372.4 652.388 370.517 652.315 368.643 652.232C378.078 627.739 367.92 602.432 377.365 577.938Z" fill="#A3A3CE"/>
<path d="M362.782 588.626C367.445 612.196 352.487 635.757 357.141 659.327C359.024 659.327 360.898 659.327 362.782 659.327C364.665 659.327 366.539 659.327 368.423 659.327C360.002 635.766 371.202 612.196 362.782 588.626Z" fill="#A3A3CE"/>
<path d="M373.196 569.033C365.736 594.167 379.605 621.293 372.145 646.426C370.106 646.234 368.058 646.042 366.019 645.85C363.98 645.658 361.932 645.466 359.894 645.274C371.432 620.525 361.649 593.783 373.196 569.033Z" fill="#8F8FBC"/>
<path d="M384.176 605.22C386.581 618.815 373.169 629.494 375.573 643.089C377.091 643.364 378.599 643.647 380.117 643.921C381.635 644.196 383.143 644.479 384.661 644.753C379.23 630.619 389.607 619.373 384.176 605.22Z" fill="#8F8FBC"/>
<path d="M370.727 704.236C387.718 704.236 401.492 688.812 401.492 669.786C401.492 650.76 387.718 635.336 370.727 635.336C353.736 635.336 339.962 650.76 339.962 669.786C339.962 688.812 353.736 704.236 370.727 704.236Z" fill="#A3A3CE"/>
<path d="M201.568 738.667C299.471 738.667 378.837 734.033 378.837 728.317C378.837 722.601 299.471 717.968 201.568 717.968C103.666 717.968 24.2998 722.601 24.2998 728.317C24.2998 734.033 103.666 738.667 201.568 738.667Z" fill="#A3A3CE"/>
<path d="M335.851 589.577H117.614C115.261 589.577 113.443 587.648 113.574 585.295L120.926 451.505C121.057 449.152 123.087 447.223 125.44 447.223H343.678C346.031 447.223 347.848 449.152 347.717 451.505L340.365 585.295C340.234 587.658 338.204 589.577 335.851 589.577Z" fill="#9E5200"/>
<path d="M244.042 469.986H222.945C215.906 469.986 210.473 464.24 210.857 457.211L211.069 453.313C211.443 446.506 217.32 440.942 224.137 440.942H245.224C252.263 440.942 257.706 446.698 257.322 453.727L257.11 457.615C256.746 464.412 250.859 469.986 244.042 469.986Z" fill="#263238"/>
<path d="M263.25 728.407H256.494L237.882 443.911H244.638L263.25 728.407Z" fill="#263238"/>
<path d="M212.514 728.407H219.28L237.882 443.911H231.126L212.514 728.407Z" fill="#263238"/>
<path d="M334.69 589.577H116.452C114.099 589.577 112.282 587.648 112.413 585.295L119.765 451.505C119.896 449.152 121.926 447.223 124.279 447.223H342.516C344.869 447.223 346.687 449.152 346.556 451.505L339.204 585.295C339.073 587.658 337.043 589.577 334.69 589.577Z" fill="#FF8B00"/>
<path d="M119.916 585.477C118.028 585.477 116.584 583.942 116.685 582.064L123.683 454.747C123.784 452.858 125.4 451.333 127.289 451.333H339.042C340.931 451.333 342.375 452.869 342.274 454.747L335.275 582.064C335.174 583.952 333.559 585.477 331.67 585.477H119.916Z" fill="#FFBA6E"/>
<path d="M332.984 517.997H269.239C267.634 517.997 266.412 516.694 266.492 515.098L269.674 457.141C269.684 456.918 269.512 456.727 269.29 456.727C269.068 456.727 268.866 456.908 268.856 457.141L265.674 515.098C265.583 516.704 264.22 517.997 262.614 517.997H196.386C194.78 517.997 193.558 516.694 193.639 515.098L196.82 457.141C196.83 456.918 196.659 456.727 196.436 456.727C196.214 456.727 196.012 456.908 196.002 457.141L192.821 515.098C192.73 516.704 191.367 517.997 189.761 517.997H126.017C125.795 517.997 125.593 518.178 125.582 518.411C125.572 518.633 125.744 518.825 125.966 518.825H189.71C191.316 518.825 192.538 520.127 192.457 521.723L189.276 579.681C189.266 579.903 189.438 580.095 189.66 580.095C189.882 580.095 190.084 579.913 190.094 579.681L193.275 521.723C193.366 520.117 194.73 518.825 196.335 518.825H262.574C264.18 518.825 265.402 520.127 265.321 521.723L262.14 579.681C262.13 579.903 262.301 580.095 262.524 580.095C262.746 580.095 262.948 579.913 262.958 579.681L266.139 521.723C266.23 520.117 267.593 518.825 269.199 518.825H332.943C333.165 518.825 333.367 518.643 333.377 518.411C333.388 518.178 333.216 517.997 332.984 517.997Z" fill="#FF8B00"/>
<path opacity="0.4" d="M229.056 467.229H203.455L202.031 493.275L227.592 493.951L229.056 467.229Z" fill="#263238"/>
<path d="M226.289 492.84C217.725 492.426 209.161 492.002 200.587 491.588C202.011 482.741 202.9 473.864 203.263 465.018C211.877 465.432 220.492 465.856 229.106 466.27C228.702 475.116 227.753 483.983 226.289 492.84Z" fill="white"/>
<path opacity="0.4" d="M259.928 484.63L234.287 486.579L234.853 512.543L260.504 511.271L259.928 484.63Z" fill="#263238"/>
<path d="M259.11 510.261C250.506 510.503 241.891 510.735 233.287 510.978C234.034 502.081 234.247 493.204 233.933 484.387C242.598 484.145 251.253 483.903 259.908 483.66C260.17 492.476 259.898 501.364 259.11 510.261Z" fill="#407BFF"/>
<path opacity="0.4" d="M185.054 531.983L137.791 530.176L133.55 572.228L180.702 575.136L185.054 531.983Z" fill="#263238"/>
<path d="M178.349 573.227C162.565 571.945 146.78 570.672 130.985 569.39C134.156 555.16 136.348 540.87 137.55 526.57C153.435 527.853 169.311 529.135 185.186 530.418C183.904 544.718 181.611 559.008 178.349 573.227Z" fill="white"/>
<g opacity="0.3">
<path opacity="0.3" d="M136.408 473.117C134.944 473.117 133.813 471.915 133.894 470.451C133.975 468.986 135.237 467.785 136.701 467.785C138.166 467.785 139.297 468.986 139.216 470.451C139.135 471.915 137.873 473.117 136.408 473.117Z" fill="#263238"/>
<path opacity="0.8" d="M178.167 473.117H145.376C143.912 473.117 142.781 471.915 142.861 470.451C142.942 468.986 144.205 467.785 145.669 467.785H178.46C179.925 467.785 181.056 468.986 180.975 470.451C180.904 471.915 179.632 473.117 178.167 473.117Z" fill="#263238"/>
<path opacity="0.3" d="M135.772 484.731C134.307 484.731 133.176 483.529 133.257 482.065C133.338 480.6 134.6 479.398 136.064 479.398C137.529 479.398 138.66 480.6 138.579 482.065C138.498 483.539 137.236 484.731 135.772 484.731Z" fill="#263238"/>
<path opacity="0.8" d="M183.338 484.731H144.73C143.265 484.731 142.134 483.529 142.215 482.065C142.296 480.6 143.558 479.398 145.023 479.398H183.631C185.095 479.398 186.226 480.6 186.145 482.065C186.075 483.539 184.802 484.731 183.338 484.731Z" fill="#263238"/>
<path opacity="0.3" d="M135.126 496.355C133.662 496.355 132.531 495.153 132.611 493.689C132.692 492.224 133.955 491.022 135.419 491.022C136.883 491.022 138.014 492.224 137.934 493.689C137.863 495.153 136.59 496.355 135.126 496.355Z" fill="#263238"/>
<path opacity="0.8" d="M162.888 496.355H144.104C142.639 496.355 141.508 495.153 141.589 493.689C141.67 492.224 142.932 491.022 144.397 491.022H163.191C164.655 491.022 165.786 492.224 165.705 493.689C165.614 495.153 164.352 496.355 162.888 496.355Z" fill="#263238"/>
<path opacity="0.8" d="M180.288 507.978H161.494C160.03 507.978 158.899 506.776 158.98 505.312C159.06 503.848 160.323 502.646 161.787 502.646H180.581C182.046 502.646 183.177 503.848 183.096 505.312C183.015 506.776 181.753 507.978 180.288 507.978Z" fill="#263238"/>
<path opacity="0.3" d="M134.489 507.978C133.025 507.978 131.894 506.776 131.975 505.312C132.056 503.848 133.318 502.646 134.782 502.646C136.247 502.646 137.378 503.848 137.297 505.312C137.216 506.776 135.954 507.978 134.489 507.978Z" fill="#263238"/>
<path opacity="0.8" d="M152.132 507.978H143.457C141.993 507.978 140.862 506.776 140.943 505.312C141.023 503.848 142.286 502.646 143.75 502.646H152.425C153.889 502.646 155.02 503.848 154.94 505.312C154.869 506.776 153.607 507.978 152.132 507.978Z" fill="#263238"/>
</g>
<path d="M216.018 542.557H203.304L201.557 574.379H214.271L216.018 542.557Z" fill="#407BFF"/>
<path d="M235.318 549.111H222.594L221.21 574.379H233.924L235.318 549.111Z" fill="#407BFF"/>
<path d="M255.889 532.166H243.174L240.861 574.379H253.576L255.889 532.166Z" fill="#407BFF"/>
<path d="M206.142 560.513C204.879 560.513 203.617 560.483 202.324 560.412C200.103 560.301 197.224 560.018 194.629 558.857C194.215 558.675 194.033 558.19 194.215 557.776C194.397 557.362 194.881 557.181 195.295 557.362C197.638 558.413 200.325 558.675 202.405 558.776C217.665 559.564 231.025 555.585 244.477 546.274C247.678 544.052 252.475 539.942 255.414 535.67C255.667 535.296 256.182 535.205 256.555 535.458C256.929 535.71 257.02 536.225 256.767 536.599C253.707 541.043 248.9 545.203 245.416 547.617C232.783 556.363 220.209 560.513 206.142 560.513Z" fill="white"/>
<path d="M258.656 541.951C258.555 541.951 258.444 541.931 258.343 541.891C257.929 541.719 257.727 541.234 257.899 540.82C259.06 538.013 259.302 534.852 258.606 531.984C255.404 534.135 252.001 535.942 248.446 537.376C248.022 537.548 247.547 537.346 247.376 536.922C247.204 536.498 247.406 536.023 247.83 535.852C251.617 534.327 255.243 532.357 258.606 529.994C258.818 529.843 259.09 529.802 259.333 529.883C259.575 529.964 259.777 530.156 259.858 530.398C261.039 533.892 260.878 537.912 259.424 541.436C259.282 541.759 258.979 541.951 258.656 541.951Z" fill="white"/>
<path d="M325.621 510.584H278.318C277.52 510.584 276.773 510.271 276.237 509.705C275.692 509.13 275.419 508.382 275.47 507.574L277.671 467.583C277.762 465.947 279.166 464.614 280.802 464.614H328.105C328.903 464.614 329.65 464.927 330.186 465.492C330.731 466.068 331.004 466.815 330.953 467.623L328.752 507.615C328.661 509.251 327.257 510.584 325.621 510.584ZM280.792 465.422C279.58 465.422 278.54 466.411 278.479 467.613L276.278 507.605C276.247 508.18 276.439 508.726 276.823 509.13C277.207 509.534 277.732 509.756 278.308 509.756H325.611C326.823 509.756 327.863 508.766 327.923 507.564L330.125 467.573C330.155 466.997 329.963 466.452 329.58 466.048C329.196 465.644 328.671 465.422 328.095 465.422H280.792Z" fill="#407BFF"/>
<path d="M330.095 476.076H277.621C277.399 476.076 277.207 475.894 277.207 475.662C277.207 475.44 277.389 475.248 277.621 475.248H330.095C330.317 475.248 330.509 475.43 330.509 475.662C330.509 475.894 330.327 476.076 330.095 476.076Z" fill="#407BFF"/>
<path d="M288.124 510.584C288.114 510.584 288.104 510.584 288.104 510.584C287.882 510.574 287.7 510.382 287.72 510.15L289.619 475.642C289.629 475.419 289.821 475.238 290.053 475.258C290.275 475.268 290.457 475.46 290.437 475.692L288.538 510.2C288.518 510.412 288.336 510.584 288.124 510.584Z" fill="#407BFF"/>
<path d="M324.087 480.176H295.598C295.375 480.176 295.184 479.994 295.184 479.762C295.184 479.54 295.365 479.348 295.598 479.348H324.087C324.309 479.348 324.501 479.53 324.501 479.762C324.501 479.994 324.319 480.176 324.087 480.176Z" fill="#407BFF"/>
<path d="M319.794 485.206H295.324C295.102 485.206 294.91 485.024 294.91 484.792C294.91 484.569 295.092 484.377 295.324 484.377H319.794C320.016 484.377 320.208 484.559 320.208 484.792C320.208 485.024 320.026 485.206 319.794 485.206Z" fill="#407BFF"/>
<path d="M309.282 490.396H295.032C294.81 490.396 294.618 490.214 294.618 489.982C294.618 489.75 294.8 489.568 295.032 489.568H309.282C309.504 489.568 309.696 489.75 309.696 489.982C309.696 490.214 309.514 490.396 309.282 490.396Z" fill="#407BFF"/>
<path d="M311.866 500.525H294.476C294.253 500.525 294.062 500.344 294.062 500.111C294.062 499.879 294.243 499.697 294.476 499.697H311.866C312.088 499.697 312.28 499.879 312.28 500.111C312.28 500.344 312.098 500.525 311.866 500.525Z" fill="#407BFF"/>
<path d="M308.443 505.727H294.193C293.971 505.727 293.779 505.545 293.779 505.312C293.779 505.09 293.961 504.898 294.193 504.898H308.443C308.665 504.898 308.857 505.08 308.857 505.312C308.847 505.535 308.665 505.727 308.443 505.727Z" fill="#407BFF"/>
<path d="M316.784 505.727H312.22C311.998 505.727 311.806 505.545 311.806 505.312C311.806 505.09 311.987 504.898 312.22 504.898H316.784C317.007 504.898 317.198 505.08 317.198 505.312C317.188 505.535 317.007 505.727 316.784 505.727Z" fill="#407BFF"/>
<path d="M321.441 495.426H294.77C294.547 495.426 294.355 495.244 294.355 495.012C294.355 494.79 294.537 494.598 294.77 494.598H321.441C321.663 494.598 321.855 494.779 321.855 495.012C321.845 495.244 321.663 495.426 321.441 495.426Z" fill="#407BFF"/>
<path d="M296.567 568.764C290.387 568.764 285.327 566.936 282.176 563.542C278.823 559.917 277.43 554.211 278.359 547.889C278.924 544.021 280.197 540.769 282.116 538.235C284.045 535.69 286.842 533.599 290.427 532.004C298.324 528.489 307.474 528.61 314.897 532.337C318.219 534.003 320.3 536.114 321.087 538.608C321.219 539.042 320.986 539.497 320.552 539.638C320.118 539.77 319.663 539.537 319.522 539.103C318.876 537.053 317.068 535.265 314.16 533.811C307.171 530.307 298.557 530.196 291.094 533.518C287.771 534.993 285.186 536.922 283.429 539.244C281.671 541.557 280.51 544.546 279.985 548.142C279.126 553.969 280.369 559.18 283.388 562.442C287.589 566.976 294.527 567.299 298.294 567.087C305.303 566.703 311.322 564.249 315.26 560.2C319.865 555.453 321.158 548.364 318.26 543.698C317.694 542.799 316.492 541.254 314.725 541.072C314.271 541.032 313.947 540.628 313.988 540.174C314.028 539.719 314.432 539.396 314.887 539.436C316.715 539.618 318.411 540.82 319.653 542.83C322.936 548.111 321.552 556.069 316.432 561.341C312.21 565.693 305.798 568.309 298.375 568.723C297.769 568.743 297.163 568.764 296.567 568.764Z" fill="white"/>
<path d="M82.9501 517.914L80.3169 522.513L77.7296 527.203C76.029 530.339 74.4016 533.502 72.9205 536.675C72.1799 538.265 71.4759 539.856 70.8359 541.447L70.7171 541.74C70.7079 541.767 70.6897 541.785 70.6805 541.804C70.6348 541.849 70.6257 541.895 70.5982 541.932C70.5525 542.014 70.5159 542.087 70.4702 542.197C70.4062 542.407 70.4245 542.755 70.5799 543.221C70.8725 544.172 71.7319 545.406 72.7833 546.558C73.8165 547.719 75.1513 548.898 76.349 549.941L74.2096 554.503C73.1216 554.192 72.2165 553.881 71.2565 553.461C70.3057 553.058 69.3823 552.574 68.468 552.025C66.6486 550.901 64.8292 549.52 63.3115 547.244C62.5801 546.11 61.9492 544.702 61.7024 543.075C61.5927 542.261 61.5469 541.42 61.6567 540.588C61.7024 540.176 61.7664 539.756 61.8669 539.372L62.0132 538.777L62.1229 538.421C62.7081 536.556 63.3206 534.7 64.0338 532.917C65.4234 529.324 66.9869 525.859 68.6965 522.485C69.5468 520.794 70.4337 519.13 71.3662 517.484C72.3079 515.829 73.213 514.229 74.2919 512.556L82.9501 517.914Z" fill="#FFC3BD"/>
<path d="M74.0631 549.42L78.8631 548.167L79.1373 555.92C79.1373 555.92 75.3797 556.478 73.0757 554.183L74.0631 549.42Z" fill="#FFC3BD"/>
<path d="M85.6741 546.869L84.5861 553.68L79.1371 555.929L78.8628 548.176L85.6741 546.869Z" fill="#FFC3BD"/>
<path d="M105.541 481.361C105.651 481.892 106.017 482.266 106.364 482.193C106.712 482.12 106.904 481.636 106.794 481.105C106.684 480.575 106.318 480.2 105.971 480.273C105.633 480.346 105.441 480.831 105.541 481.361Z" fill="#263238"/>
<path d="M105.972 482.275C105.972 482.275 107.8 485.091 109.428 486.298C108.669 487.368 106.987 487.286 106.987 487.286L105.972 482.275Z" fill="#ED847E"/>
<path d="M103 478.81C102.927 478.81 102.845 478.783 102.781 478.728C102.653 478.609 102.644 478.408 102.762 478.28C103.96 476.991 105.405 477.22 105.469 477.229C105.642 477.256 105.761 477.421 105.725 477.594C105.697 477.768 105.533 477.887 105.359 477.86C105.313 477.85 104.18 477.686 103.229 478.719C103.174 478.774 103.092 478.81 103 478.81Z" fill="#263238"/>
<path d="M90.4197 488.831C91.3797 493.74 92.3488 502.746 88.9111 506.028C88.9111 506.028 90.2551 511.011 99.3887 511.011C109.427 511.011 104.189 506.028 104.189 506.028C98.7121 504.721 98.8493 500.652 99.8093 496.84L90.4197 488.831Z" fill="#FFC3BD"/>
<path d="M86.927 506.943C86.1956 505.58 85.3819 504.017 87.055 503.523C88.8927 502.984 100.714 501.987 104.179 502.993C103.11 504.895 104.92 507.226 104.92 507.226L86.927 506.943Z" fill="#263238"/>
<path d="M57.1859 736.013C57.8625 736.16 58.5299 736.196 58.8591 735.922C58.9962 735.803 59.1333 735.584 59.0145 735.181C58.9505 734.971 58.8133 734.816 58.6031 734.715C57.6979 734.286 55.6134 735.136 55.522 735.172C55.4671 735.2 55.4214 735.255 55.4214 735.319C55.4214 735.383 55.458 735.437 55.5128 735.465C55.8328 735.611 56.5094 735.867 57.1859 736.013ZM58.2739 734.935C58.3379 734.953 58.4019 734.971 58.4568 734.999C58.5848 735.063 58.6579 735.145 58.6945 735.273C58.7768 735.556 58.6762 735.648 58.6396 735.675C58.2831 735.986 56.9391 735.703 55.9882 735.319C56.6465 735.099 57.6796 734.807 58.2739 734.935Z" fill="#407BFF"/>
<path d="M55.5489 735.465C55.5763 735.474 55.6037 735.474 55.6312 735.465C56.39 735.246 58.0174 734.094 58.0357 733.326C58.0357 733.189 57.99 732.942 57.6243 732.814C57.3866 732.731 57.1488 732.75 56.9203 732.869C56.0243 733.326 55.4575 735.191 55.43 735.264C55.4117 735.319 55.43 735.383 55.4666 735.419C55.494 735.447 55.5214 735.465 55.5489 735.465ZM57.4506 733.097C57.478 733.106 57.4963 733.106 57.5237 733.115C57.7248 733.189 57.7157 733.28 57.7157 733.326C57.7066 733.774 56.6369 734.679 55.8506 735.044C56.0517 734.505 56.4997 733.445 57.0757 733.152C57.1946 733.088 57.3226 733.07 57.4506 733.097Z" fill="#407BFF"/>
<path d="M106.775 737.138C107.635 737.138 108.467 737.019 108.75 736.636C108.851 736.498 108.924 736.27 108.741 735.941C108.641 735.758 108.467 735.63 108.238 735.566C107.123 735.264 104.773 736.599 104.673 736.654C104.618 736.69 104.581 736.754 104.59 736.818C104.599 736.882 104.654 736.937 104.718 736.946C105.139 737.038 105.971 737.138 106.775 737.138ZM107.836 735.84C107.946 735.84 108.055 735.849 108.147 735.877C108.293 735.913 108.394 735.986 108.458 736.096C108.567 736.297 108.531 736.389 108.485 736.444C108.174 736.873 106.474 736.892 105.23 736.709C105.852 736.398 107.05 735.84 107.836 735.84Z" fill="#407BFF"/>
<path d="M104.746 736.955C104.764 736.955 104.792 736.946 104.81 736.937C105.624 736.571 107.224 735.117 107.105 734.359C107.077 734.176 106.949 733.956 106.511 733.911C106.181 733.874 105.889 733.966 105.633 734.185C104.783 734.889 104.6 736.699 104.591 736.772C104.581 736.827 104.609 736.882 104.655 736.919C104.682 736.946 104.709 736.955 104.746 736.955ZM106.383 734.231C106.41 734.231 106.447 734.231 106.474 734.24C106.757 734.267 106.776 734.377 106.785 734.423C106.858 734.88 105.77 736.023 104.938 736.516C105.02 735.986 105.267 734.907 105.825 734.441C105.999 734.295 106.181 734.231 106.383 734.231Z" fill="#407BFF"/>
<path d="M97.3589 736.791H104.079L104.746 721.239H98.0263L97.3589 736.791Z" fill="#FFC3BD"/>
<path d="M48.061 733.682L54.6255 735.109L61.2174 720.617L54.6529 719.2L48.061 733.682Z" fill="#FFC3BD"/>
<path d="M55.2566 734.45L47.8784 732.85C47.6133 732.795 47.339 732.932 47.2201 733.179L44.6602 738.738C44.395 739.314 44.7424 739.99 45.3642 740.109C47.9515 740.621 49.2315 740.74 52.4772 741.444C54.4703 741.874 58.9777 742.971 61.7296 743.574C64.4267 744.16 65.4324 741.526 64.3627 741.033C59.5445 738.829 57.5331 736.891 56.2257 735.09C55.9971 734.752 55.6497 734.532 55.2566 734.45Z" fill="#263238"/>
<path d="M104.033 736.013H96.7006C96.4264 736.013 96.1886 736.205 96.1246 736.47L94.799 742.441C94.6618 743.062 95.1281 743.647 95.7681 743.638C98.4103 743.593 102.241 743.437 105.56 743.437C109.446 743.437 112.81 743.647 117.363 743.647C120.124 743.647 120.883 740.859 119.731 740.603C114.474 739.451 110.186 739.332 105.642 736.534C105.158 736.233 104.609 736.013 104.033 736.013Z" fill="#263238"/>
<path d="M76.8792 507.546C70.5799 508.99 65.396 525.063 65.396 525.063L78.0404 534.7C78.0404 534.7 82.6757 530.329 84.742 522.284C86.9088 513.863 83.3157 506.074 76.8792 507.546Z" fill="#407BFF"/>
<path opacity="0.2" d="M76.8792 507.546C70.5799 508.99 65.396 525.063 65.396 525.063L78.0404 534.7C78.0404 534.7 82.6757 530.329 84.742 522.284C86.9088 513.863 83.3157 506.074 76.8792 507.546Z" fill="#FAFAFA"/>
<path opacity="0.2" d="M82.2736 519.367C78.8542 522.75 77.7388 528.912 77.4736 534.27L78.0313 534.7C78.0313 534.7 82.6758 530.32 84.7421 522.284C84.8701 521.781 84.9798 521.278 85.0712 520.784L82.2736 519.367Z" fill="black"/>
<path d="M114.51 507.893C114.51 507.893 121.66 515.966 114.904 565.949C104.079 565.949 84.2479 565.949 78.9817 565.949C78.7349 560.436 82.2 533.529 76.8789 507.546C76.8789 507.546 83.0411 506.311 88.9016 506.028C93.4913 505.809 100.138 505.662 104.17 506.028C109.5 506.512 114.51 507.893 114.51 507.893Z" fill="#407BFF"/>
<path opacity="0.2" d="M114.51 507.893C114.51 507.893 121.66 515.966 114.904 565.949C104.079 565.949 84.2479 565.949 78.9817 565.949C78.7349 560.436 82.2 533.529 76.8789 507.546C76.8789 507.546 83.0411 506.311 88.9016 506.028C93.4913 505.809 100.138 505.662 104.17 506.028C109.5 506.512 114.51 507.893 114.51 507.893Z" fill="#FAFAFA"/>
<path opacity="0.2" d="M117.646 523.171L117.509 523.052L109.344 525.008C108.878 530.53 114.556 537.132 117.481 540.149C117.884 533.1 117.875 527.541 117.646 523.171Z" fill="black"/>
<path opacity="0.2" d="M104.747 721.248L104.399 729.266H97.6792L98.0266 721.248H104.747Z" fill="black"/>
<path opacity="0.2" d="M54.6444 719.2L61.218 720.626L57.8169 728.087L51.2524 726.67L54.6444 719.2Z" fill="black"/>
<path d="M87.6125 483.839C89.3405 490.275 90.0171 494.134 93.9942 496.812C99.9735 500.835 107.416 496.218 107.644 489.398C107.855 483.254 104.993 473.754 98.0901 472.456C91.2788 471.176 85.8846 477.402 87.6125 483.839Z" fill="#FFC3BD"/>
<path d="M90.5657 494.335C93.2994 495.898 103.283 490.668 101.235 482.732C101.235 482.732 105.039 478.161 104.609 473.114C104.179 468.068 100.714 466.148 97.0296 467.226C93.784 468.177 93.8754 469.96 93.8754 469.96C93.8754 469.96 78.5248 471.77 81.807 478.006C75.5534 484.817 87.1464 492.387 90.5657 494.335Z" fill="#263238"/>
<path d="M82.2365 478.527C82.2365 478.527 80.408 475.364 77.7383 477.137C78.9908 477.155 81.0479 477.366 82.2365 478.527Z" fill="#263238"/>
<path d="M104.115 476.442C104.115 476.442 107.461 468.89 102.241 466.458C104.005 468.909 104.965 472.858 104.115 476.442Z" fill="#263238"/>
<path d="M98.5657 484.113C99.0045 485.804 100.111 487.258 101.272 488.117C103.018 489.416 104.326 488.136 104.198 486.161C104.088 484.378 103.046 481.562 101.116 481.032C99.2239 480.511 98.0628 482.175 98.5657 484.113Z" fill="#FFC3BD"/>
<path d="M102.168 565.95C102.168 565.95 94.5426 617.277 90.3644 636.513C85.7839 657.569 61.2082 727.246 61.2082 727.246L49.1855 724.64C49.1855 724.64 66.3647 667.864 70.2138 638.424C73.1669 615.814 78.9909 565.959 78.9909 565.959H102.168V565.95Z" fill="#263238"/>
<path d="M64.0793 723.223C64.1341 723.232 61.8393 727.575 61.8393 727.575L48.3081 724.649L49.4509 720.581L64.0793 723.223Z" fill="#407BFF"/>
<path opacity="0.3" d="M97.3494 584.235C88.5358 585.963 89.4683 618.831 90.5289 635.736C93.0706 623.787 96.7917 600.793 99.3333 584.473C98.7482 584.18 98.0899 584.089 97.3494 584.235Z" fill="black"/>
<path d="M114.904 565.95C114.904 565.95 115.827 616.171 115.096 636.65C114.337 657.953 106.895 727.712 106.895 727.712H95.5119C95.5119 727.712 95.0913 659.196 94.5885 638.278C94.0399 615.467 91.2788 565.95 91.2788 565.95H114.904Z" fill="#263238"/>
<path opacity="0.4" d="M178.071 530.54H154.894L153.596 554.119L176.745 554.731L178.071 530.54Z" fill="#263238"/>
<path d="M165.893 545.707C158.158 544.757 150.414 543.797 142.68 542.846C144.554 534.983 145.953 527.065 146.867 519.139C154.648 520.099 162.437 521.059 170.218 522.009C169.258 529.936 167.813 537.854 165.893 545.707Z" fill="#407BFF"/>
<path d="M109.089 723.177C109.144 723.177 108.449 727.904 108.449 727.904H94.6068L94.2319 723.689L109.089 723.177Z" fill="#407BFF"/>
<path d="M117.821 514.019C118.854 515.628 120.033 517.429 121.203 519.102C122.401 520.785 123.599 522.467 124.861 524.085C127.356 527.322 130.008 530.439 132.86 533.018C133.564 533.667 134.287 534.279 135.018 534.837L135.567 535.248C135.521 535.221 135.347 535.157 135.247 535.139C135.009 535.093 134.89 535.13 134.954 535.166C135.091 535.239 135.759 535.12 136.463 534.819C137.176 534.517 137.98 534.106 138.776 533.621C141.994 531.628 145.313 528.839 148.43 526.133L152.353 529.306C149.921 533.228 147.242 536.775 143.557 540.03C142.625 540.835 141.619 541.63 140.412 542.343C139.196 543.038 137.825 543.76 135.795 544.053C134.79 544.181 133.564 544.163 132.303 543.76C131.69 543.577 131.032 543.248 130.529 542.937L129.734 542.435C128.691 541.758 127.695 541.045 126.744 540.295C122.959 537.296 119.805 533.923 116.897 530.412C115.462 528.638 114.072 526.846 112.792 524.981C111.485 523.098 110.269 521.297 109.053 519.203L117.821 514.019Z" fill="#FFC3BD"/>
<path d="M104.627 518.051C102.478 527.057 118.771 535.87 118.771 535.87L129.358 523.473C129.358 523.473 124.54 516.168 118.542 510.417C111.146 503.313 106.263 511.194 104.627 518.051Z" fill="#407BFF"/>
<path opacity="0.2" d="M104.627 518.051C102.478 527.057 118.771 535.87 118.771 535.87L129.358 523.473C129.358 523.473 124.54 516.168 118.542 510.417C111.146 503.313 106.263 511.194 104.627 518.051Z" fill="#FAFAFA"/>
<path d="M147.369 528.007L149.865 519.989L156.439 523.262C156.439 523.262 155.479 529.114 150.697 530.129L147.369 528.007Z" fill="#FFC3BD"/>
<path d="M152.508 517.768L158.433 519.395L156.449 523.262L149.875 519.989L152.508 517.768Z" fill="#FFC3BD"/>
</g>
</g>
<defs>
<clipPath id="clip0">
<rect width="414" height="797" fill="white"/>
</clipPath>
<clipPath id="clip1">
<rect x="-27" y="398" width="457.136" height="340.667" fill="white"/>
</clipPath>
</defs>
</svg>
