<svg width="411" height="1108" viewBox="0 0 411 1108" fill="none" xmlns="http://www.w3.org/2000/svg">
<g clip-path="url(#clip0)">
<rect width="411" height="1108" fill="#F7F7FC"/>
<path d="M133.341 229.9C182.685 239.197 203.562 327.337 212.303 368.457C218.858 248.97 367.248 278.767 420.287 320.781C473.325 362.795 546.825 248.97 576.721 231.688V-104.721H-605.925C-607.514 -49.4973 -622.135 61.9637 -610.693 85.0863C-596.39 113.989 -439.955 148.852 -340.433 101.177C-240.911 53.5014 -86.7318 24.5982 -43.0582 147.064C0.615295 269.53 71.6606 218.279 133.341 229.9Z" fill="#F7F7FC" stroke="#A5AAD1"/>
<path d="M133.341 217.981C182.685 227.278 203.562 315.418 212.303 356.538C218.858 237.051 367.248 237.051 420.287 279.065C473.325 321.079 546.825 207.254 576.721 189.972V-116.64H-605.925C-607.514 -61.4162 -622.135 50.0448 -610.693 73.1673C-596.39 102.07 -439.955 136.933 -340.433 89.2577C-240.911 41.5824 -86.7318 21.0224 -43.0582 143.488C0.615295 265.954 71.6606 206.36 133.341 217.981Z" fill="#1A2749"/>
<path opacity="0.2" d="M133.341 203.083C182.685 212.379 203.562 300.519 212.303 341.639C218.858 222.153 367.248 251.95 420.287 293.964C473.325 335.978 546.825 222.153 576.721 204.871V-131.539H-605.925C-607.514 -76.3146 -622.135 35.1463 -610.693 58.2689C-596.39 87.1721 -439.955 122.035 -340.433 74.3593C-240.911 26.684 -86.7318 -2.21921 -43.0582 120.247C0.615295 242.713 71.6606 191.462 133.341 203.083Z" stroke="#A5AAD1"/>
<path opacity="0.15" d="M188.791 185.445C243.371 195.725 266.465 293.19 276.133 338.66C283.384 206.533 447.52 239.482 506.188 285.941C564.855 332.399 646.154 206.533 679.223 187.422V-184.577H-628.926C-630.684 -123.511 -646.856 -0.258057 -634.199 25.3107C-618.379 57.2716 -445.343 95.8225 -335.26 43.1034C-225.176 -9.61569 -54.6356 -41.5766 -6.32745 93.8455C41.9808 229.268 120.565 172.595 188.791 185.445Z" stroke="#A5AAD1"/>
<path opacity="0.05" d="M221.568 130.022C276.148 140.302 299.241 237.767 308.909 283.237C316.16 151.11 480.297 184.059 538.964 230.518C597.632 276.977 678.931 151.11 712 131.999V-240H-596.149C-597.907 -178.934 -614.079 -55.6809 -601.423 -30.1121C-585.602 1.84882 -412.567 40.3997 -302.483 -12.3194C-192.399 -65.0385 -21.8588 -96.9995 26.4493 38.4227C74.7576 173.845 153.342 117.172 221.568 130.022Z" stroke="#A5AAD1"/>
<path d="M375.448 421.794H36V421.964H375.448V421.794Z" fill="#EBEBEB"/>
<path d="M124.508 428.254H71.6148V428.424H124.508V428.254Z" fill="#EBEBEB"/>
<path d="M341.435 433.418H315.705V433.588H341.435V433.418Z" fill="#EBEBEB"/>
<path d="M138.214 434.559H125.186V434.728H138.214V434.559Z" fill="#EBEBEB"/>
<path d="M202.574 426.416H173.252V426.585H202.574V426.416Z" fill="#EBEBEB"/>
<path d="M212.913 426.416H208.616V426.585H212.913V426.416Z" fill="#EBEBEB"/>
<path d="M287.795 430.548H258.454V430.717H287.795V430.548Z" fill="#EBEBEB"/>
<path d="M182.06 351.943H50.9724C48.8339 351.943 47.0959 350.205 47.0959 348.068V163.875C47.0959 161.737 48.8339 160 50.9724 160H182.067C184.206 160 185.944 161.737 185.944 163.875V348.068C185.937 350.205 184.199 351.943 182.06 351.943ZM50.9724 160.17C48.929 160.17 47.2657 161.832 47.2657 163.875V348.068C47.2657 350.11 48.929 351.773 50.9724 351.773H182.067C184.111 351.773 185.774 350.11 185.774 348.068V163.875C185.774 161.832 184.111 160.17 182.067 160.17H50.9724Z" fill="#EBEBEB"/>
<path d="M343.75 391.528H212.655C210.517 391.528 208.779 389.791 208.779 387.653V203.46C208.779 201.323 210.517 199.585 212.655 199.585H343.75C345.889 199.585 347.626 201.323 347.626 203.46V387.653C347.626 389.791 345.889 391.528 343.75 391.528ZM212.655 199.755C210.612 199.755 208.949 201.418 208.949 203.46V387.653C208.949 389.696 210.612 391.358 212.655 391.358H343.75C345.793 391.358 347.457 389.696 347.457 387.653V203.46C347.457 201.418 345.793 199.755 343.75 199.755H212.655Z" fill="#EBEBEB"/>
<path d="M126.205 406.281H92.8439C91.3571 406.281 90.0944 405.189 89.8771 403.723L81.5267 346.673C81.2619 344.868 82.6605 343.246 84.4935 343.246H117.848C119.334 343.246 120.597 344.339 120.814 345.804L129.165 402.855C129.43 404.66 128.031 406.281 126.205 406.281Z" fill="#F0F0F0"/>
<path d="M96.8155 406.281H81.0855C79.5987 406.281 78.3359 405.189 78.1187 403.723L69.7683 346.673C69.5035 344.868 70.902 343.246 72.7351 343.246H88.4651C89.9518 343.246 91.2146 344.339 91.4318 345.804L99.7822 402.855C100.04 404.66 98.6417 406.281 96.8155 406.281Z" fill="#FAFAFA"/>
<path d="M295.895 328.778H133.774C129.66 328.778 126.035 331.866 125.682 335.673L121.602 379.721C121.249 383.528 124.304 386.616 128.418 386.616H290.538C294.652 386.616 298.278 383.528 298.631 379.721L302.711 335.673C303.064 331.866 300.016 328.778 295.895 328.778Z" fill="#E0E0E0"/>
<path d="M284.89 328.778H122.77C118.655 328.778 115.03 331.866 114.677 335.673L110.597 379.721C110.244 383.528 113.299 386.616 117.413 386.616H279.533C283.647 386.616 287.273 383.528 287.626 379.721L291.706 335.673C292.059 331.866 289.011 328.778 284.89 328.778Z" fill="#E6E6E6"/>
<path d="M102.301 401.396V385.713C102.301 383.019 104.487 380.834 107.182 380.834H168.242C170.937 380.834 173.123 383.019 173.123 385.713V401.396C173.123 404.09 170.937 406.275 168.242 406.275H107.182C104.487 406.281 102.301 404.09 102.301 401.396Z" fill="#EBEBEB"/>
<path d="M190.598 401.81V385.299C190.598 382.829 192.601 380.834 195.065 380.834H266.329C268.8 380.834 270.796 382.836 270.796 385.299V401.81C270.796 404.28 268.793 406.275 266.329 406.275H195.065C192.594 406.281 190.598 404.28 190.598 401.81Z" fill="#E0E0E0"/>
<path d="M173.13 401.81V385.299C173.13 382.829 175.133 380.834 177.597 380.834H248.861C251.332 380.834 253.328 382.836 253.328 385.299V401.81C253.328 404.28 251.325 406.275 248.861 406.275H177.604C175.133 406.281 173.13 404.28 173.13 401.81Z" fill="#EBEBEB"/>
<path d="M295.453 406.281H270.64C268.814 406.281 267.619 404.66 268.114 402.855L283.742 345.804C284.143 344.332 285.548 343.246 287.035 343.246H311.849C313.675 343.246 314.87 344.868 314.374 346.673L298.746 403.723C298.339 405.189 296.94 406.281 295.453 406.281Z" fill="#F0F0F0"/>
<path d="M274.605 406.281H258.875C257.048 406.281 255.853 404.66 256.349 402.855L271.977 345.804C272.378 344.332 273.783 343.246 275.27 343.246H291C292.826 343.246 294.021 344.868 293.525 346.673L277.897 403.723C277.49 405.189 276.091 406.281 274.605 406.281Z" fill="#FAFAFA"/>
<path d="M261.448 421.795H259.058L253.342 406.282H259.248L261.448 421.795Z" fill="#E0E0E0"/>
<path d="M291.74 421.795H289.35L283.627 406.282H289.54L291.74 421.795Z" fill="#E0E0E0"/>
<path d="M119.552 421.795H121.941L127.658 406.282H121.745L119.552 421.795Z" fill="#E0E0E0"/>
<path d="M89.2594 421.795H91.6491L97.3654 406.282H91.459L89.2594 421.795Z" fill="#E0E0E0"/>
<path d="M296.241 228.569H115.207V293.111H296.241V228.569Z" fill="#E0E0E0"/>
<path d="M294.578 228.569H113.543V293.111H294.578V228.569Z" fill="#F0F0F0"/>
<path d="M289.15 287.685V234L118.978 234V287.685H289.15Z" fill="#FAFAFA"/>
<path d="M204.067 276.939C212.961 276.939 220.171 269.733 220.171 260.843C220.171 251.953 212.961 244.747 204.067 244.747C195.174 244.747 187.964 251.953 187.964 260.843C187.964 269.733 195.174 276.939 204.067 276.939Z" fill="#F0F0F0"/>
<path d="M146.606 287.689L157.882 233.998H182.777L171.494 287.689H146.606Z" fill="white"/>
<path d="M181.996 287.689L193.28 233.998H205.724L194.447 287.689H181.996Z" fill="white"/>
<path d="M257.992 287.689L269.275 233.998H281.719L270.443 287.689H257.992Z" fill="white"/>
<path d="M336.262 333.142C332.039 351.437 342.372 370.336 338.149 388.638C336.757 388.577 335.359 388.522 333.967 388.461C332.575 388.4 331.177 388.346 329.785 388.285C336.791 370.105 329.249 351.321 336.262 333.142Z" fill="#F0F0F0"/>
<path d="M325.433 341.075C328.896 358.569 317.789 376.057 321.245 393.551C322.643 393.551 324.035 393.551 325.433 393.551C326.832 393.551 328.224 393.551 329.622 393.551C323.37 376.063 331.686 358.569 325.433 341.075Z" fill="#F0F0F0"/>
<path d="M333.166 326.532C327.626 345.187 337.925 365.321 332.385 383.976C330.871 383.833 329.351 383.691 327.837 383.548C326.323 383.406 324.802 383.263 323.288 383.121C331.856 364.751 324.592 344.902 333.166 326.532Z" fill="#E6E6E6"/>
<path d="M341.32 353.391C343.105 363.482 333.146 371.408 334.931 381.499C336.058 381.702 337.178 381.913 338.305 382.116C339.432 382.32 340.552 382.53 341.679 382.734C337.647 372.243 345.352 363.896 341.32 353.391Z" fill="#E6E6E6"/>
<path d="M331.333 426.884C343.95 426.884 354.178 415.436 354.178 401.314C354.178 387.193 343.95 375.745 331.333 375.745C318.716 375.745 308.488 387.193 308.488 401.314C308.488 415.436 318.716 426.884 331.333 426.884Z" fill="#E0E0E0"/>
<path d="M178.509 453.925C251.206 453.925 310.14 450.485 310.14 446.243C310.14 442 251.206 438.561 178.509 438.561C105.811 438.561 46.8776 442 46.8776 446.243C46.8776 450.485 105.811 453.925 178.509 453.925Z" fill="#EDEDFB"/>
<path d="M269.345 350.119H122.636C121.054 350.119 119.832 348.822 119.92 347.241L124.862 257.34C124.951 255.759 126.315 254.463 127.897 254.463H274.606C276.188 254.463 277.41 255.759 277.322 257.34L272.38 347.241C272.291 348.829 270.927 350.119 269.345 350.119Z" fill="#263238"/>
<path d="M207.626 269.759H193.444C188.712 269.759 185.06 265.898 185.318 261.174L185.461 258.555C185.712 253.981 189.663 250.242 194.245 250.242H208.421C213.153 250.242 216.812 254.11 216.554 258.833L216.411 261.446C216.167 266.013 212.209 269.759 207.626 269.759Z" fill="#263238"/>
<path d="M220.539 443.406H215.997L203.485 252.237H208.027L220.539 443.406Z" fill="#263238"/>
<path d="M186.431 443.406H190.98L203.485 252.237H198.943L186.431 443.406Z" fill="#263238"/>
<path d="M268.564 350.119H121.855C120.273 350.119 119.051 348.822 119.139 347.241L124.082 257.34C124.17 255.759 125.534 254.463 127.116 254.463H273.825C275.407 254.463 276.629 255.759 276.541 257.34L271.599 347.241C271.51 348.829 270.146 350.119 268.564 350.119Z" fill="#407BFF"/>
<path opacity="0.4" d="M124.183 347.363C122.914 347.363 121.943 346.332 122.011 345.07L126.716 259.518C126.784 258.249 127.87 257.225 129.139 257.225H271.49C272.76 257.225 273.73 258.256 273.663 259.518L268.958 345.07C268.89 346.339 267.804 347.363 266.534 347.363H124.183Z" fill="#263238"/>
<path opacity="0.1" d="M267.417 302.019H224.565C223.485 302.019 222.664 301.144 222.718 300.072L224.857 261.127C224.864 260.978 224.748 260.849 224.599 260.849C224.45 260.849 224.314 260.971 224.307 261.127L222.168 300.072C222.107 301.151 221.191 302.019 220.111 302.019H175.589C174.51 302.019 173.688 301.144 173.743 300.072L175.881 261.127C175.888 260.978 175.773 260.849 175.623 260.849C175.474 260.849 175.338 260.971 175.331 261.127L173.193 300.072C173.132 301.151 172.215 302.019 171.136 302.019H128.284C128.135 302.019 127.999 302.142 127.992 302.298C127.985 302.447 128.101 302.576 128.25 302.576H171.102C172.181 302.576 173.003 303.451 172.949 304.523L170.81 343.468C170.803 343.618 170.919 343.747 171.068 343.747C171.217 343.747 171.353 343.624 171.36 343.468L173.498 304.523C173.56 303.444 174.476 302.576 175.555 302.576H220.084C221.164 302.576 221.985 303.451 221.931 304.523L219.792 343.468C219.785 343.618 219.901 343.747 220.05 343.747C220.2 343.747 220.335 343.624 220.342 343.468L222.481 304.523C222.542 303.444 223.458 302.576 224.538 302.576H267.39C267.539 302.576 267.675 302.454 267.682 302.298C267.688 302.142 267.573 302.019 267.417 302.019Z" fill="white"/>
<path opacity="0.4" d="M197.552 267.906H180.342L179.384 285.407L196.567 285.862L197.552 267.906Z" fill="#263238"/>
<path d="M195.691 285.115C189.934 284.837 184.177 284.552 178.414 284.274C179.371 278.329 179.968 272.364 180.213 266.42C186.004 266.698 191.795 266.983 197.586 267.261C197.314 273.206 196.676 279.164 195.691 285.115Z" fill="white"/>
<path opacity="0.4" d="M218.305 279.599L201.068 280.908L201.448 298.355L218.692 297.5L218.305 279.599Z" fill="#263238"/>
<path d="M217.756 296.821C211.971 296.984 206.18 297.14 200.396 297.303C200.899 291.324 201.041 285.36 200.831 279.435C206.656 279.273 212.474 279.11 218.292 278.947C218.468 284.871 218.285 290.843 217.756 296.821Z" fill="#407BFF"/>
<path opacity="0.4" d="M167.972 311.418L136.2 310.203L133.349 338.46L165.046 340.415L167.972 311.418Z" fill="#263238"/>
<path d="M163.464 339.132C152.853 338.27 142.242 337.415 131.624 336.553C133.756 326.992 135.229 317.39 136.037 307.781C146.716 308.643 157.388 309.504 168.06 310.366C167.198 319.975 165.657 329.577 163.464 339.132Z" fill="white"/>
<g opacity="0.3">
<path opacity="0.3" d="M135.27 271.863C134.285 271.863 133.525 271.055 133.579 270.071C133.634 269.087 134.482 268.28 135.467 268.28C136.451 268.28 137.211 269.087 137.157 270.071C137.103 271.055 136.254 271.863 135.27 271.863Z" fill="#263238"/>
<path opacity="0.8" d="M163.342 271.863H141.298C140.314 271.863 139.554 271.055 139.608 270.071C139.662 269.087 140.511 268.28 141.495 268.28H163.539C164.523 268.28 165.284 269.087 165.229 270.071C165.182 271.055 164.327 271.863 163.342 271.863Z" fill="#263238"/>
<path opacity="0.3" d="M134.842 279.666C133.858 279.666 133.097 278.859 133.152 277.875C133.206 276.891 134.055 276.083 135.039 276.083C136.023 276.083 136.784 276.891 136.729 277.875C136.675 278.866 135.827 279.666 134.842 279.666Z" fill="#263238"/>
<path opacity="0.8" d="M166.818 279.666H140.864C139.88 279.666 139.119 278.859 139.173 277.875C139.228 276.891 140.076 276.083 141.061 276.083H167.015C167.999 276.083 168.76 276.891 168.705 277.875C168.658 278.866 167.802 279.666 166.818 279.666Z" fill="#263238"/>
<path opacity="0.3" d="M134.408 287.478C133.423 287.478 132.663 286.67 132.717 285.686C132.771 284.702 133.62 283.895 134.605 283.895C135.589 283.895 136.349 284.702 136.295 285.686C136.247 286.67 135.392 287.478 134.408 287.478Z" fill="#263238"/>
<path opacity="0.8" d="M153.07 287.478H140.443C139.459 287.478 138.698 286.67 138.753 285.686C138.807 284.702 139.655 283.895 140.64 283.895H153.274C154.259 283.895 155.019 284.702 154.965 285.686C154.903 286.67 154.055 287.478 153.07 287.478Z" fill="#263238"/>
<path opacity="0.8" d="M164.768 295.288H152.134C151.149 295.288 150.389 294.481 150.443 293.497C150.497 292.513 151.346 291.705 152.33 291.705H164.965C165.949 291.705 166.709 292.513 166.655 293.497C166.601 294.481 165.752 295.288 164.768 295.288Z" fill="#263238"/>
<path opacity="0.3" d="M133.98 295.288C132.996 295.288 132.235 294.481 132.289 293.497C132.344 292.513 133.192 291.705 134.177 291.705C135.161 291.705 135.922 292.513 135.867 293.497C135.813 294.481 134.964 295.288 133.98 295.288Z" fill="#263238"/>
<path opacity="0.8" d="M145.84 295.288H140.008C139.024 295.288 138.264 294.481 138.318 293.497C138.372 292.513 139.221 291.705 140.205 291.705H146.037C147.021 291.705 147.782 292.513 147.728 293.497C147.68 294.481 146.831 295.288 145.84 295.288Z" fill="#263238"/>
</g>
<path d="M188.787 318.523H180.24L179.065 339.906H187.613L188.787 318.523Z" fill="#407BFF"/>
<path d="M201.761 322.928H193.207L192.277 339.906H200.824L201.761 322.928Z" fill="#407BFF"/>
<path d="M215.59 311.541H207.043L205.488 339.906H214.035L215.59 311.541Z" fill="#407BFF"/>
<path d="M182.147 330.589C181.299 330.589 180.45 330.569 179.581 330.521C178.088 330.446 176.153 330.256 174.408 329.476C174.13 329.354 174.008 329.028 174.13 328.75C174.252 328.472 174.578 328.35 174.856 328.472C176.431 329.178 178.237 329.354 179.636 329.422C189.894 329.951 198.875 327.277 207.918 321.021C210.07 319.528 213.295 316.766 215.271 313.895C215.441 313.644 215.787 313.583 216.038 313.753C216.289 313.923 216.35 314.269 216.181 314.52C214.123 317.506 210.892 320.301 208.55 321.923C200.057 327.8 191.604 330.589 182.147 330.589Z" fill="white"/>
<path d="M217.45 318.116C217.382 318.116 217.307 318.103 217.24 318.076C216.961 317.96 216.825 317.634 216.941 317.356C217.722 315.47 217.885 313.346 217.416 311.418C215.264 312.864 212.976 314.079 210.586 315.042C210.301 315.158 209.982 315.022 209.867 314.737C209.751 314.452 209.887 314.133 210.172 314.017C212.718 312.993 215.155 311.669 217.416 310.082C217.559 309.98 217.742 309.953 217.905 310.007C218.068 310.061 218.204 310.19 218.258 310.353C219.052 312.701 218.944 315.402 217.966 317.77C217.871 317.987 217.667 318.116 217.45 318.116Z" fill="white"/>
<path d="M262.468 297.039H230.668C230.132 297.039 229.629 296.829 229.27 296.449C228.903 296.062 228.72 295.56 228.754 295.017L230.234 268.144C230.295 267.045 231.238 266.149 232.338 266.149H264.138C264.674 266.149 265.176 266.359 265.536 266.739C265.903 267.126 266.086 267.628 266.052 268.171L264.572 295.044C264.511 296.143 263.567 297.039 262.468 297.039ZM232.331 266.692C231.517 266.692 230.817 267.357 230.777 268.164L229.297 295.037C229.276 295.424 229.405 295.79 229.663 296.062C229.921 296.333 230.274 296.482 230.661 296.482H262.461C263.275 296.482 263.975 295.817 264.015 295.01L265.495 268.137C265.516 267.75 265.387 267.384 265.129 267.113C264.871 266.841 264.518 266.692 264.131 266.692H232.331Z" fill="#407BFF"/>
<path d="M265.475 273.851H230.2C230.05 273.851 229.921 273.729 229.921 273.573C229.921 273.423 230.044 273.294 230.2 273.294H265.475C265.624 273.294 265.753 273.417 265.753 273.573C265.753 273.729 265.631 273.851 265.475 273.851Z" fill="#407BFF"/>
<path d="M237.26 297.039C237.253 297.039 237.247 297.039 237.247 297.039C237.097 297.032 236.975 296.903 236.989 296.747L238.265 273.559C238.272 273.41 238.401 273.288 238.557 273.301C238.706 273.308 238.828 273.437 238.815 273.593L237.539 296.781C237.525 296.924 237.403 297.039 237.26 297.039Z" fill="#407BFF"/>
<path d="M261.436 276.606H242.284C242.135 276.606 242.006 276.484 242.006 276.328C242.006 276.178 242.128 276.049 242.284 276.049H261.436C261.585 276.049 261.714 276.171 261.714 276.328C261.714 276.484 261.592 276.606 261.436 276.606Z" fill="#407BFF"/>
<path d="M258.55 279.985H242.101C241.951 279.985 241.822 279.863 241.822 279.707C241.822 279.558 241.945 279.429 242.101 279.429H258.55C258.7 279.429 258.829 279.551 258.829 279.707C258.829 279.863 258.706 279.985 258.55 279.985Z" fill="#407BFF"/>
<path d="M251.483 283.473H241.904C241.754 283.473 241.625 283.351 241.625 283.195C241.625 283.039 241.748 282.917 241.904 282.917H251.483C251.632 282.917 251.761 283.039 251.761 283.195C251.761 283.351 251.639 283.473 251.483 283.473Z" fill="#407BFF"/>
<path d="M253.221 290.28H241.53C241.381 290.28 241.252 290.157 241.252 290.001C241.252 289.845 241.374 289.723 241.53 289.723H253.221C253.37 289.723 253.499 289.845 253.499 290.001C253.499 290.157 253.377 290.28 253.221 290.28Z" fill="#407BFF"/>
<path d="M250.92 293.774H241.34C241.191 293.774 241.062 293.652 241.062 293.496C241.062 293.347 241.184 293.218 241.34 293.218H250.92C251.069 293.218 251.198 293.34 251.198 293.496C251.191 293.645 251.069 293.774 250.92 293.774Z" fill="#407BFF"/>
<path d="M256.527 293.774H253.459C253.309 293.774 253.18 293.652 253.18 293.496C253.18 293.347 253.303 293.218 253.459 293.218H256.527C256.677 293.218 256.806 293.34 256.806 293.496C256.799 293.645 256.677 293.774 256.527 293.774Z" fill="#407BFF"/>
<path d="M259.657 286.852H241.727C241.578 286.852 241.449 286.73 241.449 286.574C241.449 286.425 241.571 286.296 241.727 286.296H259.657C259.806 286.296 259.935 286.418 259.935 286.574C259.929 286.73 259.806 286.852 259.657 286.852Z" fill="#407BFF"/>
<path d="M242.936 336.133C238.781 336.133 235.38 334.904 233.262 332.624C231.008 330.188 230.071 326.354 230.695 322.106C231.075 319.507 231.931 317.322 233.221 315.619C234.517 313.909 236.398 312.504 238.808 311.432C244.117 309.07 250.268 309.152 255.258 311.656C257.491 312.775 258.89 314.194 259.419 315.87C259.508 316.162 259.351 316.467 259.059 316.562C258.768 316.65 258.462 316.494 258.367 316.202C257.933 314.825 256.717 313.624 254.762 312.646C250.064 310.292 244.273 310.217 239.256 312.45C237.023 313.44 235.285 314.736 234.103 316.297C232.922 317.851 232.141 319.86 231.788 322.276C231.211 326.191 232.046 329.693 234.076 331.885C236.9 334.932 241.564 335.149 244.097 335.006C248.808 334.748 252.854 333.099 255.502 330.378C258.598 327.189 259.467 322.425 257.518 319.29C257.138 318.686 256.33 317.648 255.142 317.526C254.837 317.498 254.62 317.227 254.647 316.922C254.674 316.616 254.945 316.399 255.251 316.426C256.48 316.548 257.62 317.356 258.455 318.706C260.662 322.255 259.732 327.603 256.29 331.145C253.452 334.07 249.141 335.827 244.151 336.106C243.744 336.119 243.336 336.133 242.936 336.133Z" fill="white"/>
<path d="M102.011 278.689L100.055 282.102L98.1342 285.583C96.8715 287.911 95.663 290.259 94.5632 292.613C94.0133 293.794 93.4905 294.975 93.0153 296.156L92.9271 296.373C92.9203 296.393 92.9067 296.407 92.8999 296.42C92.866 296.454 92.8592 296.488 92.8388 296.515C92.8049 296.576 92.7777 296.631 92.7438 296.712C92.6962 296.868 92.7098 297.126 92.8252 297.472C93.0425 298.178 93.6806 299.094 94.4614 299.949C95.2285 300.811 96.2197 301.686 97.1091 302.46L95.5204 305.846C94.7126 305.615 94.0405 305.385 93.3276 305.073C92.6216 304.774 91.9359 304.414 91.257 304.007C89.906 303.173 88.555 302.148 87.428 300.458C86.8849 299.617 86.4165 298.572 86.2332 297.364C86.1517 296.76 86.1177 296.135 86.1992 295.518C86.2331 295.213 86.2807 294.9 86.3554 294.615L86.464 294.174L86.5454 293.91C86.9799 292.525 87.4348 291.148 87.9643 289.824C88.9963 287.157 90.1572 284.586 91.4267 282.082C92.0581 280.826 92.7166 279.591 93.4091 278.37C94.1083 277.141 94.7804 275.954 95.5815 274.712L102.011 278.689Z" fill="#FFC3BD"/>
<path d="M95.4118 302.073L98.976 301.144L99.1797 306.898C99.1797 306.898 96.3894 307.312 94.6786 305.609L95.4118 302.073Z" fill="#FFC3BD"/>
<path d="M104.034 300.18L103.226 305.236L99.1797 306.905L98.976 301.151L104.034 300.18Z" fill="#FFC3BD"/>
<path d="M118.786 251.558C118.868 251.952 119.139 252.23 119.397 252.176C119.655 252.122 119.798 251.762 119.716 251.368C119.635 250.975 119.363 250.697 119.105 250.751C118.854 250.805 118.711 251.165 118.786 251.558Z" fill="#263238"/>
<path d="M119.105 252.237C119.105 252.237 120.463 254.327 121.672 255.223C121.108 256.017 119.859 255.956 119.859 255.956L119.105 252.237Z" fill="#ED847E"/>
<path d="M116.899 249.665C116.845 249.665 116.783 249.644 116.736 249.604C116.641 249.515 116.634 249.366 116.722 249.271C117.612 248.314 118.684 248.484 118.732 248.491C118.861 248.511 118.949 248.633 118.922 248.762C118.902 248.891 118.779 248.979 118.65 248.959C118.616 248.952 117.775 248.83 117.069 249.597C117.028 249.638 116.967 249.665 116.899 249.665Z" fill="#263238"/>
<path d="M107.557 257.103C108.27 260.747 108.99 267.431 106.437 269.867C106.437 269.867 107.435 273.565 114.217 273.565C121.671 273.565 117.781 269.867 117.781 269.867C113.715 268.897 113.817 265.877 114.529 263.047L107.557 257.103Z" fill="#FFC3BD"/>
<path d="M104.964 270.546C104.421 269.535 103.817 268.374 105.059 268.008C106.424 267.607 115.202 266.868 117.775 267.614C116.98 269.026 118.325 270.756 118.325 270.756L104.964 270.546Z" fill="#263238"/>
<path d="M82.8794 440.569C83.3818 440.678 83.8774 440.705 84.1218 440.501C84.2236 440.413 84.3254 440.25 84.2372 439.952C84.1897 439.795 84.0878 439.68 83.9317 439.605C83.2596 439.286 81.7117 439.918 81.6438 439.945C81.6031 439.965 81.5691 440.006 81.5691 440.053C81.5691 440.101 81.5963 440.142 81.637 440.162C81.8746 440.27 82.377 440.46 82.8794 440.569ZM83.6873 439.768C83.7348 439.782 83.7823 439.795 83.8231 439.816C83.9181 439.863 83.9724 439.924 83.9996 440.019C84.0607 440.23 83.986 440.298 83.9588 440.318C83.6941 440.549 82.6961 440.338 81.9901 440.053C82.4789 439.89 83.246 439.673 83.6873 439.768Z" fill="#407BFF"/>
<path d="M81.6642 440.162C81.6846 440.169 81.7049 440.169 81.7253 440.162C82.2888 439.999 83.4972 439.144 83.5108 438.574C83.5108 438.472 83.4768 438.289 83.2053 438.194C83.0288 438.133 82.8523 438.147 82.6825 438.235C82.0172 438.574 81.5963 439.959 81.5759 440.013C81.5624 440.054 81.5759 440.101 81.6031 440.128C81.6235 440.149 81.6438 440.162 81.6642 440.162ZM83.0763 438.405C83.0967 438.411 83.1102 438.411 83.1306 438.418C83.28 438.472 83.2732 438.54 83.2732 438.574C83.2664 438.907 82.4721 439.579 81.8882 439.85C82.0376 439.45 82.3702 438.662 82.7979 438.445C82.8862 438.398 82.9812 438.384 83.0763 438.405Z" fill="#407BFF"/>
<path d="M119.703 441.404C120.341 441.404 120.959 441.316 121.169 441.031C121.244 440.929 121.298 440.76 121.162 440.515C121.088 440.38 120.959 440.285 120.789 440.237C119.961 440.013 118.216 441.004 118.141 441.045C118.101 441.072 118.073 441.119 118.08 441.167C118.087 441.214 118.128 441.255 118.175 441.262C118.487 441.33 119.105 441.404 119.703 441.404ZM120.49 440.441C120.572 440.441 120.653 440.447 120.721 440.468C120.83 440.495 120.904 440.549 120.952 440.631C121.033 440.78 121.006 440.848 120.972 440.888C120.741 441.207 119.479 441.221 118.555 441.085C119.017 440.855 119.906 440.441 120.49 440.441Z" fill="#407BFF"/>
<path d="M118.196 441.268C118.209 441.268 118.229 441.261 118.243 441.254C118.847 440.983 120.035 439.904 119.947 439.341C119.927 439.205 119.832 439.042 119.506 439.008C119.261 438.981 119.044 439.049 118.854 439.212C118.223 439.734 118.087 441.078 118.08 441.132C118.073 441.173 118.094 441.214 118.128 441.241C118.148 441.261 118.168 441.268 118.196 441.268ZM119.411 439.246C119.431 439.246 119.458 439.246 119.479 439.253C119.689 439.273 119.703 439.354 119.709 439.388C119.764 439.728 118.956 440.576 118.338 440.942C118.399 440.549 118.583 439.748 118.997 439.402C119.126 439.293 119.261 439.246 119.411 439.246Z" fill="#407BFF"/>
<path d="M112.71 441.146H117.7L118.196 429.603H113.206L112.71 441.146Z" fill="#FFC3BD"/>
<path d="M76.104 438.838L80.9785 439.897L85.8733 429.141L80.9989 428.089L76.104 438.838Z" fill="#FFC3BD"/>
<path d="M81.447 439.409L75.9683 438.221C75.7714 438.181 75.5677 438.282 75.4795 438.466L73.5786 442.592C73.3817 443.019 73.6397 443.521 74.1013 443.609C76.0226 443.989 76.973 444.078 79.3831 444.6C80.8631 444.919 84.2101 445.733 86.2535 446.181C88.2563 446.616 89.0031 444.661 88.2088 444.295C84.631 442.659 83.1374 441.221 82.1666 439.884C81.9969 439.633 81.7389 439.47 81.447 439.409Z" fill="#263238"/>
<path d="M117.666 440.569H112.221C112.018 440.569 111.841 440.712 111.794 440.909L110.809 445.34C110.707 445.801 111.054 446.236 111.529 446.229C113.491 446.195 116.335 446.08 118.8 446.08C121.685 446.08 124.183 446.236 127.564 446.236C129.615 446.236 130.178 444.166 129.323 443.976C125.419 443.121 122.235 443.033 118.861 440.956C118.501 440.732 118.094 440.569 117.666 440.569Z" fill="#263238"/>
<path d="M97.5028 270.994C92.8252 272.066 88.9759 283.995 88.9759 283.995L98.365 291.148C98.365 291.148 101.807 287.904 103.341 281.933C104.95 275.683 102.282 269.901 97.5028 270.994Z" fill="#407BFF"/>
<path opacity="0.2" d="M97.5028 270.994C92.8252 272.066 88.9759 283.995 88.9759 283.995L98.365 291.148C98.365 291.148 101.807 287.904 103.341 281.933C104.95 275.683 102.282 269.901 97.5028 270.994Z" fill="#FAFAFA"/>
<path opacity="0.2" d="M101.508 279.768C98.9692 282.279 98.141 286.853 97.9441 290.829L98.3582 291.148C98.3582 291.148 101.807 287.898 103.341 281.933C103.436 281.56 103.518 281.186 103.586 280.82L101.508 279.768Z" fill="black"/>
<path d="M125.446 271.251C125.446 271.251 130.755 277.243 125.738 314.343C117.7 314.343 102.975 314.343 99.0643 314.343C98.881 310.251 101.454 290.279 97.5028 270.993C97.5028 270.993 102.079 270.077 106.43 269.867C109.838 269.704 114.774 269.596 117.768 269.867C121.726 270.227 125.446 271.251 125.446 271.251Z" fill="#407BFF"/>
<path opacity="0.2" d="M125.446 271.251C125.446 271.251 130.755 277.243 125.738 314.343C117.7 314.343 102.975 314.343 99.0643 314.343C98.881 310.251 101.454 290.279 97.5028 270.993C97.5028 270.993 102.079 270.077 106.43 269.867C109.838 269.704 114.774 269.596 117.768 269.867C121.726 270.227 125.446 271.251 125.446 271.251Z" fill="#FAFAFA"/>
<path opacity="0.2" d="M127.775 282.591L127.673 282.502L121.61 283.955C121.264 288.053 125.48 292.953 127.653 295.192C127.951 289.96 127.944 285.834 127.775 282.591Z" fill="black"/>
<path opacity="0.2" d="M118.196 429.609L117.938 435.561H112.948L113.206 429.609H118.196Z" fill="black"/>
<path opacity="0.2" d="M80.9921 428.089L85.8733 429.148L83.3478 434.685L78.4734 433.633L80.9921 428.089Z" fill="black"/>
<path d="M105.473 253.397C106.756 258.175 107.259 261.038 110.212 263.027C114.652 266.013 120.178 262.586 120.348 257.523C120.504 252.963 118.379 245.912 113.253 244.949C108.195 243.999 104.19 248.62 105.473 253.397Z" fill="#FFC3BD"/>
<path d="M107.666 261.188C109.696 262.348 117.109 258.466 115.589 252.576C115.589 252.576 118.413 249.183 118.094 245.437C117.775 241.691 115.202 240.266 112.466 241.067C110.056 241.773 110.123 243.096 110.123 243.096C110.123 243.096 98.7248 244.44 101.162 249.068C96.5184 254.123 105.127 259.742 107.666 261.188Z" fill="#263238"/>
<path d="M101.481 249.455C101.481 249.455 100.123 247.107 98.141 248.423C99.0711 248.437 100.599 248.593 101.481 249.455Z" fill="#263238"/>
<path d="M117.727 247.907C117.727 247.907 120.212 242.302 116.335 240.497C117.646 242.316 118.358 245.247 117.727 247.907Z" fill="#263238"/>
<path d="M113.606 253.601C113.932 254.856 114.754 255.935 115.616 256.573C116.912 257.537 117.883 256.587 117.788 255.121C117.707 253.798 116.933 251.708 115.5 251.314C114.095 250.927 113.233 252.162 113.606 253.601Z" fill="#FFC3BD"/>
<path d="M116.281 314.343C116.281 314.343 110.619 352.439 107.517 366.717C104.115 382.345 85.8666 434.062 85.8666 434.062L76.9391 432.128C76.9391 432.128 89.6955 389.987 92.5537 368.136C94.7465 351.354 99.0711 314.35 99.0711 314.35H116.281V314.343Z" fill="#263238"/>
<path d="M87.9983 431.076C88.039 431.083 86.335 434.306 86.335 434.306L76.2874 432.135L77.136 429.115L87.9983 431.076Z" fill="#407BFF"/>
<path opacity="0.3" d="M112.703 327.914C106.159 329.197 106.851 353.592 107.639 366.14C109.526 357.27 112.289 340.204 114.176 328.091C113.742 327.873 113.253 327.806 112.703 327.914Z" fill="black"/>
<path d="M125.738 314.343C125.738 314.343 126.424 351.618 125.881 366.819C125.317 382.63 119.791 434.408 119.791 434.408H111.339C111.339 434.408 111.026 383.553 110.653 368.027C110.246 351.096 108.195 314.343 108.195 314.343H125.738Z" fill="#263238"/>
<path opacity="0.4" d="M172.643 288.061H155.433L154.469 305.562L171.659 306.016L172.643 288.061Z" fill="#263238"/>
<path d="M163.6 299.318C157.857 298.613 152.106 297.9 146.363 297.194C147.755 291.358 148.793 285.482 149.472 279.598C155.25 280.311 161.034 281.023 166.811 281.729C166.098 287.612 165.026 293.489 163.6 299.318Z" fill="#407BFF"/>
<path d="M121.42 431.042C121.461 431.042 120.945 434.55 120.945 434.55H110.667L110.388 431.422L121.42 431.042Z" fill="#407BFF"/>
<path d="M127.904 275.798C128.671 276.992 129.547 278.329 130.416 279.571C131.305 280.82 132.194 282.068 133.131 283.269C134.985 285.672 136.953 287.986 139.072 289.899C139.594 290.381 140.131 290.836 140.674 291.25L141.081 291.555C141.047 291.535 140.918 291.487 140.843 291.474C140.667 291.44 140.579 291.467 140.626 291.494C140.728 291.548 141.224 291.46 141.746 291.236C142.276 291.012 142.873 290.707 143.464 290.347C145.854 288.868 148.318 286.798 150.633 284.789L153.546 287.144C151.74 290.055 149.751 292.688 147.015 295.104C146.322 295.701 145.575 296.292 144.679 296.821C143.776 297.337 142.758 297.873 141.251 298.09C140.504 298.185 139.594 298.171 138.657 297.873C138.203 297.737 137.714 297.493 137.34 297.262L136.75 296.889C135.976 296.387 135.236 295.857 134.53 295.301C131.719 293.075 129.377 290.571 127.218 287.965C126.152 286.649 125.12 285.319 124.17 283.934C123.199 282.536 122.296 281.2 121.393 279.646L127.904 275.798Z" fill="#FFC3BD"/>
<path d="M118.107 278.791C116.512 285.475 128.61 292.017 128.61 292.017L136.471 282.815C136.471 282.815 132.894 277.393 128.44 273.124C122.948 267.852 119.323 273.701 118.107 278.791Z" fill="#407BFF"/>
<path opacity="0.2" d="M118.107 278.791C116.512 285.475 128.61 292.017 128.61 292.017L136.471 282.815C136.471 282.815 132.894 277.393 128.44 273.124C122.948 267.852 119.323 273.701 118.107 278.791Z" fill="#FAFAFA"/>
<path d="M149.846 286.18L151.699 280.229L156.58 282.658C156.58 282.658 155.867 287.001 152.317 287.755L149.846 286.18Z" fill="#FFC3BD"/>
<path d="M153.661 278.58L158.06 279.788L156.587 282.658L151.706 280.229L153.661 278.58Z" fill="#FFC3BD"/>
</g>
<defs>
<clipPath id="clip0">
<rect width="411" height="1108" fill="white"/>
</clipPath>
</defs>
</svg>
