<svg width="1920" height="1081" viewBox="0 0 1920 1081" fill="none" xmlns="http://www.w3.org/2000/svg">
<g clip-path="url(#clip0)">
<rect width="1920" height="1081" fill="#F7F7FC"/>
<path d="M1225 497.5C1307.8 513.1 1342.83 661 1357.5 730C1368.5 529.5 1617.5 579.5 1706.5 650C1795.5 720.5 1918.83 529.5 1969 500.5V-64H-15.5001C-18.1668 28.6667 -42.7001 215.7 -23.5001 254.5C0.499897 303 263 361.5 430 281.5C597 201.5 855.715 153 929 358.5C1002.28 564 1121.5 478 1225 497.5Z" fill="#F7F7FC" stroke="#A5AAD1"/>
<path d="M1225 477.5C1307.8 493.1 1342.83 641 1357.5 710C1368.5 509.5 1617.5 509.5 1706.5 580C1795.5 650.5 1918.83 459.5 1969 430.5V-84H-15.5001C-18.1668 8.66666 -42.7001 195.7 -23.5001 234.5C0.499897 283 263 341.5 430 261.5C597 181.5 855.715 147 929 352.5C1002.28 558 1121.5 458 1225 477.5Z" fill="#1A2749"/>
<path opacity="0.2" d="M1225 452.5C1307.8 468.1 1342.83 616 1357.5 685C1368.5 484.5 1617.5 534.5 1706.5 605C1795.5 675.5 1918.83 484.5 1969 455.5V-109H-15.5001C-18.1668 -16.3333 -42.7001 170.7 -23.5001 209.5C0.499897 258 263 316.5 430 236.5C597 156.5 855.715 108 929 313.5C1002.28 519 1121.5 433 1225 452.5Z" stroke="#A5AAD1"/>
<path opacity="0.15" d="M1318.05 422.903C1409.63 440.153 1448.38 603.7 1464.61 680C1476.77 458.288 1752.2 513.578 1850.64 591.537C1949.09 669.495 2085.51 458.288 2141 426.22V-198H-54.0956C-57.0452 -95.5298 -84.1821 111.29 -62.9446 154.195C-36.3977 207.826 253.959 272.515 438.681 184.052C623.403 95.5882 909.573 41.9572 990.635 269.198C1071.7 496.438 1203.56 401.34 1318.05 422.903Z" stroke="#A5AAD1"/>
<path opacity="0.05" d="M1373.05 329.903C1464.63 347.153 1503.38 510.7 1519.61 587C1531.77 365.288 1807.2 420.578 1905.64 498.537C2004.09 576.495 2140.51 365.288 2196 333.22V-291H0.904421C-2.04523 -188.53 -29.1821 18.2904 -7.94456 61.1952C18.6023 114.826 308.959 179.515 493.681 91.0516C678.403 2.58817 964.573 -51.0428 1045.63 176.198C1126.7 403.438 1258.56 308.34 1373.05 329.903Z" stroke="#A5AAD1"/>
<path d="M1784 772.102H1024V772.481H1784V772.102Z" fill="#EBEBEB"/>
<path d="M1222.16 786.566H1103.74V786.946H1222.16V786.566Z" fill="#EBEBEB"/>
<path d="M1707.85 798.127H1650.24V798.507H1707.85V798.127Z" fill="#EBEBEB"/>
<path d="M1252.85 800.68H1223.68V801.06H1252.85V800.68Z" fill="#EBEBEB"/>
<path d="M1396.95 782.449H1331.3V782.829H1396.95V782.449Z" fill="#EBEBEB"/>
<path d="M1420.1 782.449H1410.48V782.829H1420.1V782.449Z" fill="#EBEBEB"/>
<path d="M1587.75 791.701H1522.06V792.081H1587.75V791.701Z" fill="#EBEBEB"/>
<path d="M1351.02 615.709H1057.52C1052.73 615.709 1048.84 611.82 1048.84 607.034V194.638C1048.84 189.852 1052.73 185.963 1057.52 185.963H1351.03C1355.82 185.963 1359.71 189.852 1359.71 194.638V607.034C1359.7 611.82 1355.81 615.709 1351.02 615.709ZM1057.52 186.343C1052.95 186.343 1049.22 190.065 1049.22 194.638V607.034C1049.22 611.607 1052.95 615.329 1057.52 615.329H1351.03C1355.61 615.329 1359.33 611.607 1359.33 607.034V194.638C1359.33 190.065 1355.61 186.343 1351.03 186.343H1057.52Z" fill="#EBEBEB"/>
<path d="M1713.03 704.338H1419.52C1414.73 704.338 1410.84 700.449 1410.84 695.663V283.267C1410.84 278.481 1414.73 274.592 1419.52 274.592H1713.03C1717.82 274.592 1721.71 278.481 1721.71 283.267V695.663C1721.71 700.449 1717.82 704.338 1713.03 704.338ZM1419.52 274.972C1414.94 274.972 1411.22 278.694 1411.22 283.267V695.663C1411.22 700.236 1414.94 703.958 1419.52 703.958H1713.03C1717.61 703.958 1721.33 700.236 1721.33 695.663V283.267C1721.33 278.694 1717.61 274.972 1713.03 274.972H1419.52Z" fill="#EBEBEB"/>
<path d="M1225.96 737.37H1151.27C1147.94 737.37 1145.11 734.924 1144.63 731.642L1125.93 603.911C1125.34 599.87 1128.47 596.238 1132.57 596.238H1207.25C1210.58 596.238 1213.41 598.684 1213.89 601.966L1232.59 729.697C1233.18 733.739 1230.05 737.37 1225.96 737.37Z" fill="#F0F0F0"/>
<path d="M1160.16 737.37H1124.94C1121.61 737.37 1118.79 734.924 1118.3 731.642L1099.6 603.911C1099.01 599.87 1102.14 596.238 1106.25 596.238H1141.47C1144.79 596.238 1147.62 598.684 1148.11 601.966L1166.8 729.697C1167.38 733.739 1164.25 737.37 1160.16 737.37Z" fill="#FAFAFA"/>
<path d="M1605.89 563.846H1242.91C1233.7 563.846 1225.58 570.759 1224.79 579.282L1215.66 677.903C1214.87 686.426 1221.71 693.339 1230.92 693.339H1593.89C1603.1 693.339 1611.22 686.426 1612.01 677.903L1621.15 579.282C1621.94 570.759 1615.11 563.846 1605.89 563.846Z" fill="#E0E0E0"/>
<path d="M1581.25 563.846H1218.27C1209.06 563.846 1200.94 570.759 1200.15 579.282L1191.02 677.903C1190.23 686.426 1197.07 693.339 1206.28 693.339H1569.25C1578.47 693.339 1586.58 686.426 1587.37 677.903L1596.51 579.282C1597.3 570.759 1590.47 563.846 1581.25 563.846Z" fill="#E6E6E6"/>
<path d="M1172.44 726.431V691.319C1172.44 685.287 1177.34 680.395 1183.37 680.395H1320.08C1326.12 680.395 1331.01 685.287 1331.01 691.319V726.431C1331.01 732.462 1326.12 737.355 1320.08 737.355H1183.37C1177.34 737.37 1172.44 732.462 1172.44 726.431Z" fill="#EBEBEB"/>
<path d="M1370.13 727.357V690.392C1370.13 684.861 1374.62 680.395 1380.14 680.395H1539.69C1545.22 680.395 1549.69 684.877 1549.69 690.392V727.357C1549.69 732.888 1545.21 737.355 1539.69 737.355H1380.14C1374.6 737.37 1370.13 732.888 1370.13 727.357Z" fill="#E0E0E0"/>
<path d="M1331.02 727.357V690.392C1331.02 684.861 1335.51 680.395 1341.03 680.395H1500.58C1506.11 680.395 1510.58 684.877 1510.58 690.392V727.357C1510.58 732.888 1506.1 737.355 1500.58 737.355H1341.04C1335.51 737.37 1331.02 732.888 1331.02 727.357Z" fill="#EBEBEB"/>
<path d="M1604.9 737.37H1549.34C1545.25 737.37 1542.58 733.739 1543.69 729.697L1578.68 601.966C1579.58 598.669 1582.72 596.238 1586.05 596.238H1641.61C1645.7 596.238 1648.37 599.87 1647.26 603.911L1612.27 731.642C1611.36 734.924 1608.23 737.37 1604.9 737.37Z" fill="#F0F0F0"/>
<path d="M1558.22 737.37H1523C1518.91 737.37 1516.24 733.739 1517.35 729.697L1552.34 601.966C1553.23 598.669 1556.38 596.238 1559.71 596.238H1594.93C1599.02 596.238 1601.69 599.87 1600.58 603.911L1565.59 731.642C1564.68 734.924 1561.55 737.37 1558.22 737.37Z" fill="#FAFAFA"/>
<path d="M1528.76 772.101H1523.41L1510.61 737.369H1523.84L1528.76 772.101Z" fill="#E0E0E0"/>
<path d="M1596.58 772.101H1591.23L1578.42 737.369H1591.66L1596.58 772.101Z" fill="#E0E0E0"/>
<path d="M1211.07 772.101H1216.42L1229.22 737.369H1215.98L1211.07 772.101Z" fill="#E0E0E0"/>
<path d="M1143.24 772.101H1148.59L1161.39 737.369H1148.17L1143.24 772.101Z" fill="#E0E0E0"/>
<path d="M1606.66 339.484H1201.34V483.989H1606.66V339.484Z" fill="#E0E0E0"/>
<path d="M1602.94 339.484H1197.61V483.989H1602.94V339.484Z" fill="#F0F0F0"/>
<path d="M1590.79 471.84V351.645L1209.78 351.645V471.84L1590.79 471.84Z" fill="#FAFAFA"/>
<path d="M1400.29 447.783C1420.2 447.783 1436.35 431.648 1436.35 411.744C1436.35 391.84 1420.2 375.705 1400.29 375.705C1380.38 375.705 1364.24 391.84 1364.24 411.744C1364.24 431.648 1380.38 447.783 1400.29 447.783Z" fill="#F0F0F0"/>
<path d="M1271.64 471.849L1296.89 351.639H1352.62L1327.36 471.849H1271.64Z" fill="white"/>
<path d="M1350.88 471.849L1376.14 351.639H1404L1378.75 471.849H1350.88Z" fill="white"/>
<path d="M1521.02 471.849L1546.29 351.639H1574.15L1548.9 471.849H1521.02Z" fill="white"/>
<path d="M1696.27 573.615C1686.81 614.577 1709.95 656.89 1700.49 697.867C1697.38 697.73 1694.24 697.609 1691.13 697.472C1688.01 697.335 1684.88 697.214 1681.76 697.077C1697.45 656.374 1680.56 614.318 1696.27 573.615Z" fill="#F0F0F0"/>
<path d="M1672.02 591.375C1679.77 630.544 1654.91 669.697 1662.64 708.866C1665.77 708.866 1668.89 708.866 1672.02 708.866C1675.15 708.866 1678.27 708.866 1681.4 708.866C1667.4 669.712 1686.02 630.544 1672.02 591.375Z" fill="#F0F0F0"/>
<path d="M1689.33 558.816C1676.93 600.583 1699.99 645.662 1687.59 687.429C1684.2 687.11 1680.79 686.791 1677.4 686.472C1674.01 686.152 1670.61 685.833 1667.22 685.514C1686.4 644.386 1670.14 599.945 1689.33 558.816Z" fill="#E6E6E6"/>
<path d="M1707.59 618.951C1711.59 641.544 1689.29 659.29 1693.29 681.882C1695.81 682.338 1698.32 682.809 1700.84 683.265C1703.36 683.721 1705.87 684.192 1708.4 684.648C1699.37 661.159 1716.62 642.471 1707.59 618.951Z" fill="#E6E6E6"/>
<path d="M1685.23 783.498C1713.48 783.498 1736.38 757.867 1736.38 726.249C1736.38 694.631 1713.48 669 1685.23 669C1656.98 669 1634.08 694.631 1634.08 726.249C1634.08 757.867 1656.98 783.498 1685.23 783.498Z" fill="#E0E0E0"/>
<path d="M1343.07 844.039C1505.83 844.039 1637.78 836.338 1637.78 826.84C1637.78 817.341 1505.83 809.641 1343.07 809.641C1180.3 809.641 1048.35 817.341 1048.35 826.84C1048.35 836.338 1180.3 844.039 1343.07 844.039Z" fill="#EDEDFB"/>
<path d="M1546.44 611.626H1217.97C1214.43 611.626 1211.69 608.724 1211.89 605.184L1222.96 403.901C1223.15 400.361 1226.21 397.459 1229.75 397.459H1558.22C1561.76 397.459 1564.5 400.361 1564.3 403.901L1553.24 605.184C1553.04 608.739 1549.98 611.626 1546.44 611.626Z" fill="#263238"/>
<path d="M1408.26 431.704H1376.51C1365.91 431.704 1357.74 423.059 1358.31 412.484L1358.63 406.62C1359.19 396.379 1368.04 388.008 1378.3 388.008H1410.04C1420.63 388.008 1428.83 396.668 1428.25 407.243L1427.93 413.092C1427.38 423.317 1418.52 431.704 1408.26 431.704Z" fill="#263238"/>
<path d="M1437.17 820.489H1427L1398.99 392.475H1409.16L1437.17 820.489Z" fill="#263238"/>
<path d="M1360.81 820.489H1370.99L1398.99 392.475H1388.82L1360.81 820.489Z" fill="#263238"/>
<path d="M1544.7 611.626H1216.22C1212.68 611.626 1209.95 608.724 1210.14 605.184L1221.21 403.901C1221.41 400.361 1224.46 397.459 1228 397.459H1556.48C1560.02 397.459 1562.75 400.361 1562.56 403.901L1551.49 605.184C1551.29 608.739 1548.24 611.626 1544.7 611.626Z" fill="#407BFF"/>
<path opacity="0.4" d="M1221.44 605.457C1218.59 605.457 1216.42 603.148 1216.57 600.322L1227.11 408.778C1227.26 405.937 1229.69 403.643 1232.53 403.643H1551.25C1554.09 403.643 1556.26 405.952 1556.11 408.778L1545.58 600.322C1545.42 603.163 1542.99 605.457 1540.15 605.457H1221.44Z" fill="#263238"/>
<path opacity="0.1" d="M1542.13 503.934H1446.18C1443.77 503.934 1441.93 501.974 1442.05 499.574L1446.84 412.379C1446.85 412.045 1446.59 411.756 1446.26 411.756C1445.93 411.756 1445.62 412.029 1445.61 412.379L1440.82 499.574C1440.68 501.99 1438.63 503.934 1436.21 503.934H1336.53C1334.11 503.934 1332.28 501.974 1332.4 499.574L1337.18 412.379C1337.2 412.045 1336.94 411.756 1336.61 411.756C1336.27 411.756 1335.97 412.029 1335.95 412.379L1331.17 499.574C1331.03 501.99 1328.98 503.934 1326.56 503.934H1230.62C1230.28 503.934 1229.98 504.208 1229.96 504.557C1229.95 504.892 1230.21 505.18 1230.54 505.18H1326.48C1328.9 505.18 1330.74 507.14 1330.62 509.541L1325.83 596.736C1325.82 597.07 1326.07 597.359 1326.41 597.359C1326.74 597.359 1327.05 597.085 1327.06 596.736L1331.85 509.541C1331.99 507.125 1334.04 505.18 1336.46 505.18H1436.15C1438.57 505.18 1440.41 507.14 1440.29 509.541L1435.5 596.736C1435.48 597.07 1435.74 597.359 1436.08 597.359C1436.41 597.359 1436.71 597.085 1436.73 596.736L1441.52 509.541C1441.65 507.125 1443.71 505.18 1446.12 505.18H1542.07C1542.4 505.18 1542.7 504.907 1542.72 504.557C1542.73 504.208 1542.48 503.934 1542.13 503.934Z" fill="white"/>
<path opacity="0.4" d="M1385.7 427.557H1347.17L1345.03 466.741L1383.5 467.758L1385.7 427.557Z" fill="#263238"/>
<path d="M1381.54 466.086C1368.65 465.464 1355.76 464.825 1342.85 464.202C1345 450.893 1346.34 437.538 1346.88 424.229C1359.85 424.851 1372.81 425.49 1385.78 426.112C1385.17 439.422 1383.74 452.762 1381.54 466.086Z" fill="white"/>
<path opacity="0.4" d="M1432.17 453.734L1393.58 456.667L1394.43 495.729L1433.04 493.815L1432.17 453.734Z" fill="#263238"/>
<path d="M1430.94 492.295C1417.99 492.66 1405.02 493.009 1392.07 493.374C1393.2 479.988 1393.52 466.633 1393.04 453.369C1406.09 453.005 1419.11 452.64 1432.14 452.275C1432.53 465.539 1432.12 478.909 1430.94 492.295Z" fill="#407BFF"/>
<path opacity="0.4" d="M1319.48 524.975L1248.34 522.256L1241.96 585.521L1312.93 589.897L1319.48 524.975Z" fill="#263238"/>
<path d="M1309.38 587.026C1285.63 585.096 1261.87 583.182 1238.1 581.252C1242.87 559.845 1246.17 538.346 1247.98 516.832C1271.89 518.762 1295.78 520.691 1319.67 522.621C1317.74 544.135 1314.29 565.633 1309.38 587.026Z" fill="white"/>
<g opacity="0.3">
<path opacity="0.3" d="M1246.26 436.415C1244.05 436.415 1242.35 434.607 1242.47 432.404C1242.6 430.201 1244.5 428.393 1246.7 428.393C1248.9 428.393 1250.61 430.201 1250.48 432.404C1250.36 434.607 1248.46 436.415 1246.26 436.415Z" fill="#263238"/>
<path opacity="0.8" d="M1309.11 436.415H1259.76C1257.55 436.415 1255.85 434.607 1255.97 432.404C1256.09 430.201 1257.99 428.393 1260.2 428.393H1309.55C1311.76 428.393 1313.46 430.201 1313.34 432.404C1313.23 434.607 1311.31 436.415 1309.11 436.415Z" fill="#263238"/>
<path opacity="0.3" d="M1245.3 453.887C1243.1 453.887 1241.39 452.079 1241.52 449.876C1241.64 447.673 1243.54 445.865 1245.74 445.865C1247.95 445.865 1249.65 447.673 1249.53 449.876C1249.4 452.095 1247.5 453.887 1245.3 453.887Z" fill="#263238"/>
<path opacity="0.8" d="M1316.89 453.887H1258.78C1256.58 453.887 1254.88 452.079 1255 449.876C1255.12 447.673 1257.02 445.865 1259.22 445.865H1317.33C1319.54 445.865 1321.24 447.673 1321.12 449.876C1321.01 452.095 1319.1 453.887 1316.89 453.887Z" fill="#263238"/>
<path opacity="0.3" d="M1244.33 471.376C1242.12 471.376 1240.42 469.568 1240.54 467.365C1240.66 465.162 1242.56 463.354 1244.77 463.354C1246.97 463.354 1248.68 465.162 1248.55 467.365C1248.45 469.568 1246.53 471.376 1244.33 471.376Z" fill="#263238"/>
<path opacity="0.8" d="M1286.11 471.376H1257.84C1255.64 471.376 1253.93 469.568 1254.06 467.365C1254.18 465.162 1256.08 463.354 1258.28 463.354H1286.57C1288.77 463.354 1290.48 465.162 1290.35 467.365C1290.22 469.568 1288.32 471.376 1286.11 471.376Z" fill="#263238"/>
<path opacity="0.8" d="M1312.3 488.862H1284.02C1281.81 488.862 1280.11 487.054 1280.23 484.851C1280.35 482.648 1282.25 480.84 1284.46 480.84H1312.74C1314.95 480.84 1316.65 482.648 1316.53 484.851C1316.41 487.054 1314.51 488.862 1312.3 488.862Z" fill="#263238"/>
<path opacity="0.3" d="M1243.37 488.862C1241.17 488.862 1239.46 487.054 1239.59 484.851C1239.71 482.648 1241.61 480.84 1243.81 480.84C1246.02 480.84 1247.72 482.648 1247.6 484.851C1247.47 487.054 1245.57 488.862 1243.37 488.862Z" fill="#263238"/>
<path opacity="0.8" d="M1269.92 488.862H1256.87C1254.66 488.862 1252.96 487.054 1253.08 484.851C1253.2 482.648 1255.1 480.84 1257.31 480.84H1270.37C1272.57 480.84 1274.27 482.648 1274.15 484.851C1274.04 487.054 1272.14 488.862 1269.92 488.862Z" fill="#263238"/>
</g>
<path d="M1366.08 540.885H1346.94L1344.31 588.759H1363.45L1366.08 540.885Z" fill="#407BFF"/>
<path d="M1395.13 550.746H1375.97L1373.89 588.76H1393.03L1395.13 550.746Z" fill="#407BFF"/>
<path d="M1426.09 525.25H1406.95L1403.47 588.759H1422.61L1426.09 525.25Z" fill="#407BFF"/>
<path d="M1351.21 567.899C1349.31 567.899 1347.41 567.854 1345.47 567.747C1342.12 567.58 1337.79 567.155 1333.89 565.408C1333.26 565.134 1332.99 564.405 1333.26 563.782C1333.54 563.159 1334.27 562.886 1334.89 563.159C1338.42 564.739 1342.46 565.134 1345.59 565.286C1368.56 566.471 1388.67 560.485 1408.91 546.477C1413.73 543.134 1420.95 536.95 1425.38 530.524C1425.75 529.961 1426.53 529.825 1427.09 530.204C1427.66 530.584 1427.79 531.359 1427.41 531.921C1422.81 538.606 1415.57 544.866 1410.33 548.497C1391.31 561.655 1372.39 567.899 1351.21 567.899Z" fill="white"/>
<path d="M1430.25 539.973C1430.1 539.973 1429.93 539.943 1429.78 539.882C1429.16 539.624 1428.86 538.895 1429.11 538.272C1430.86 534.048 1431.23 529.292 1430.18 524.977C1425.36 528.214 1420.24 530.933 1414.89 533.091C1414.25 533.349 1413.53 533.045 1413.28 532.407C1413.02 531.769 1413.32 531.055 1413.96 530.797C1419.66 528.502 1425.12 525.54 1430.18 521.984C1430.5 521.756 1430.91 521.696 1431.27 521.817C1431.64 521.939 1431.94 522.227 1432.06 522.592C1433.84 527.849 1433.6 533.896 1431.41 539.199C1431.2 539.685 1430.74 539.973 1430.25 539.973Z" fill="white"/>
<path d="M1531.05 492.782H1459.85C1458.65 492.782 1457.52 492.311 1456.72 491.46C1455.9 490.594 1455.49 489.469 1455.56 488.254L1458.88 428.088C1459.01 425.627 1461.13 423.621 1463.59 423.621H1534.78C1535.99 423.621 1537.11 424.092 1537.92 424.943C1538.74 425.809 1539.15 426.933 1539.07 428.149L1535.76 488.315C1535.62 490.776 1533.51 492.782 1531.05 492.782ZM1463.57 424.837C1461.75 424.837 1460.18 426.326 1460.09 428.134L1456.78 488.3C1456.73 489.166 1457.02 489.986 1457.6 490.594C1458.18 491.201 1458.97 491.536 1459.83 491.536H1531.03C1532.85 491.536 1534.42 490.047 1534.51 488.239L1537.82 428.073C1537.87 427.207 1537.58 426.386 1537 425.779C1536.43 425.171 1535.64 424.837 1534.77 424.837H1463.57Z" fill="#407BFF"/>
<path d="M1537.78 440.865H1458.8C1458.47 440.865 1458.18 440.592 1458.18 440.242C1458.18 439.908 1458.45 439.619 1458.8 439.619H1537.78C1538.11 439.619 1538.4 439.893 1538.4 440.242C1538.4 440.592 1538.13 440.865 1537.78 440.865Z" fill="#407BFF"/>
<path d="M1474.61 492.782C1474.59 492.782 1474.58 492.782 1474.58 492.782C1474.24 492.767 1473.97 492.478 1474 492.128L1476.86 440.212C1476.87 439.878 1477.16 439.605 1477.51 439.635C1477.85 439.65 1478.12 439.939 1478.09 440.288L1475.23 492.204C1475.2 492.523 1474.93 492.782 1474.61 492.782Z" fill="#407BFF"/>
<path d="M1528.73 447.035H1485.86C1485.52 447.035 1485.23 446.761 1485.23 446.412C1485.23 446.078 1485.51 445.789 1485.86 445.789H1528.73C1529.07 445.789 1529.36 446.063 1529.36 446.412C1529.36 446.761 1529.08 447.035 1528.73 447.035Z" fill="#407BFF"/>
<path d="M1522.27 454.601H1485.45C1485.11 454.601 1484.82 454.328 1484.82 453.978C1484.82 453.644 1485.1 453.355 1485.45 453.355H1522.27C1522.61 453.355 1522.9 453.629 1522.9 453.978C1522.9 454.328 1522.62 454.601 1522.27 454.601Z" fill="#407BFF"/>
<path d="M1506.45 462.41H1485C1484.67 462.41 1484.38 462.136 1484.38 461.787C1484.38 461.438 1484.65 461.164 1485 461.164H1506.45C1506.79 461.164 1507.07 461.438 1507.07 461.787C1507.07 462.136 1506.8 462.41 1506.45 462.41Z" fill="#407BFF"/>
<path d="M1510.34 477.65H1484.17C1483.83 477.65 1483.55 477.377 1483.55 477.027C1483.55 476.678 1483.82 476.404 1484.17 476.404H1510.34C1510.68 476.404 1510.97 476.678 1510.97 477.027C1510.97 477.377 1510.69 477.65 1510.34 477.65Z" fill="#407BFF"/>
<path d="M1505.19 485.474H1483.74C1483.41 485.474 1483.12 485.201 1483.12 484.851C1483.12 484.517 1483.39 484.229 1483.74 484.229H1505.19C1505.52 484.229 1505.81 484.502 1505.81 484.851C1505.8 485.186 1505.52 485.474 1505.19 485.474Z" fill="#407BFF"/>
<path d="M1517.75 485.474H1510.88C1510.54 485.474 1510.25 485.201 1510.25 484.851C1510.25 484.517 1510.53 484.229 1510.88 484.229H1517.75C1518.08 484.229 1518.37 484.502 1518.37 484.851C1518.35 485.186 1518.08 485.474 1517.75 485.474Z" fill="#407BFF"/>
<path d="M1524.75 469.976H1484.61C1484.27 469.976 1483.99 469.703 1483.99 469.353C1483.99 469.019 1484.26 468.73 1484.61 468.73H1524.75C1525.09 468.73 1525.38 469.004 1525.38 469.353C1525.36 469.703 1525.09 469.976 1524.75 469.976Z" fill="#407BFF"/>
<path d="M1487.32 580.311C1478.01 580.311 1470.4 577.561 1465.66 572.456C1460.61 567.001 1458.51 558.417 1459.91 548.906C1460.76 543.087 1462.68 538.194 1465.56 534.381C1468.47 530.552 1472.68 527.407 1478.07 525.006C1489.96 519.719 1503.73 519.901 1514.9 525.508C1519.9 528.015 1523.04 531.19 1524.22 534.943C1524.42 535.596 1524.07 536.28 1523.42 536.493C1522.76 536.69 1522.08 536.341 1521.86 535.687C1520.89 532.603 1518.17 529.914 1513.79 527.726C1503.28 522.454 1490.31 522.287 1479.08 527.285C1474.08 529.504 1470.18 532.406 1467.54 535.9C1464.9 539.379 1463.15 543.877 1462.36 549.286C1461.06 558.052 1462.93 565.892 1467.48 570.799C1473.8 577.621 1484.24 578.107 1489.91 577.788C1500.46 577.211 1509.52 573.519 1515.45 567.427C1522.38 560.286 1524.33 549.62 1519.96 542.6C1519.11 541.248 1517.3 538.924 1514.64 538.65C1513.96 538.589 1513.47 537.982 1513.54 537.298C1513.6 536.614 1514.2 536.128 1514.89 536.189C1517.64 536.462 1520.19 538.27 1522.06 541.294C1527 549.24 1524.92 561.212 1517.21 569.143C1510.86 575.692 1501.21 579.627 1490.04 580.25C1489.12 580.28 1488.21 580.311 1487.32 580.311Z" fill="white"/>
<path d="M1171.79 451.698L1167.42 459.341L1163.11 467.135C1160.29 472.346 1157.58 477.603 1155.12 482.875C1153.89 485.519 1152.72 488.163 1151.65 490.806L1151.46 491.292C1151.44 491.338 1151.41 491.368 1151.4 491.399C1151.32 491.475 1151.3 491.551 1151.26 491.611C1151.18 491.748 1151.12 491.87 1151.05 492.052C1150.94 492.401 1150.97 492.979 1151.23 493.754C1151.71 495.334 1153.14 497.385 1154.89 499.299C1156.61 501.229 1158.83 503.189 1160.82 504.921L1157.26 512.502C1155.45 511.986 1153.95 511.469 1152.35 510.77C1150.77 510.102 1149.24 509.297 1147.72 508.385C1144.69 506.516 1141.67 504.222 1139.14 500.439C1137.93 498.555 1136.88 496.215 1136.47 493.511C1136.29 492.158 1136.21 490.761 1136.39 489.378C1136.47 488.694 1136.58 487.995 1136.74 487.357L1136.99 486.37L1137.17 485.777C1138.14 482.678 1139.16 479.593 1140.34 476.631C1142.66 470.66 1145.25 464.901 1148.1 459.295C1149.51 456.484 1150.98 453.719 1152.54 450.984C1154.1 448.234 1155.61 445.575 1157.4 442.795L1171.79 451.698Z" fill="#FFC3BD"/>
<path d="M1157.02 504.054L1165 501.973L1165.46 514.857C1165.46 514.857 1159.21 515.783 1155.38 511.97L1157.02 504.054Z" fill="#FFC3BD"/>
<path d="M1176.32 499.816L1174.51 511.135L1165.46 514.873L1165 501.989L1176.32 499.816Z" fill="#FFC3BD"/>
<path d="M1209.35 390.954C1209.54 391.835 1210.14 392.458 1210.72 392.337C1211.3 392.215 1211.62 391.41 1211.44 390.529C1211.25 389.647 1210.64 389.024 1210.07 389.146C1209.5 389.268 1209.19 390.073 1209.35 390.954Z" fill="#263238"/>
<path d="M1210.07 392.475C1210.07 392.475 1213.11 397.154 1215.81 399.16C1214.55 400.937 1211.75 400.801 1211.75 400.801L1210.07 392.475Z" fill="#ED847E"/>
<path d="M1205.13 386.716C1205.01 386.716 1204.87 386.671 1204.76 386.58C1204.55 386.382 1204.53 386.048 1204.73 385.835C1206.72 383.693 1209.12 384.073 1209.23 384.088C1209.52 384.134 1209.72 384.407 1209.66 384.696C1209.61 384.984 1209.34 385.182 1209.05 385.136C1208.97 385.121 1207.09 384.848 1205.51 386.565C1205.42 386.656 1205.28 386.716 1205.13 386.716Z" fill="#263238"/>
<path d="M1184.21 403.367C1185.81 411.526 1187.42 426.492 1181.7 431.946C1181.7 431.946 1183.94 440.226 1199.12 440.226C1215.81 440.226 1207.1 431.946 1207.1 431.946C1198 429.773 1198.23 423.012 1199.82 416.677L1184.21 403.367Z" fill="#FFC3BD"/>
<path d="M1178.41 433.466C1177.19 431.202 1175.84 428.604 1178.62 427.784C1181.67 426.887 1201.33 425.231 1207.09 426.902C1205.31 430.063 1208.32 433.937 1208.32 433.937L1178.41 433.466Z" fill="#263238"/>
<path d="M1128.96 814.138C1130.08 814.381 1131.19 814.442 1131.74 813.986C1131.97 813.788 1132.2 813.424 1132 812.755C1131.89 812.406 1131.67 812.147 1131.32 811.98C1129.81 811.266 1126.35 812.679 1126.19 812.74C1126.1 812.786 1126.03 812.877 1126.03 812.983C1126.03 813.089 1126.09 813.181 1126.18 813.226C1126.71 813.469 1127.84 813.895 1128.96 814.138ZM1130.77 812.345C1130.88 812.375 1130.98 812.406 1131.07 812.451C1131.29 812.558 1131.41 812.694 1131.47 812.907C1131.6 813.378 1131.44 813.53 1131.38 813.576C1130.78 814.092 1128.55 813.621 1126.97 812.983C1128.06 812.618 1129.78 812.132 1130.77 812.345Z" fill="#407BFF"/>
<path d="M1126.24 813.226C1126.28 813.241 1126.33 813.241 1126.38 813.226C1127.64 812.862 1130.34 810.947 1130.37 809.671C1130.37 809.443 1130.3 809.033 1129.69 808.82C1129.29 808.683 1128.9 808.714 1128.52 808.911C1127.03 809.671 1126.09 812.771 1126.04 812.892C1126.01 812.983 1126.04 813.09 1126.1 813.15C1126.15 813.196 1126.19 813.226 1126.24 813.226ZM1129.4 809.291C1129.45 809.306 1129.48 809.306 1129.52 809.322C1129.86 809.443 1129.84 809.595 1129.84 809.671C1129.83 810.416 1128.05 811.92 1126.74 812.527C1127.08 811.631 1127.82 809.869 1128.78 809.382C1128.98 809.276 1129.19 809.246 1129.4 809.291Z" fill="#407BFF"/>
<path d="M1211.4 816.005C1212.83 816.005 1214.22 815.808 1214.69 815.17C1214.86 814.942 1214.98 814.562 1214.67 814.015C1214.51 813.711 1214.22 813.498 1213.84 813.392C1211.98 812.891 1208.08 815.109 1207.91 815.2C1207.82 815.261 1207.76 815.367 1207.77 815.474C1207.79 815.58 1207.88 815.671 1207.98 815.686C1208.68 815.838 1210.07 816.005 1211.4 816.005ZM1213.17 813.848C1213.35 813.848 1213.53 813.863 1213.68 813.909C1213.93 813.969 1214.1 814.091 1214.2 814.273C1214.38 814.607 1214.32 814.759 1214.25 814.851C1213.73 815.565 1210.9 815.595 1208.84 815.291C1209.87 814.775 1211.86 813.848 1213.17 813.848Z" fill="#407BFF"/>
<path d="M1208.03 815.703C1208.06 815.703 1208.11 815.688 1208.14 815.673C1209.49 815.065 1212.15 812.649 1211.95 811.388C1211.91 811.084 1211.69 810.72 1210.96 810.644C1210.42 810.583 1209.93 810.735 1209.5 811.1C1208.09 812.27 1207.79 815.278 1207.77 815.399C1207.76 815.491 1207.8 815.582 1207.88 815.643C1207.92 815.688 1207.97 815.703 1208.03 815.703ZM1210.75 811.176C1210.8 811.176 1210.86 811.176 1210.9 811.191C1211.37 811.236 1211.4 811.419 1211.42 811.495C1211.54 812.254 1209.73 814.154 1208.35 814.974C1208.49 814.093 1208.9 812.3 1209.82 811.525C1210.11 811.282 1210.42 811.176 1210.75 811.176Z" fill="#407BFF"/>
<path d="M1195.75 815.428H1206.92L1208.03 789.584H1196.86L1195.75 815.428Z" fill="#FFC3BD"/>
<path d="M1113.79 810.264L1124.7 812.634L1135.66 788.552L1124.75 786.197L1113.79 810.264Z" fill="#FFC3BD"/>
<path d="M1125.75 811.54L1113.49 808.881C1113.05 808.79 1112.59 809.018 1112.39 809.428L1108.14 818.666C1107.7 819.623 1108.27 820.747 1109.31 820.945C1113.61 821.796 1115.74 821.993 1121.13 823.163C1124.45 823.877 1131.94 825.7 1136.51 826.703C1141 827.676 1142.67 823.3 1140.89 822.479C1132.88 818.818 1129.54 815.597 1127.36 812.604C1126.98 812.042 1126.41 811.677 1125.75 811.54Z" fill="#263238"/>
<path d="M1206.84 814.137H1194.65C1194.2 814.137 1193.8 814.456 1193.7 814.896L1191.49 824.818C1191.26 825.851 1192.04 826.823 1193.1 826.808C1197.5 826.732 1203.87 826.474 1209.38 826.474C1215.84 826.474 1221.44 826.823 1229.01 826.823C1233.6 826.823 1234.86 822.189 1232.94 821.764C1224.2 819.849 1217.07 819.652 1209.52 815.003C1208.71 814.501 1207.8 814.137 1206.84 814.137Z" fill="#263238"/>
<path d="M1161.7 434.469C1151.23 436.87 1142.61 463.58 1142.61 463.58L1163.63 479.594C1163.63 479.594 1171.34 472.331 1174.77 458.961C1178.38 444.968 1172.4 432.023 1161.7 434.469Z" fill="#407BFF"/>
<path opacity="0.2" d="M1161.7 434.469C1151.23 436.87 1142.61 463.58 1142.61 463.58L1163.63 479.594C1163.63 479.594 1171.34 472.331 1174.77 458.961C1178.38 444.968 1172.4 432.023 1161.7 434.469Z" fill="#FAFAFA"/>
<path opacity="0.2" d="M1170.67 454.113C1164.98 459.735 1163.13 469.975 1162.69 478.879L1163.62 479.593C1163.62 479.593 1171.34 472.315 1174.77 458.96C1174.99 458.124 1175.17 457.289 1175.32 456.468L1170.67 454.113Z" fill="black"/>
<path d="M1224.26 435.046C1224.26 435.046 1236.15 448.462 1224.92 531.524C1206.92 531.524 1173.95 531.524 1165.2 531.524C1164.79 522.362 1170.55 477.648 1161.7 434.468C1161.7 434.468 1171.95 432.417 1181.69 431.946C1189.32 431.582 1200.37 431.339 1207.07 431.946C1215.93 432.752 1224.26 435.046 1224.26 435.046Z" fill="#407BFF"/>
<path opacity="0.2" d="M1224.26 435.046C1224.26 435.046 1236.15 448.462 1224.92 531.524C1206.92 531.524 1173.95 531.524 1165.2 531.524C1164.79 522.362 1170.55 477.648 1161.7 434.468C1161.7 434.468 1171.95 432.417 1181.69 431.946C1189.32 431.582 1200.37 431.339 1207.07 431.946C1215.93 432.752 1224.26 435.046 1224.26 435.046Z" fill="#FAFAFA"/>
<path opacity="0.2" d="M1229.48 460.434L1229.25 460.236L1215.68 463.488C1214.9 472.665 1224.34 483.634 1229.2 488.648C1229.87 476.934 1229.86 467.696 1229.48 460.434Z" fill="black"/>
<path opacity="0.2" d="M1208.03 789.6L1207.45 802.924H1196.28L1196.86 789.6H1208.03Z" fill="black"/>
<path opacity="0.2" d="M1124.73 786.197L1135.66 788.567L1130.01 800.965L1119.1 798.61L1124.73 786.197Z" fill="black"/>
<path d="M1179.55 395.073C1182.42 405.769 1183.54 412.181 1190.16 416.632C1200.1 423.317 1212.47 415.645 1212.85 404.31C1213.2 394.1 1208.44 378.314 1196.96 376.157C1185.64 374.03 1176.67 384.377 1179.55 395.073Z" fill="#FFC3BD"/>
<path d="M1184.46 412.513C1189 415.112 1205.6 406.421 1202.19 393.233C1202.19 393.233 1208.52 385.636 1207.8 377.249C1207.09 368.863 1201.33 365.672 1195.2 367.465C1189.81 369.045 1189.96 372.008 1189.96 372.008C1189.96 372.008 1164.44 375.016 1169.89 385.378C1159.5 396.697 1178.77 409.277 1184.46 412.513Z" fill="#263238"/>
<path d="M1170.61 386.244C1170.61 386.244 1167.57 380.987 1163.13 383.935C1165.21 383.965 1168.63 384.314 1170.61 386.244Z" fill="#263238"/>
<path d="M1206.98 382.781C1206.98 382.781 1212.54 370.231 1203.87 366.189C1206.8 370.261 1208.4 376.825 1206.98 382.781Z" fill="#263238"/>
<path d="M1197.76 395.527C1198.48 398.338 1200.32 400.754 1202.25 402.182C1205.16 404.339 1207.33 402.212 1207.12 398.93C1206.94 395.968 1205.2 391.288 1202 390.407C1198.85 389.541 1196.92 392.306 1197.76 395.527Z" fill="#FFC3BD"/>
<path d="M1203.74 531.523C1203.74 531.523 1191.07 616.819 1184.12 648.786C1176.51 683.777 1135.65 799.566 1135.65 799.566L1115.66 795.236C1115.66 795.236 1144.22 700.885 1150.62 651.962C1155.53 614.388 1165.21 531.539 1165.21 531.539H1203.74V531.523Z" fill="#263238"/>
<path d="M1140.42 792.881C1140.51 792.896 1136.7 800.113 1136.7 800.113L1114.2 795.251L1116.1 788.49L1140.42 792.881Z" fill="#407BFF"/>
<path opacity="0.3" d="M1195.73 561.911C1181.08 564.782 1182.63 619.403 1184.39 647.495C1188.62 627.638 1194.81 589.426 1199.03 562.306C1198.06 561.82 1196.96 561.668 1195.73 561.911Z" fill="black"/>
<path d="M1224.92 531.523C1224.92 531.523 1226.45 614.981 1225.24 649.014C1223.98 684.415 1211.6 800.341 1211.6 800.341H1192.68C1192.68 800.341 1191.98 686.481 1191.14 651.719C1190.23 613.811 1185.64 531.523 1185.64 531.523H1224.92Z" fill="#263238"/>
<path opacity="0.4" d="M1329.93 472.68H1291.4L1289.24 511.864L1327.73 512.882L1329.93 472.68Z" fill="#263238"/>
<path d="M1309.69 497.886C1296.83 496.306 1283.95 494.711 1271.1 493.131C1274.21 480.065 1276.54 466.907 1278.06 453.734C1290.99 455.33 1303.94 456.925 1316.88 458.505C1315.28 471.678 1312.88 484.835 1309.69 497.886Z" fill="#407BFF"/>
<path d="M1215.25 792.807C1215.34 792.807 1214.19 800.662 1214.19 800.662H1191.17L1190.55 793.657L1215.25 792.807Z" fill="#407BFF"/>
<path d="M1229.77 445.227C1231.48 447.901 1233.44 450.894 1235.39 453.674C1237.38 456.47 1239.37 459.265 1241.47 461.955C1245.62 467.333 1250.03 472.514 1254.77 476.799C1255.94 477.877 1257.14 478.895 1258.36 479.822L1259.27 480.506C1259.19 480.46 1258.9 480.354 1258.74 480.323C1258.34 480.247 1258.14 480.308 1258.25 480.369C1258.48 480.491 1259.59 480.293 1260.76 479.792C1261.94 479.29 1263.28 478.607 1264.6 477.801C1269.96 474.489 1275.47 469.855 1280.66 465.358L1287.18 470.63C1283.13 477.148 1278.68 483.043 1272.55 488.452C1271 489.789 1269.33 491.111 1267.33 492.296C1265.3 493.451 1263.02 494.651 1259.65 495.137C1257.98 495.35 1255.94 495.319 1253.84 494.651C1252.82 494.347 1251.73 493.8 1250.89 493.283L1249.57 492.448C1247.84 491.323 1246.18 490.138 1244.6 488.892C1238.31 483.909 1233.06 478.303 1228.23 472.468C1225.84 469.521 1223.53 466.543 1221.41 463.443C1219.23 460.314 1217.21 457.321 1215.19 453.841L1229.77 445.227Z" fill="#FFC3BD"/>
<path d="M1207.83 451.926C1204.26 466.891 1231.35 481.538 1231.35 481.538L1248.95 460.936C1248.95 460.936 1240.94 448.796 1230.97 439.239C1218.67 427.434 1210.55 440.531 1207.83 451.926Z" fill="#407BFF"/>
<path opacity="0.2" d="M1207.83 451.926C1204.26 466.891 1231.35 481.538 1231.35 481.538L1248.95 460.936C1248.95 460.936 1240.94 448.796 1230.97 439.239C1218.67 427.434 1210.55 440.531 1207.83 451.926Z" fill="#FAFAFA"/>
<path d="M1278.89 468.471L1283.04 455.146L1293.97 460.586C1293.97 460.586 1292.38 470.31 1284.43 471.996L1278.89 468.471Z" fill="#FFC3BD"/>
<path d="M1287.44 451.455L1297.28 454.16L1293.99 460.586L1283.06 455.147L1287.44 451.455Z" fill="#FFC3BD"/>
</g>
<defs>
<clipPath id="clip0">
<rect width="1920" height="1081" fill="white"/>
</clipPath>
</defs>
</svg>
