<svg width="122" height="122" viewBox="0 0 122 122" fill="none" xmlns="http://www.w3.org/2000/svg">
<g filter="url(#filter0_d)">
<circle cx="61" cy="57" r="49" fill="#FF9000"/>
</g>
<path d="M56.5504 47.8643C57.3632 50.6079 57.7695 53.4032 57.7695 56.2504C57.7695 59.6152 56.9568 62.2552 55.3313 64.1706C53.7566 66.0342 51.3946 66.966 48.2453 66.966V62.6176C49.566 62.6176 50.5311 62.2294 51.1406 61.4529C51.801 60.6764 52.1312 59.4599 52.1312 57.8034V56.328H47.7119V47.8643H56.5504Z" fill="white"/>
<path d="M73.0691 47.8643C73.8818 50.6079 74.2882 53.4032 74.2882 56.2504C74.2882 59.6152 73.4754 62.2552 71.85 64.1706C70.2753 66.0342 67.9133 66.966 64.7639 66.966V62.6176C66.0846 62.6176 67.0497 62.2294 67.6593 61.4529C68.3196 60.6764 68.6498 59.4599 68.6498 57.8034V56.328H64.2306V47.8643H73.0691Z" fill="white"/>
<defs>
<filter id="filter0_d" x="0" y="0" width="122" height="122" filterUnits="userSpaceOnUse" color-interpolation-filters="sRGB">
<feFlood flood-opacity="0" result="BackgroundImageFix"/>
<feColorMatrix in="SourceAlpha" type="matrix" values="0 0 0 0 0 0 0 0 0 0 0 0 0 0 0 0 0 0 127 0"/>
<feOffset dy="4"/>
<feGaussianBlur stdDeviation="6"/>
<feColorMatrix type="matrix" values="0 0 0 0 1 0 0 0 0 0.564706 0 0 0 0 0 0 0 0 0.35 0"/>
<feBlend mode="normal" in2="BackgroundImageFix" result="effect1_dropShadow"/>
<feBlend mode="normal" in="SourceGraphic" in2="effect1_dropShadow" result="shape"/>
</filter>
</defs>
</svg>
