<svg width="1920" height="1081" viewBox="0 0 1920 1081" fill="none" xmlns="http://www.w3.org/2000/svg">
<g clip-path="url(#clip0)">
<path d="M1225 424.5C1307.8 440.1 1342.83 588 1357.5 657C1368.5 456.5 1617.5 506.5 1706.5 577C1795.5 647.5 1918.83 456.5 1969 427.5V-137H-15.5C-18.1666 -44.3333 -42.7 142.7 -23.5 181.5C0.500019 230 263 288.5 430 208.5C597 128.5 855.715 80 929 285.5C1002.28 491 1121.5 405 1225 424.5Z" fill="#F7F7FC" stroke="#A5AAD1"/>
<path d="M1225 404.5C1307.8 420.1 1342.83 568 1357.5 637C1368.5 436.5 1617.5 436.5 1706.5 507C1795.5 577.5 1918.83 386.5 1969 357.5V-157H-15.5C-18.1666 -64.3333 -42.7 122.7 -23.5 161.5C0.500019 210 263 268.5 430 188.5C597 108.5 855.715 74 929 279.5C1002.28 485 1121.5 385 1225 404.5Z" fill="#1A2749"/>
<path opacity="0.2" d="M1225 379.5C1307.8 395.1 1342.83 543 1357.5 612C1368.5 411.5 1617.5 461.5 1706.5 532C1795.5 602.5 1918.83 411.5 1969 382.5V-182H-15.5C-18.1666 -89.3333 -42.7 97.7 -23.5 136.5C0.500019 185 263 243.5 430 163.5C597 83.5 855.715 35 929 240.5C1002.28 446 1121.5 360 1225 379.5Z" stroke="#A5AAD1"/>
<path opacity="0.15" d="M1318.05 349.903C1409.63 367.153 1448.38 530.7 1464.61 607C1476.77 385.288 1752.2 440.578 1850.64 518.537C1949.09 596.495 2085.51 385.288 2141 353.22V-271H-54.0956C-57.0452 -168.53 -84.1821 38.2904 -62.9446 81.1952C-36.3977 134.826 253.959 199.515 438.681 111.052C623.403 22.5882 909.573 -31.0428 990.635 196.198C1071.7 423.438 1203.56 328.34 1318.05 349.903Z" stroke="#A5AAD1"/>
<path opacity="0.05" d="M1373.05 256.903C1464.63 274.153 1503.38 437.7 1519.61 514C1531.77 292.288 1807.2 347.578 1905.64 425.537C2004.09 503.495 2140.51 292.288 2196 260.22V-364H0.904421C-2.04523 -261.53 -29.1821 -54.7096 -7.94456 -11.8048C18.6023 41.8262 308.959 106.515 493.681 18.0516C678.403 -70.4118 964.573 -124.043 1045.63 103.198C1126.7 330.438 1258.56 235.34 1373.05 256.903Z" stroke="#A5AAD1"/>
<path d="M1647.28 688.17H1131V688.428H1647.28V688.17Z" fill="#EBEBEB"/>
<path d="M1265.61 697.996H1185.17V698.254H1265.61V697.996Z" fill="#EBEBEB"/>
<path d="M1595.55 705.85H1556.41V706.108H1595.55V705.85Z" fill="#EBEBEB"/>
<path d="M1286.46 707.584H1266.65V707.842H1286.46V707.584Z" fill="#EBEBEB"/>
<path d="M1384.35 695.199H1339.75V695.457H1384.35V695.199Z" fill="#EBEBEB"/>
<path d="M1400.07 695.199H1393.54V695.457H1400.07V695.199Z" fill="#EBEBEB"/>
<path d="M1513.96 701.484H1469.34V701.742H1513.96V701.484Z" fill="#EBEBEB"/>
<path d="M1353.15 581.931H1153.77C1150.52 581.931 1147.88 579.289 1147.88 576.038V295.893C1147.88 292.642 1150.52 290 1153.77 290H1353.16C1356.41 290 1359.05 292.642 1359.05 295.893V576.038C1359.04 579.289 1356.4 581.931 1353.15 581.931ZM1153.77 290.258C1150.66 290.258 1148.13 292.787 1148.13 295.893V576.038C1148.13 579.145 1150.66 581.673 1153.77 581.673H1353.16C1356.27 581.673 1358.8 579.145 1358.8 576.038V295.893C1358.8 292.787 1356.27 290.258 1353.16 290.258H1153.77Z" fill="#EBEBEB"/>
<path d="M1599.07 642.138H1399.68C1396.43 642.138 1393.78 639.496 1393.78 636.245V356.1C1393.78 352.849 1396.43 350.207 1399.68 350.207H1599.07C1602.32 350.207 1604.96 352.849 1604.96 356.1V636.245C1604.96 639.496 1602.32 642.138 1599.07 642.138ZM1399.68 350.465C1396.57 350.465 1394.04 352.994 1394.04 356.1V636.245C1394.04 639.352 1396.57 641.88 1399.68 641.88H1599.07C1602.17 641.88 1604.7 639.352 1604.7 636.245V356.1C1604.7 352.994 1602.17 350.465 1599.07 350.465H1399.68Z" fill="#EBEBEB"/>
<path d="M1268.2 664.576H1217.46C1215.19 664.576 1213.27 662.915 1212.94 660.685L1200.24 573.916C1199.84 571.171 1201.97 568.704 1204.76 568.704H1255.48C1257.75 568.704 1259.67 570.366 1260 572.595L1272.7 659.364C1273.1 662.11 1270.97 664.576 1268.2 664.576Z" fill="#F0F0F0"/>
<path d="M1223.5 664.576H1199.57C1197.31 664.576 1195.39 662.915 1195.06 660.685L1182.36 573.916C1181.96 571.171 1184.08 568.704 1186.87 568.704H1210.8C1213.06 568.704 1214.98 570.366 1215.31 572.595L1228.01 659.364C1228.4 662.11 1226.27 664.576 1223.5 664.576Z" fill="#FAFAFA"/>
<path d="M1526.28 546.7H1279.71C1273.45 546.7 1267.94 551.396 1267.4 557.186L1261.19 624.18C1260.66 629.97 1265.3 634.666 1271.56 634.666H1518.13C1524.39 634.666 1529.91 629.97 1530.44 624.18L1536.65 557.186C1537.19 551.396 1532.55 546.7 1526.28 546.7Z" fill="#E0E0E0"/>
<path d="M1509.54 546.7H1262.97C1256.71 546.7 1251.2 551.396 1250.66 557.186L1244.46 624.18C1243.92 629.97 1248.57 634.666 1254.82 634.666H1501.4C1507.65 634.666 1513.17 629.97 1513.71 624.18L1519.91 557.186C1520.45 551.396 1515.81 546.7 1509.54 546.7Z" fill="#E6E6E6"/>
<path d="M1231.84 657.145V633.293C1231.84 629.196 1235.16 625.872 1239.26 625.872H1332.13C1336.23 625.872 1339.55 629.196 1339.55 633.293V657.145C1339.55 661.243 1336.23 664.566 1332.13 664.566H1239.26C1235.16 664.576 1231.84 661.243 1231.84 657.145Z" fill="#EBEBEB"/>
<path d="M1366.13 657.775V632.664C1366.13 628.907 1369.18 625.872 1372.93 625.872H1481.31C1485.07 625.872 1488.11 628.917 1488.11 632.664V657.775C1488.11 661.532 1485.06 664.566 1481.31 664.566H1372.93C1369.17 664.576 1366.13 661.532 1366.13 657.775Z" fill="#E0E0E0"/>
<path d="M1339.57 657.775V632.664C1339.57 628.907 1342.61 625.872 1346.36 625.872H1454.75C1458.51 625.872 1461.54 628.917 1461.54 632.664V657.775C1461.54 661.532 1458.49 664.566 1454.75 664.566H1346.37C1342.61 664.576 1339.57 661.532 1339.57 657.775Z" fill="#EBEBEB"/>
<path d="M1525.61 664.576H1487.87C1485.09 664.576 1483.28 662.11 1484.03 659.364L1507.8 572.595C1508.41 570.355 1510.55 568.704 1512.81 568.704H1550.55C1553.32 568.704 1555.14 571.171 1554.39 573.916L1530.62 660.685C1530 662.915 1527.87 664.576 1525.61 664.576Z" fill="#F0F0F0"/>
<path d="M1493.9 664.576H1469.98C1467.2 664.576 1465.38 662.11 1466.14 659.364L1489.91 572.595C1490.51 570.355 1492.65 568.704 1494.91 568.704H1518.84C1521.61 568.704 1523.43 571.171 1522.68 573.916L1498.91 660.685C1498.29 662.915 1496.16 664.576 1493.9 664.576Z" fill="#FAFAFA"/>
<path d="M1473.89 688.17H1470.26L1461.56 664.576H1470.54L1473.89 688.17Z" fill="#E0E0E0"/>
<path d="M1519.96 688.17H1516.33L1507.62 664.576H1516.62L1519.96 688.17Z" fill="#E0E0E0"/>
<path d="M1258.08 688.17H1261.71L1270.41 664.576H1261.41L1258.08 688.17Z" fill="#E0E0E0"/>
<path d="M1212 688.17H1215.64L1224.33 664.576H1215.35L1212 688.17Z" fill="#E0E0E0"/>
<path d="M1526.81 394.288H1251.47V492.452H1526.81V394.288Z" fill="#E0E0E0"/>
<path d="M1524.28 394.288H1248.94V492.452H1524.28V394.288Z" fill="#F0F0F0"/>
<path d="M1516.02 484.199V402.55L1257.2 402.55V484.199L1516.02 484.199Z" fill="#FAFAFA"/>
<path d="M1386.62 467.857C1400.15 467.857 1411.11 456.896 1411.11 443.375C1411.11 429.855 1400.15 418.894 1386.62 418.894C1373.09 418.894 1362.13 429.855 1362.13 443.375C1362.13 456.896 1373.09 467.857 1386.62 467.857Z" fill="#F0F0F0"/>
<path d="M1299.22 484.205L1316.37 402.545H1354.24L1337.08 484.205H1299.22Z" fill="white"/>
<path d="M1353.05 484.205L1370.21 402.545H1389.14L1371.99 484.205H1353.05Z" fill="white"/>
<path d="M1468.63 484.205L1485.8 402.545H1504.72L1487.57 484.205H1468.63Z" fill="white"/>
<path d="M1587.68 553.336C1581.25 581.161 1596.97 609.906 1590.55 637.742C1588.43 637.649 1586.3 637.566 1584.19 637.473C1582.07 637.38 1579.94 637.298 1577.83 637.205C1588.48 609.555 1577.01 580.986 1587.68 553.336Z" fill="#F0F0F0"/>
<path d="M1571.21 565.401C1576.47 592.009 1559.58 618.606 1564.84 645.214C1566.96 645.214 1569.08 645.214 1571.21 645.214C1573.33 645.214 1575.45 645.214 1577.58 645.214C1568.07 618.617 1580.72 592.009 1571.21 565.401Z" fill="#F0F0F0"/>
<path d="M1582.97 543.283C1574.54 571.656 1590.21 602.278 1581.78 630.651C1579.48 630.434 1577.17 630.217 1574.86 630.001C1572.56 629.784 1570.25 629.567 1567.95 629.35C1580.98 601.411 1569.93 571.222 1582.97 543.283Z" fill="#E6E6E6"/>
<path d="M1595.37 584.134C1598.09 599.481 1582.94 611.536 1585.65 626.884C1587.37 627.193 1589.07 627.513 1590.79 627.823C1592.5 628.133 1594.2 628.453 1595.92 628.762C1589.78 612.806 1601.5 600.111 1595.37 584.134Z" fill="#E6E6E6"/>
<path d="M1580.18 695.911C1599.37 695.911 1614.93 678.5 1614.93 657.021C1614.93 635.543 1599.37 618.132 1580.18 618.132C1560.99 618.132 1545.44 635.543 1545.44 657.021C1545.44 678.5 1560.99 695.911 1580.18 695.911Z" fill="#E0E0E0"/>
<path d="M1347.75 737.038C1458.31 737.038 1547.95 731.807 1547.95 725.355C1547.95 718.902 1458.31 713.671 1347.75 713.671C1237.18 713.671 1147.54 718.902 1147.54 725.355C1147.54 731.807 1237.18 737.038 1347.75 737.038Z" fill="#EDEDFB"/>
<path d="M1485.9 579.157H1262.77C1260.36 579.157 1258.5 577.185 1258.64 574.781L1266.15 438.047C1266.29 435.642 1268.36 433.671 1270.77 433.671H1493.9C1496.31 433.671 1498.17 435.642 1498.03 438.047L1490.52 574.781C1490.38 577.196 1488.31 579.157 1485.9 579.157Z" fill="#263238"/>
<path d="M1392.03 456.935H1370.46C1363.27 456.935 1357.71 451.062 1358.1 443.879L1358.32 439.895C1358.7 432.938 1364.71 427.251 1371.68 427.251H1393.24C1400.44 427.251 1406 433.134 1405.61 440.318L1405.39 444.291C1405.02 451.237 1399 456.935 1392.03 456.935Z" fill="#263238"/>
<path d="M1411.67 721.04H1404.76L1385.73 430.286H1392.64L1411.67 721.04Z" fill="#263238"/>
<path d="M1359.8 721.04H1366.71L1385.73 430.286H1378.83L1359.8 721.04Z" fill="#263238"/>
<path d="M1484.71 579.157H1261.58C1259.17 579.157 1257.31 577.185 1257.45 574.781L1264.97 438.047C1265.1 435.642 1267.18 433.671 1269.58 433.671H1492.72C1495.12 433.671 1496.98 435.642 1496.85 438.047L1489.33 574.781C1489.19 577.196 1487.12 579.157 1484.71 579.157Z" fill="#407BFF"/>
<path opacity="0.4" d="M1265.12 574.966C1263.19 574.966 1261.71 573.398 1261.82 571.478L1268.97 441.36C1269.08 439.43 1270.73 437.872 1272.66 437.872H1489.16C1491.09 437.872 1492.57 439.44 1492.47 441.36L1485.31 571.478C1485.21 573.408 1483.56 574.966 1481.63 574.966H1265.12Z" fill="#263238"/>
<path opacity="0.1" d="M1482.97 506.001H1417.79C1416.15 506.001 1414.9 504.67 1414.99 503.039L1418.24 443.806C1418.25 443.579 1418.07 443.383 1417.85 443.383C1417.62 443.383 1417.41 443.569 1417.4 443.806L1414.15 503.039C1414.06 504.68 1412.66 506.001 1411.02 506.001H1343.31C1341.66 506.001 1340.41 504.67 1340.5 503.039L1343.75 443.806C1343.76 443.579 1343.58 443.383 1343.36 443.383C1343.13 443.383 1342.92 443.569 1342.91 443.806L1339.66 503.039C1339.57 504.68 1338.17 506.001 1336.53 506.001H1271.36C1271.13 506.001 1270.92 506.187 1270.91 506.424C1270.9 506.651 1271.08 506.847 1271.31 506.847H1336.48C1338.12 506.847 1339.37 508.179 1339.29 509.809L1336.04 569.042C1336.03 569.269 1336.2 569.465 1336.43 569.465C1336.66 569.465 1336.86 569.279 1336.87 569.042L1340.13 509.809C1340.22 508.168 1341.61 506.847 1343.25 506.847H1410.98C1412.62 506.847 1413.87 508.179 1413.79 509.809L1410.54 569.042C1410.52 569.269 1410.7 569.465 1410.93 569.465C1411.15 569.465 1411.36 569.279 1411.37 569.042L1414.62 509.809C1414.72 508.168 1416.11 506.847 1417.75 506.847H1482.93C1483.15 506.847 1483.36 506.662 1483.37 506.424C1483.38 506.187 1483.21 506.001 1482.97 506.001Z" fill="white"/>
<path opacity="0.4" d="M1376.71 454.117H1350.53L1349.08 480.735L1375.21 481.427L1376.71 454.117Z" fill="#263238"/>
<path d="M1373.88 480.291C1365.12 479.868 1356.37 479.435 1347.6 479.011C1349.06 469.97 1349.97 460.898 1350.34 451.857C1359.15 452.28 1367.95 452.713 1376.76 453.137C1376.35 462.178 1375.38 471.24 1373.88 480.291Z" fill="white"/>
<path opacity="0.4" d="M1408.27 471.9L1382.06 473.892L1382.64 500.428L1408.86 499.127L1408.27 471.9Z" fill="#263238"/>
<path d="M1407.44 498.095C1398.64 498.343 1389.83 498.58 1381.04 498.828C1381.8 489.735 1382.02 480.663 1381.7 471.652C1390.56 471.405 1399.4 471.157 1408.25 470.909C1408.52 479.92 1408.24 489.002 1407.44 498.095Z" fill="#407BFF"/>
<path opacity="0.4" d="M1331.72 520.296L1283.4 518.448L1279.06 561.425L1327.27 564.398L1331.72 520.296Z" fill="#263238"/>
<path d="M1324.86 562.447C1308.73 561.136 1292.59 559.836 1276.44 558.525C1279.68 543.982 1281.92 529.378 1283.15 514.764C1299.39 516.074 1315.62 517.385 1331.85 518.696C1330.54 533.31 1328.2 547.915 1324.86 562.447Z" fill="white"/>
<g opacity="0.3">
<path opacity="0.3" d="M1281.98 460.134C1280.49 460.134 1279.33 458.906 1279.41 457.409C1279.49 455.913 1280.78 454.685 1282.28 454.685C1283.78 454.685 1284.94 455.913 1284.85 457.409C1284.77 458.906 1283.48 460.134 1281.98 460.134Z" fill="#263238"/>
<path opacity="0.8" d="M1324.68 460.134H1291.15C1289.65 460.134 1288.5 458.906 1288.58 457.409C1288.66 455.913 1289.95 454.685 1291.45 454.685H1324.98C1326.48 454.685 1327.63 455.913 1327.55 457.409C1327.48 458.906 1326.18 460.134 1324.68 460.134Z" fill="#263238"/>
<path opacity="0.3" d="M1281.33 472.003C1279.83 472.003 1278.68 470.775 1278.76 469.279C1278.84 467.782 1280.13 466.554 1281.63 466.554C1283.13 466.554 1284.29 467.782 1284.2 469.279C1284.12 470.786 1282.83 472.003 1281.33 472.003Z" fill="#263238"/>
<path opacity="0.8" d="M1329.97 472.003H1290.49C1288.99 472.003 1287.84 470.775 1287.92 469.279C1288 467.782 1289.29 466.554 1290.79 466.554H1330.26C1331.76 466.554 1332.92 467.782 1332.84 469.279C1332.76 470.786 1331.46 472.003 1329.97 472.003Z" fill="#263238"/>
<path opacity="0.3" d="M1280.67 483.883C1279.17 483.883 1278.02 482.655 1278.1 481.158C1278.18 479.662 1279.47 478.433 1280.97 478.433C1282.47 478.433 1283.62 479.662 1283.54 481.158C1283.47 482.655 1282.17 483.883 1280.67 483.883Z" fill="#263238"/>
<path opacity="0.8" d="M1309.06 483.883H1289.85C1288.35 483.883 1287.2 482.655 1287.28 481.158C1287.36 479.662 1288.65 478.433 1290.15 478.433H1309.37C1310.86 478.433 1312.02 479.662 1311.94 481.158C1311.84 482.655 1310.55 483.883 1309.06 483.883Z" fill="#263238"/>
<path opacity="0.8" d="M1326.85 495.762H1307.63C1306.13 495.762 1304.98 494.534 1305.06 493.038C1305.14 491.541 1306.43 490.313 1307.93 490.313H1327.15C1328.64 490.313 1329.8 491.541 1329.72 493.038C1329.63 494.534 1328.34 495.762 1326.85 495.762Z" fill="#263238"/>
<path opacity="0.3" d="M1280.02 495.762C1278.52 495.762 1277.37 494.534 1277.45 493.038C1277.53 491.541 1278.82 490.313 1280.32 490.313C1281.82 490.313 1282.97 491.541 1282.89 493.038C1282.81 494.534 1281.52 495.762 1280.02 495.762Z" fill="#263238"/>
<path opacity="0.8" d="M1298.06 495.762H1289.19C1287.69 495.762 1286.54 494.534 1286.62 493.038C1286.7 491.541 1287.99 490.313 1289.49 490.313H1298.36C1299.86 490.313 1301.01 491.541 1300.93 493.038C1300.86 494.534 1299.57 495.762 1298.06 495.762Z" fill="#263238"/>
</g>
<path d="M1363.38 531.102H1350.38L1348.59 563.623H1361.59L1363.38 531.102Z" fill="#407BFF"/>
<path d="M1383.11 537.8H1370.1L1368.69 563.623H1381.69L1383.11 537.8Z" fill="#407BFF"/>
<path d="M1404.14 520.481H1391.14L1388.78 563.623H1401.78L1404.14 520.481Z" fill="#407BFF"/>
<path d="M1353.28 549.453C1351.99 549.453 1350.7 549.422 1349.38 549.349C1347.11 549.236 1344.16 548.947 1341.51 547.76C1341.09 547.574 1340.9 547.079 1341.09 546.656C1341.27 546.232 1341.77 546.047 1342.19 546.232C1344.59 547.306 1347.33 547.574 1349.46 547.677C1365.06 548.482 1378.72 544.416 1392.48 534.9C1395.75 532.629 1400.65 528.429 1403.66 524.063C1403.92 523.681 1404.44 523.588 1404.83 523.846C1405.21 524.104 1405.3 524.63 1405.04 525.012C1401.91 529.554 1397 533.806 1393.44 536.273C1380.52 545.211 1367.66 549.453 1353.28 549.453Z" fill="white"/>
<path d="M1406.97 530.483C1406.87 530.483 1406.76 530.462 1406.65 530.421C1406.23 530.245 1406.02 529.75 1406.2 529.327C1407.39 526.457 1407.63 523.227 1406.92 520.296C1403.65 522.494 1400.17 524.342 1396.53 525.807C1396.1 525.983 1395.61 525.776 1395.44 525.343C1395.26 524.909 1395.47 524.424 1395.9 524.249C1399.78 522.69 1403.48 520.678 1406.92 518.262C1407.14 518.108 1407.42 518.066 1407.66 518.149C1407.91 518.231 1408.12 518.428 1408.2 518.675C1409.41 522.246 1409.24 526.354 1407.76 529.956C1407.61 530.286 1407.3 530.483 1406.97 530.483Z" fill="white"/>
<path d="M1475.44 498.425H1427.08C1426.26 498.425 1425.5 498.105 1424.95 497.527C1424.39 496.939 1424.11 496.175 1424.16 495.35L1426.42 454.478C1426.51 452.806 1427.94 451.444 1429.62 451.444H1477.98C1478.8 451.444 1479.56 451.764 1480.11 452.342C1480.67 452.93 1480.94 453.694 1480.89 454.52L1478.64 495.391C1478.55 497.063 1477.11 498.425 1475.44 498.425ZM1429.61 452.27C1428.37 452.27 1427.3 453.281 1427.24 454.509L1424.99 495.381C1424.96 495.969 1425.16 496.526 1425.55 496.939C1425.94 497.352 1426.48 497.579 1427.07 497.579H1475.43C1476.67 497.579 1477.73 496.568 1477.8 495.339L1480.05 454.468C1480.08 453.88 1479.88 453.322 1479.49 452.909C1479.1 452.497 1478.56 452.27 1477.97 452.27H1429.61Z" fill="#407BFF"/>
<path d="M1480.02 463.158H1426.36C1426.14 463.158 1425.94 462.972 1425.94 462.735C1425.94 462.508 1426.13 462.312 1426.36 462.312H1480.02C1480.24 462.312 1480.44 462.498 1480.44 462.735C1480.44 462.972 1480.25 463.158 1480.02 463.158Z" fill="#407BFF"/>
<path d="M1437.1 498.425C1437.09 498.425 1437.08 498.425 1437.08 498.425C1436.85 498.415 1436.67 498.219 1436.69 497.982L1438.63 462.714C1438.64 462.487 1438.84 462.302 1439.07 462.322C1439.3 462.333 1439.49 462.529 1439.47 462.766L1437.53 498.033C1437.51 498.25 1437.32 498.425 1437.1 498.425Z" fill="#407BFF"/>
<path d="M1473.87 467.349H1444.74C1444.52 467.349 1444.32 467.163 1444.32 466.925C1444.32 466.698 1444.51 466.502 1444.74 466.502H1473.87C1474.1 466.502 1474.3 466.688 1474.3 466.925C1474.3 467.163 1474.11 467.349 1473.87 467.349Z" fill="#407BFF"/>
<path d="M1469.48 472.488H1444.46C1444.24 472.488 1444.04 472.303 1444.04 472.065C1444.04 471.838 1444.23 471.642 1444.46 471.642H1469.48C1469.71 471.642 1469.91 471.828 1469.91 472.065C1469.91 472.303 1469.72 472.488 1469.48 472.488Z" fill="#407BFF"/>
<path d="M1458.73 477.794H1444.17C1443.94 477.794 1443.74 477.608 1443.74 477.37C1443.74 477.133 1443.93 476.947 1444.17 476.947H1458.73C1458.96 476.947 1459.16 477.133 1459.16 477.37C1459.16 477.608 1458.97 477.794 1458.73 477.794Z" fill="#407BFF"/>
<path d="M1461.38 488.146H1443.6C1443.37 488.146 1443.17 487.96 1443.17 487.722C1443.17 487.485 1443.36 487.299 1443.6 487.299H1461.38C1461.61 487.299 1461.8 487.485 1461.8 487.722C1461.8 487.96 1461.62 488.146 1461.38 488.146Z" fill="#407BFF"/>
<path d="M1457.88 493.461H1443.31C1443.08 493.461 1442.89 493.275 1442.89 493.038C1442.89 492.811 1443.07 492.615 1443.31 492.615H1457.88C1458.1 492.615 1458.3 492.8 1458.3 493.038C1458.29 493.265 1458.1 493.461 1457.88 493.461Z" fill="#407BFF"/>
<path d="M1466.41 493.461H1461.74C1461.51 493.461 1461.32 493.275 1461.32 493.038C1461.32 492.811 1461.5 492.615 1461.74 492.615H1466.41C1466.63 492.615 1466.83 492.8 1466.83 493.038C1466.82 493.265 1466.63 493.461 1466.41 493.461Z" fill="#407BFF"/>
<path d="M1471.17 482.933H1443.9C1443.67 482.933 1443.47 482.748 1443.47 482.51C1443.47 482.283 1443.66 482.087 1443.9 482.087H1471.17C1471.39 482.087 1471.59 482.273 1471.59 482.51C1471.58 482.748 1471.39 482.933 1471.17 482.933Z" fill="#407BFF"/>
<path d="M1445.73 557.885C1439.42 557.885 1434.24 556.017 1431.02 552.549C1427.59 548.844 1426.17 543.012 1427.12 536.551C1427.7 532.598 1429 529.275 1430.96 526.684C1432.93 524.083 1435.79 521.947 1439.46 520.316C1447.53 516.725 1456.89 516.848 1464.48 520.657C1467.87 522.36 1470 524.517 1470.81 527.066C1470.94 527.51 1470.7 527.975 1470.26 528.119C1469.81 528.253 1469.35 528.016 1469.2 527.572C1468.54 525.477 1466.7 523.65 1463.72 522.164C1456.58 518.582 1447.77 518.469 1440.14 521.864C1436.74 523.371 1434.1 525.343 1432.3 527.716C1430.5 530.08 1429.32 533.135 1428.78 536.809C1427.9 542.765 1429.17 548.09 1432.26 551.424C1436.56 556.058 1443.65 556.388 1447.5 556.172C1454.67 555.779 1460.82 553.271 1464.85 549.133C1469.56 544.282 1470.88 537.036 1467.91 532.268C1467.34 531.35 1466.11 529.77 1464.3 529.585C1463.84 529.543 1463.51 529.13 1463.55 528.666C1463.59 528.202 1464 527.871 1464.47 527.913C1466.33 528.098 1468.07 529.327 1469.34 531.38C1472.69 536.778 1471.28 544.911 1466.05 550.299C1461.73 554.747 1455.17 557.421 1447.58 557.844C1446.96 557.864 1446.34 557.885 1445.73 557.885Z" fill="white"/>
<path d="M1231.4 470.517L1228.42 475.709L1225.5 481.003C1223.58 484.544 1221.74 488.115 1220.07 491.696C1219.23 493.492 1218.44 495.288 1217.72 497.084L1217.58 497.414C1217.57 497.445 1217.55 497.465 1217.54 497.486C1217.49 497.538 1217.48 497.589 1217.45 497.631C1217.4 497.723 1217.36 497.806 1217.3 497.93C1217.23 498.167 1217.25 498.56 1217.43 499.086C1217.76 500.159 1218.73 501.553 1219.92 502.853C1221.08 504.164 1222.59 505.495 1223.94 506.672L1221.53 511.822C1220.3 511.471 1219.28 511.12 1218.19 510.645C1217.12 510.191 1216.07 509.644 1215.04 509.025C1212.99 507.756 1210.93 506.197 1209.22 503.627C1208.39 502.347 1207.68 500.758 1207.4 498.921C1207.28 498.002 1207.23 497.053 1207.35 496.113C1207.4 495.649 1207.47 495.174 1207.59 494.741L1207.75 494.07L1207.88 493.667C1208.54 491.562 1209.23 489.467 1210.03 487.454C1211.6 483.398 1213.37 479.486 1215.3 475.678C1216.26 473.768 1217.26 471.89 1218.32 470.032C1219.38 468.164 1220.4 466.358 1221.62 464.469L1231.4 470.517Z" fill="#FFC3BD"/>
<path d="M1221.36 506.084L1226.78 504.67L1227.09 513.422C1227.09 513.422 1222.85 514.051 1220.25 511.461L1221.36 506.084Z" fill="#FFC3BD"/>
<path d="M1234.47 503.204L1233.25 510.893L1227.09 513.432L1226.78 504.68L1234.47 503.204Z" fill="#FFC3BD"/>
<path d="M1256.91 429.254C1257.04 429.852 1257.45 430.275 1257.84 430.193C1258.23 430.11 1258.45 429.563 1258.33 428.965C1258.2 428.366 1257.79 427.943 1257.4 428.025C1257.02 428.108 1256.8 428.655 1256.91 429.254Z" fill="#263238"/>
<path d="M1257.4 430.286C1257.4 430.286 1259.46 433.465 1261.3 434.827C1260.44 436.035 1258.54 435.942 1258.54 435.942L1257.4 430.286Z" fill="#ED847E"/>
<path d="M1254.04 426.374C1253.96 426.374 1253.87 426.343 1253.79 426.281C1253.65 426.147 1253.64 425.92 1253.77 425.775C1255.13 424.32 1256.76 424.578 1256.83 424.588C1257.03 424.619 1257.16 424.805 1257.12 425.001C1257.09 425.197 1256.9 425.332 1256.71 425.301C1256.65 425.29 1255.37 425.105 1254.3 426.271C1254.24 426.333 1254.14 426.374 1254.04 426.374Z" fill="#263238"/>
<path d="M1239.83 437.686C1240.92 443.228 1242.01 453.395 1238.13 457.1C1238.13 457.1 1239.65 462.725 1249.96 462.725C1261.3 462.725 1255.38 457.1 1255.38 457.1C1249.2 455.624 1249.35 451.031 1250.44 446.727L1239.83 437.686Z" fill="#FFC3BD"/>
<path d="M1235.89 458.132C1235.06 456.594 1234.14 454.829 1236.03 454.272C1238.11 453.663 1251.46 452.538 1255.37 453.673C1254.17 455.82 1256.21 458.452 1256.21 458.452L1235.89 458.132Z" fill="#263238"/>
<path d="M1202.3 716.726C1203.06 716.891 1203.82 716.932 1204.19 716.623C1204.34 716.489 1204.5 716.241 1204.37 715.787C1204.29 715.549 1204.14 715.374 1203.9 715.26C1202.88 714.775 1200.52 715.735 1200.42 715.777C1200.36 715.807 1200.31 715.869 1200.31 715.942C1200.31 716.014 1200.35 716.076 1200.41 716.107C1200.77 716.272 1201.54 716.561 1202.3 716.726ZM1203.53 715.508C1203.6 715.529 1203.67 715.549 1203.74 715.58C1203.88 715.653 1203.96 715.746 1204 715.89C1204.1 716.21 1203.98 716.313 1203.94 716.344C1203.54 716.695 1202.02 716.375 1200.95 715.942C1201.69 715.694 1202.86 715.364 1203.53 715.508Z" fill="#407BFF"/>
<path d="M1200.45 716.107C1200.48 716.117 1200.51 716.117 1200.55 716.107C1201.4 715.859 1203.24 714.559 1203.26 713.692C1203.26 713.537 1203.21 713.258 1202.8 713.114C1202.53 713.021 1202.26 713.041 1202 713.176C1200.99 713.692 1200.35 715.797 1200.32 715.88C1200.3 715.942 1200.32 716.014 1200.36 716.055C1200.39 716.086 1200.42 716.107 1200.45 716.107ZM1202.6 713.434C1202.63 713.444 1202.65 713.444 1202.68 713.454C1202.91 713.537 1202.9 713.64 1202.9 713.692C1202.89 714.197 1201.68 715.219 1200.79 715.632C1201.02 715.023 1201.53 713.826 1202.18 713.496C1202.31 713.423 1202.46 713.403 1202.6 713.434Z" fill="#407BFF"/>
<path d="M1258.31 717.996C1259.28 717.996 1260.22 717.861 1260.54 717.428C1260.65 717.273 1260.73 717.015 1260.53 716.644C1260.41 716.437 1260.22 716.293 1259.96 716.22C1258.7 715.88 1256.04 717.387 1255.93 717.449C1255.87 717.49 1255.83 717.562 1255.84 717.634C1255.85 717.707 1255.91 717.769 1255.98 717.779C1256.46 717.882 1257.4 717.996 1258.31 717.996ZM1259.5 716.53C1259.63 716.53 1259.75 716.54 1259.85 716.571C1260.02 716.613 1260.13 716.695 1260.21 716.819C1260.33 717.046 1260.29 717.149 1260.24 717.211C1259.89 717.696 1257.97 717.717 1256.56 717.511C1257.26 717.16 1258.62 716.53 1259.5 716.53Z" fill="#407BFF"/>
<path d="M1256.01 717.789C1256.03 717.789 1256.07 717.779 1256.09 717.768C1257 717.356 1258.81 715.715 1258.68 714.858C1258.65 714.652 1258.5 714.404 1258.01 714.352C1257.63 714.311 1257.3 714.414 1257.02 714.662C1256.05 715.457 1255.85 717.5 1255.84 717.583C1255.83 717.645 1255.86 717.707 1255.91 717.748C1255.94 717.779 1255.97 717.789 1256.01 717.789ZM1257.86 714.713C1257.89 714.713 1257.93 714.713 1257.97 714.724C1258.29 714.755 1258.31 714.879 1258.32 714.93C1258.4 715.446 1257.17 716.736 1256.23 717.294C1256.32 716.695 1256.6 715.477 1257.23 714.951C1257.43 714.786 1257.63 714.713 1257.86 714.713Z" fill="#407BFF"/>
<path d="M1247.67 717.603H1255.26L1256.01 700.047H1248.42L1247.67 717.603Z" fill="#FFC3BD"/>
<path d="M1192 714.094L1199.41 715.704L1206.85 699.345L1199.44 697.746L1192 714.094Z" fill="#FFC3BD"/>
<path d="M1200.12 714.961L1191.79 713.155C1191.49 713.093 1191.18 713.248 1191.05 713.527L1188.15 719.802C1187.86 720.452 1188.25 721.216 1188.95 721.35C1191.87 721.928 1193.32 722.062 1196.98 722.857C1199.23 723.342 1204.32 724.58 1207.43 725.262C1210.48 725.922 1211.61 722.95 1210.41 722.392C1204.96 719.905 1202.69 717.717 1201.22 715.684C1200.96 715.302 1200.57 715.054 1200.12 714.961Z" fill="#263238"/>
<path d="M1255.21 716.726H1246.93C1246.62 716.726 1246.35 716.943 1246.28 717.242L1244.78 723.982C1244.62 724.684 1245.15 725.344 1245.87 725.334C1248.86 725.282 1253.18 725.107 1256.93 725.107C1261.32 725.107 1265.12 725.344 1270.26 725.344C1273.38 725.344 1274.24 722.196 1272.94 721.907C1267 720.607 1262.16 720.473 1257.03 717.314C1256.48 716.974 1255.86 716.726 1255.21 716.726Z" fill="#263238"/>
<path d="M1224.54 458.813C1217.43 460.444 1211.57 478.588 1211.57 478.588L1225.85 489.467C1225.85 489.467 1231.09 484.533 1233.42 475.451C1235.87 465.945 1231.81 457.151 1224.54 458.813Z" fill="#407BFF"/>
<path opacity="0.2" d="M1224.54 458.813C1217.43 460.444 1211.57 478.588 1211.57 478.588L1225.85 489.467C1225.85 489.467 1231.09 484.533 1233.42 475.451C1235.87 465.945 1231.81 457.151 1224.54 458.813Z" fill="#FAFAFA"/>
<path opacity="0.2" d="M1230.63 472.158C1226.77 475.977 1225.51 482.933 1225.21 488.982L1225.84 489.467C1225.84 489.467 1231.09 484.523 1233.42 475.451C1233.57 474.883 1233.69 474.315 1233.79 473.758L1230.63 472.158Z" fill="black"/>
<path d="M1267.04 459.205C1267.04 459.205 1275.12 468.319 1267.49 524.744C1255.26 524.744 1232.86 524.744 1226.92 524.744C1226.64 518.52 1230.55 488.146 1224.54 458.813C1224.54 458.813 1231.5 457.42 1238.12 457.1C1243.3 456.852 1250.81 456.687 1255.36 457.1C1261.38 457.647 1267.04 459.205 1267.04 459.205Z" fill="#407BFF"/>
<path opacity="0.2" d="M1267.04 459.205C1267.04 459.205 1275.12 468.319 1267.49 524.744C1255.26 524.744 1232.86 524.744 1226.92 524.744C1226.64 518.52 1230.55 488.146 1224.54 458.813C1224.54 458.813 1231.5 457.42 1238.12 457.1C1243.3 456.852 1250.81 456.687 1255.36 457.1C1261.38 457.647 1267.04 459.205 1267.04 459.205Z" fill="#FAFAFA"/>
<path opacity="0.2" d="M1270.58 476.452L1270.43 476.318L1261.21 478.526C1260.68 484.76 1267.09 492.212 1270.4 495.618C1270.85 487.66 1270.84 481.385 1270.58 476.452Z" fill="black"/>
<path opacity="0.2" d="M1256.01 700.058L1255.62 709.109H1248.03L1248.42 700.058H1256.01Z" fill="black"/>
<path opacity="0.2" d="M1199.43 697.746L1206.85 699.356L1203.01 707.778L1195.6 706.178L1199.43 697.746Z" fill="black"/>
<path d="M1236.66 432.051C1238.62 439.317 1239.38 443.672 1243.87 446.696C1250.62 451.237 1259.03 446.025 1259.29 438.326C1259.52 431.39 1256.29 420.666 1248.5 419.201C1240.8 417.756 1234.71 424.785 1236.66 432.051Z" fill="#FFC3BD"/>
<path d="M1240 443.899C1243.09 445.664 1254.36 439.76 1252.05 430.802C1252.05 430.802 1256.34 425.641 1255.86 419.944C1255.37 414.247 1251.46 412.079 1247.3 413.297C1243.63 414.371 1243.74 416.383 1243.74 416.383C1243.74 416.383 1226.4 418.427 1230.11 425.466C1223.04 433.155 1236.14 441.701 1240 443.899Z" fill="#263238"/>
<path d="M1230.59 426.054C1230.59 426.054 1228.53 422.483 1225.51 424.485C1226.93 424.506 1229.25 424.743 1230.59 426.054Z" fill="#263238"/>
<path d="M1255.3 423.701C1255.3 423.701 1259.08 415.176 1253.18 412.43C1255.18 415.196 1256.26 419.655 1255.3 423.701Z" fill="#263238"/>
<path d="M1249.03 432.36C1249.53 434.27 1250.78 435.911 1252.09 436.881C1254.06 438.346 1255.54 436.901 1255.39 434.672C1255.27 432.66 1254.09 429.481 1251.91 428.882C1249.78 428.294 1248.47 430.172 1249.03 432.36Z" fill="#FFC3BD"/>
<path d="M1253.1 524.744C1253.1 524.744 1244.49 582.686 1239.77 604.402C1234.6 628.171 1206.84 706.828 1206.84 706.828L1193.27 703.887C1193.27 703.887 1212.67 639.793 1217.01 606.559C1220.35 581.035 1226.93 524.754 1226.93 524.754H1253.1V524.744Z" fill="#263238"/>
<path d="M1210.09 702.287C1210.15 702.297 1207.56 707.2 1207.56 707.2L1192.27 703.897L1193.57 699.304L1210.09 702.287Z" fill="#407BFF"/>
<path opacity="0.3" d="M1247.66 545.386C1237.71 547.337 1238.76 584.441 1239.96 603.525C1242.83 590.035 1247.03 564.078 1249.9 545.654C1249.24 545.324 1248.5 545.221 1247.66 545.386Z" fill="black"/>
<path d="M1267.49 524.744C1267.49 524.744 1268.53 581.438 1267.7 604.557C1266.85 628.605 1258.44 707.355 1258.44 707.355H1245.58C1245.58 707.355 1245.11 630.009 1244.54 606.394C1243.92 580.643 1240.8 524.744 1240.8 524.744H1267.49Z" fill="#263238"/>
<path opacity="0.4" d="M1338.82 484.771H1312.65L1311.18 511.389L1337.33 512.08L1338.82 484.771Z" fill="#263238"/>
<path d="M1325.07 501.893C1316.34 500.82 1307.59 499.736 1298.85 498.663C1300.97 489.787 1302.55 480.849 1303.58 471.9C1312.37 472.984 1321.17 474.068 1329.95 475.141C1328.87 484.089 1327.24 493.027 1325.07 501.893Z" fill="#407BFF"/>
<path d="M1260.92 702.235C1260.98 702.235 1260.2 707.571 1260.2 707.571H1244.56L1244.14 702.813L1260.92 702.235Z" fill="#407BFF"/>
<path d="M1270.78 466.12C1271.95 467.937 1273.28 469.97 1274.6 471.859C1275.95 473.758 1277.3 475.657 1278.73 477.484C1281.55 481.138 1284.54 484.657 1287.76 487.568C1288.56 488.3 1289.38 488.992 1290.2 489.621L1290.82 490.086C1290.77 490.055 1290.57 489.983 1290.46 489.962C1290.19 489.91 1290.06 489.952 1290.13 489.993C1290.28 490.076 1291.04 489.941 1291.83 489.601C1292.64 489.26 1293.55 488.796 1294.45 488.249C1298.08 485.999 1301.83 482.851 1305.35 479.796L1309.78 483.377C1307.03 487.805 1304.01 491.81 1299.85 495.484C1298.79 496.392 1297.66 497.29 1296.29 498.095C1294.92 498.879 1293.37 499.695 1291.08 500.025C1289.94 500.17 1288.56 500.149 1287.13 499.695C1286.44 499.488 1285.7 499.117 1285.13 498.766L1284.23 498.198C1283.06 497.434 1281.93 496.629 1280.86 495.783C1276.58 492.398 1273.02 488.589 1269.74 484.626C1268.12 482.624 1266.55 480.601 1265.1 478.495C1263.62 476.369 1262.25 474.336 1260.88 471.972L1270.78 466.12Z" fill="#FFC3BD"/>
<path d="M1255.88 470.672C1253.45 480.838 1271.85 490.788 1271.85 490.788L1283.81 476.792C1283.81 476.792 1278.37 468.546 1271.59 462.054C1263.24 454.034 1257.73 462.931 1255.88 470.672Z" fill="#407BFF"/>
<path opacity="0.2" d="M1255.88 470.672C1253.45 480.838 1271.85 490.788 1271.85 490.788L1283.81 476.792C1283.81 476.792 1278.37 468.546 1271.59 462.054C1263.24 454.034 1257.73 462.931 1255.88 470.672Z" fill="#FAFAFA"/>
<path d="M1304.15 481.912L1306.97 472.86L1314.39 476.555C1314.39 476.555 1313.31 483.16 1307.91 484.306L1304.15 481.912Z" fill="#FFC3BD"/>
<path d="M1309.95 470.352L1316.65 472.189L1314.4 476.555L1306.98 472.86L1309.95 470.352Z" fill="#FFC3BD"/>
</g>
<defs>
<clipPath id="clip0">
<rect width="1920" height="1081" fill="white"/>
</clipPath>
</defs>
</svg>
