<svg width="122" height="122" viewBox="0 0 122 122" fill="none" xmlns="http://www.w3.org/2000/svg">
<g filter="url(#filter0_d)">
<circle cx="61" cy="57" r="49" fill="white"/>
</g>
<path d="M34 50.2447L59.3214 59.2414L68.5357 84.853L81.7406 40.3774C81.7406 40.3774 81.8857 38.7812 80.9425 37.9105C79.9955 37.0364 78.6449 36.9189 78.0403 37.0399L34 50.2447Z" fill="#0363AC"/>
<path fill-rule="evenodd" clip-rule="evenodd" d="M81.0153 37.9813L59.3806 59.406L59.3214 59.2414L34 50.2447L78.0403 37.0399C78.6449 36.9189 79.9955 37.0364 80.9425 37.9105C80.9675 37.9336 80.9918 37.9573 81.0153 37.9813Z" fill="#10ADE2"/>
<path fill-rule="evenodd" clip-rule="evenodd" d="M56.8394 61.6884L62.1758 76.3635L81.015 37.9824L42.8516 56.6892L56.8394 61.6884Z" fill="#0065B0"/>
<path d="M64.1099 72.5182L59.3213 59.3133L81.015 37.9824L64.1099 72.5182Z" fill="#FF9000"/>
<path d="M46.7695 54.815L59.3214 59.3133L81.015 37.9824L46.7695 54.815Z" fill="#0C94D0"/>
<defs>
<filter id="filter0_d" x="0" y="0" width="122" height="122" filterUnits="userSpaceOnUse" color-interpolation-filters="sRGB">
<feFlood flood-opacity="0" result="BackgroundImageFix"/>
<feColorMatrix in="SourceAlpha" type="matrix" values="0 0 0 0 0 0 0 0 0 0 0 0 0 0 0 0 0 0 127 0"/>
<feOffset dy="4"/>
<feGaussianBlur stdDeviation="6"/>
<feColorMatrix type="matrix" values="0 0 0 0 0.563142 0 0 0 0 0.602591 0 0 0 0 0.679167 0 0 0 0.23 0"/>
<feBlend mode="normal" in2="BackgroundImageFix" result="effect1_dropShadow"/>
<feBlend mode="normal" in="SourceGraphic" in2="effect1_dropShadow" result="shape"/>
</filter>
</defs>
</svg>
