<svg width="22" height="24" viewBox="0 0 22 24" fill="none" xmlns="http://www.w3.org/2000/svg">
<path d="M0.442383 23.1172C0.158203 22.7416 0 22.2797 0 21.7853V2.21716C0 1.75793 0.136963 1.32654 0.384338 0.966187L11.0316 12.0719L0.442383 23.1172Z" fill="#00C7FF"/>
<path d="M12.0062 13.0878L15.4603 16.6906L3.31879 23.7004C2.79181 24.0047 2.18719 24.0769 1.62305 23.9183L12.0062 13.0878Z" fill="#F73448"/>
<path d="M12.0067 11.0547L1.51855 0.114868C1.74469 0.0388794 1.9787 0.000610352 2.21289 0.000610352C2.59283 0.000610352 2.97296 0.100586 3.31921 0.300537L15.5481 7.3609L12.0067 11.0547Z" fill="#00F076"/>
<path d="M20.2654 13.9153L16.7157 15.9648L12.9814 12.07L16.8029 8.0838L20.2654 10.0829C20.9583 10.4828 21.3719 11.1993 21.3719 11.9991C21.3719 12.7991 20.9583 13.5154 20.2654 13.9153Z" fill="#FFDE00"/>
</svg>
