<svg width="24" height="24" viewBox="0 0 24 24" fill="none" xmlns="http://www.w3.org/2000/svg">
<path fill-rule="evenodd" clip-rule="evenodd" d="M6.34074 4.76195C7.0648 2.94822 8.24258 1.05685 9.95345 0.148438C7.73056 0.527369 5.66813 1.52272 3.97021 3.04967C4.69583 3.72388 5.49153 4.29692 6.34074 4.76195ZM7.73242 5.40816C8.84227 5.83751 10.0199 6.09678 11.2338 6.17386V1.26953C9.55098 1.77338 8.37645 3.76765 7.73242 5.40816ZM11.2337 7.71036V11.2348H6.60303C6.65805 9.68707 6.87948 8.20444 7.25085 6.86133C8.5281 7.3487 9.86277 7.63328 11.2337 7.71036ZM11.2337 12.7676V16.292C9.86277 16.3691 8.5281 16.6537 7.25085 17.1411C6.87948 15.798 6.65805 14.3153 6.60303 12.7676H11.2337ZM12.7661 17.8262C13.98 17.9033 15.1576 18.1625 16.2675 18.5919C15.6235 20.2324 14.449 22.2266 12.7661 22.7304V17.8262ZM5.0699 11.2355C5.129 9.46516 5.39236 7.76443 5.83898 6.22856C4.76847 5.67138 3.78335 4.97342 2.89658 4.14453C1.17304 6.13528 0.164398 8.60425 0 11.2355H5.0699ZM18.1611 17.7725C18.6078 16.2367 18.8711 14.5359 18.9302 12.7656H24.0001C23.8357 15.3968 22.8271 17.8658 21.1035 19.8565C20.2168 19.0277 19.2316 18.3297 18.1611 17.7725ZM5.0699 12.7656H0C0.164398 15.3968 1.17304 17.8658 2.89658 19.8565C3.78335 19.0277 4.76847 18.3297 5.83898 17.7725C5.39236 16.2367 5.129 14.5359 5.0699 12.7656ZM11.2338 17.8262V22.7305C9.5522 22.227 8.37743 20.235 7.73242 18.5919C8.84227 18.1625 10.0198 17.9032 11.2338 17.8262ZM17.6591 19.2383C16.935 21.052 15.7573 22.9434 14.0464 23.8518C16.2693 23.4729 18.3317 22.4775 20.0296 20.9506C19.304 20.2764 18.5083 19.7033 17.6591 19.2383ZM3.97021 20.9506C4.69578 20.2764 5.49153 19.7033 6.34074 19.2383C7.06462 21.0516 8.24234 22.9432 9.95345 23.8518C7.73056 23.4729 5.66813 22.4775 3.97021 20.9506ZM12.7661 16.2901V12.7656H17.3967C17.3417 14.3134 17.1203 15.796 16.7489 17.1391C15.4717 16.6518 14.137 16.3672 12.7661 16.2901ZM18.1611 6.22856C18.6078 7.76443 18.8711 9.46516 18.9302 11.2355H24.0001C23.8357 8.60425 22.8271 6.13528 21.1035 4.14453C20.2168 4.97342 19.2316 5.67134 18.1611 6.22856ZM12.7661 11.2329V7.7084C14.137 7.63137 15.4717 7.34675 16.7489 6.85938C17.1203 8.20249 17.3417 9.68512 17.3967 11.2329H12.7661ZM12.7661 1.26953V6.17381C13.9801 6.09678 15.1576 5.83751 16.2675 5.40811C15.6225 3.76498 14.4477 1.77301 12.7661 1.26953ZM17.6591 4.76195C16.9352 2.9486 15.7575 1.05699 14.0464 0.148438C16.2693 0.527369 18.3317 1.52277 20.0296 3.04962C19.3041 3.72383 18.5083 4.29692 17.6591 4.76195Z" fill="black"/>
</svg>
